<mxfile host="65bd71144e">
    <diagram name="Page-1" id="efa7a0a1-bf9b-a30e-e6df-94a7791c09e9">
        <mxGraphModel dx="2216" dy="2027" grid="1" gridSize="10" guides="1" tooltips="1" connect="1" arrows="1" fold="1" page="1" pageScale="1" pageWidth="826" pageHeight="1169" background="none" math="0" shadow="0">
            <root>
                <mxCell id="0"/>
                <mxCell id="1" parent="0"/>
                <mxCell id="Op8TfLiG2Sl3Lztc7KOS-114" value="&lt;p style=&quot;margin: 0px; margin-top: 4px; text-align: center; text-decoration: underline;&quot;&gt;&lt;strong&gt;Usuarios&lt;/strong&gt;&lt;/p&gt;&lt;hr&gt;&lt;p style=&quot;margin: 0px; margin-left: 8px;&quot;&gt;id_usuario&lt;/p&gt;&lt;p style=&quot;margin: 0px; margin-left: 8px;&quot;&gt;nombre&lt;/p&gt;&lt;p style=&quot;margin: 0px; margin-left: 8px;&quot;&gt;apellidos&lt;/p&gt;&lt;p style=&quot;margin: 0px; margin-left: 8px;&quot;&gt;&lt;span style=&quot;background-color: transparent; color: light-dark(rgb(0, 51, 102), rgb(161, 205, 249));&quot;&gt;Email&lt;/span&gt;&lt;/p&gt;&lt;p style=&quot;margin: 0px; margin-left: 8px;&quot;&gt;&lt;span style=&quot;background-color: transparent; color: light-dark(rgb(0, 51, 102), rgb(161, 205, 249));&quot;&gt;Contraseña&lt;/span&gt;&lt;/p&gt;&lt;p style=&quot;margin: 0px; margin-left: 8px;&quot;&gt;id_roles&lt;/p&gt;&lt;p style=&quot;margin: 0px; margin-left: 8px;&quot;&gt;&lt;b&gt;id_estado_cuenta&lt;/b&gt;&lt;/p&gt;&lt;p style=&quot;margin: 0px; margin-left: 8px;&quot;&gt;fecha_creacion&lt;/p&gt;&lt;p style=&quot;margin: 0px; margin-left: 8px;&quot;&gt;fecha_Actualizacion&lt;/p&gt;" style="verticalAlign=top;align=left;overflow=fill;fontSize=12;fontFamily=Helvetica;html=1;strokeColor=#003366;shadow=1;fillColor=#D4E1F5;fontColor=#003366" parent="1" vertex="1">
                    <mxGeometry x="39.99999999999993" y="280" width="160.0000000000001" height="180" as="geometry"/>
                </mxCell>
                <mxCell id="4" value="" style="edgeStyle=none;html=1;exitX=0;exitY=0.306;exitDx=0;exitDy=0;exitPerimeter=0;entryX=0.994;entryY=0.217;entryDx=0;entryDy=0;entryPerimeter=0;" parent="1" source="Op8TfLiG2Sl3Lztc7KOS-115" target="Op8TfLiG2Sl3Lztc7KOS-114" edge="1">
                    <mxGeometry relative="1" as="geometry">
                        <Array as="points">
                            <mxPoint x="220" y="335"/>
                            <mxPoint x="220" y="319"/>
                        </Array>
                    </mxGeometry>
                </mxCell>
                <mxCell id="Op8TfLiG2Sl3Lztc7KOS-115" value="&lt;p style=&quot;margin: 0px; margin-top: 4px; text-align: center; text-decoration: underline;&quot;&gt;&lt;b&gt;Perfiles&lt;/b&gt;&lt;/p&gt;&lt;hr&gt;&lt;p style=&quot;margin: 0px; margin-left: 8px;&quot;&gt;id_perfil&lt;/p&gt;&lt;p style=&quot;margin: 0px; margin-left: 8px;&quot;&gt;id_usuario&lt;/p&gt;&lt;p style=&quot;margin: 0px; margin-left: 8px;&quot;&gt;&lt;b&gt;id_genero&lt;/b&gt;&lt;/p&gt;&lt;p style=&quot;margin: 0px; margin-left: 8px;&quot;&gt;telefono&lt;/p&gt;&lt;p style=&quot;margin: 0px; margin-left: 8px;&quot;&gt;direccion&lt;/p&gt;&lt;p style=&quot;margin: 0px; margin-left: 8px;&quot;&gt;fecha_nacimiento&lt;/p&gt;&lt;p style=&quot;margin: 0px; margin-left: 8px;&quot;&gt;genero&lt;/p&gt;&lt;p style=&quot;margin: 0px; margin-left: 8px;&quot;&gt;fotografia&lt;/p&gt;&lt;p style=&quot;margin: 0px; margin-left: 8px;&quot;&gt;otros_datos&amp;nbsp;&lt;/p&gt;" style="verticalAlign=top;align=left;overflow=fill;fontSize=12;fontFamily=Helvetica;html=1;strokeColor=#003366;shadow=1;fillColor=#D4E1F5;fontColor=#003366" parent="1" vertex="1">
                    <mxGeometry x="232.99999999999994" y="280" width="160.0000000000001" height="180" as="geometry"/>
                </mxCell>
                <mxCell id="Op8TfLiG2Sl3Lztc7KOS-116" value="&lt;p style=&quot;margin: 0px; margin-top: 4px; text-align: center; text-decoration: underline;&quot;&gt;&lt;b&gt;Enfermos&lt;/b&gt;&lt;/p&gt;&lt;hr&gt;&lt;p style=&quot;margin: 0px; margin-left: 8px;&quot;&gt;id_enfermos&lt;/p&gt;&lt;p style=&quot;margin: 0px; margin-left: 8px;&quot;&gt;id_usuario&lt;/p&gt;&lt;p style=&quot;margin: 0px; margin-left: 8px;&quot;&gt;&lt;b&gt;id_especialidad&lt;/b&gt;&lt;/p&gt;&lt;p style=&quot;margin: 0px; margin-left: 8px;&quot;&gt;numero_colegiado&lt;/p&gt;&lt;p style=&quot;margin: 0px; margin-left: 8px;&quot;&gt;años_experiencia&lt;/p&gt;&lt;p style=&quot;margin: 0px; margin-left: 8px;&quot;&gt;turno_disponible&lt;/p&gt;&lt;p style=&quot;margin: 0px; margin-left: 8px;&quot;&gt;&lt;span style=&quot;background-color: transparent; color: light-dark(rgb(0, 51, 102), rgb(161, 205, 249));&quot;&gt;otros_datos&amp;nbsp;&lt;/span&gt;&lt;/p&gt;" style="verticalAlign=top;align=left;overflow=fill;fontSize=12;fontFamily=Helvetica;html=1;strokeColor=#003366;shadow=1;fillColor=#D4E1F5;fontColor=#003366" parent="1" vertex="1">
                    <mxGeometry x="429.99999999999994" y="280" width="160.0000000000001" height="180" as="geometry"/>
                </mxCell>
                <mxCell id="Op8TfLiG2Sl3Lztc7KOS-117" value="&lt;p style=&quot;margin: 0px; margin-top: 4px; text-align: center; text-decoration: underline;&quot;&gt;&lt;b&gt;Pacientes&lt;/b&gt;&lt;/p&gt;&lt;hr&gt;&lt;p style=&quot;margin: 0px; margin-left: 8px;&quot;&gt;id_paciente&lt;/p&gt;&lt;p style=&quot;margin: 0px; margin-left: 8px;&quot;&gt;id_usuario&lt;/p&gt;&lt;p style=&quot;margin: 0px; margin-left: 8px;&quot;&gt;nss&lt;/p&gt;&lt;p style=&quot;margin: 0px; margin-left: 8px;&quot;&gt;&lt;b&gt;id_tipo_sangre&lt;/b&gt;&lt;/p&gt;&lt;p style=&quot;margin: 0px; margin-left: 8px;&quot;&gt;alergias&lt;/p&gt;&lt;p style=&quot;margin: 0px; margin-left: 8px;&quot;&gt;padecimientos_cronicos&lt;/p&gt;&lt;p style=&quot;margin: 0px; margin-left: 8px;&quot;&gt;contacto_emergencia&lt;/p&gt;&lt;p style=&quot;margin: 0px; margin-left: 8px;&quot;&gt;&lt;b&gt;id_relacion_contacto_emergencia&lt;/b&gt;&lt;/p&gt;&lt;p style=&quot;margin: 0px; margin-left: 8px;&quot;&gt;otros_datos medicos&lt;/p&gt;" style="verticalAlign=top;align=left;overflow=fill;fontSize=12;fontFamily=Helvetica;html=1;strokeColor=#003366;shadow=1;fillColor=#D4E1F5;fontColor=#003366" parent="1" vertex="1">
                    <mxGeometry x="620" y="280" width="220" height="180" as="geometry"/>
                </mxCell>
                <mxCell id="Op8TfLiG2Sl3Lztc7KOS-118" value="&lt;p style=&quot;margin: 0px; margin-top: 4px; text-align: center; text-decoration: underline;&quot;&gt;&lt;b&gt;Citas&lt;/b&gt;&lt;/p&gt;&lt;hr&gt;&lt;p style=&quot;margin: 0px; margin-left: 8px;&quot;&gt;id_cita&lt;/p&gt;&lt;p style=&quot;margin: 0px; margin-left: 8px;&quot;&gt;id_enfermero&lt;/p&gt;&lt;p style=&quot;margin: 0px; margin-left: 8px;&quot;&gt;id_pacinete&lt;/p&gt;&lt;p style=&quot;margin: 0px; margin-left: 8px;&quot;&gt;fecha_hora_inicio&lt;/p&gt;&lt;p style=&quot;margin: 0px; margin-left: 8px;&quot;&gt;fecha_hora_fin&lt;/p&gt;&lt;p style=&quot;margin: 0px; margin-left: 8px;&quot;&gt;&lt;b&gt;id_estado_cita&lt;/b&gt;&lt;/p&gt;&lt;p style=&quot;margin: 0px; margin-left: 8px;&quot;&gt;observaciones&lt;/p&gt;&lt;p style=&quot;margin: 0px; margin-left: 8px;&quot;&gt;ubicacion&lt;/p&gt;" style="verticalAlign=top;align=left;overflow=fill;fontSize=12;fontFamily=Helvetica;html=1;strokeColor=#003366;shadow=1;fillColor=#D4E1F5;fontColor=#003366" parent="1" vertex="1">
                    <mxGeometry x="870" y="280" width="160.0000000000001" height="180" as="geometry"/>
                </mxCell>
                <mxCell id="Op8TfLiG2Sl3Lztc7KOS-119" value="&lt;p style=&quot;margin: 0px; margin-top: 4px; text-align: center; text-decoration: underline;&quot;&gt;&lt;b&gt;Servicios&lt;/b&gt;&lt;/p&gt;&lt;hr&gt;&lt;p style=&quot;margin: 0px; margin-left: 8px;&quot;&gt;id_servicio&lt;/p&gt;&lt;p style=&quot;margin: 0px; margin-left: 8px;&quot;&gt;nombre_servicio&lt;/p&gt;&lt;p style=&quot;margin: 0px; margin-left: 8px;&quot;&gt;descripccion&lt;/p&gt;&lt;p style=&quot;margin: 0px; margin-left: 8px;&quot;&gt;costo_estandar&lt;/p&gt;&lt;p style=&quot;margin: 0px; margin-left: 8px;&quot;&gt;duracion_estimada&lt;/p&gt;&lt;p style=&quot;margin: 0px; margin-left: 8px;&quot;&gt;&lt;br&gt;&lt;/p&gt;" style="verticalAlign=top;align=left;overflow=fill;fontSize=12;fontFamily=Helvetica;html=1;strokeColor=#003366;shadow=1;fillColor=#D4E1F5;fontColor=#003366" parent="1" vertex="1">
                    <mxGeometry x="1059" y="280" width="160.0000000000001" height="180" as="geometry"/>
                </mxCell>
                <mxCell id="Op8TfLiG2Sl3Lztc7KOS-120" value="&lt;p style=&quot;margin: 0px; margin-top: 4px; text-align: center; text-decoration: underline;&quot;&gt;&lt;b&gt;Cita_servicios&lt;/b&gt;&lt;/p&gt;&lt;hr&gt;&lt;p style=&quot;margin: 0px; margin-left: 8px;&quot;&gt;id_cita_servicio&lt;/p&gt;&lt;p style=&quot;margin: 0px; margin-left: 8px;&quot;&gt;id_cita&lt;/p&gt;&lt;p style=&quot;margin: 0px; margin-left: 8px;&quot;&gt;id_servicio&lt;/p&gt;&lt;p style=&quot;margin: 0px; margin-left: 8px;&quot;&gt;cantidad&lt;/p&gt;&lt;p style=&quot;margin: 0px; margin-left: 8px;&quot;&gt;&lt;br&gt;&lt;/p&gt;" style="verticalAlign=top;align=left;overflow=fill;fontSize=12;fontFamily=Helvetica;html=1;strokeColor=#003366;shadow=1;fillColor=#D4E1F5;fontColor=#003366" parent="1" vertex="1">
                    <mxGeometry x="1250" y="280" width="160.0000000000001" height="180" as="geometry"/>
                </mxCell>
                <mxCell id="Op8TfLiG2Sl3Lztc7KOS-121" value="&lt;p style=&quot;margin: 0px; margin-top: 4px; text-align: center; text-decoration: underline;&quot;&gt;&lt;b&gt;formularios&lt;/b&gt;&lt;/p&gt;&lt;hr&gt;&lt;p style=&quot;margin: 0px; margin-left: 8px;&quot;&gt;id_formulario&lt;/p&gt;&lt;p style=&quot;margin: 0px; margin-left: 8px;&quot;&gt;&lt;span style=&quot;background-color: transparent; color: light-dark(rgb(0, 51, 102), rgb(161, 205, 249));&quot;&gt;titulo_formulario&lt;/span&gt;&lt;/p&gt;&lt;p style=&quot;margin: 0px; margin-left: 8px;&quot;&gt;&lt;span style=&quot;background-color: transparent; color: light-dark(rgb(0, 51, 102), rgb(161, 205, 249));&quot;&gt;descripccion_formulario&lt;/span&gt;&lt;/p&gt;&lt;p style=&quot;margin: 0px; margin-left: 8px;&quot;&gt;&lt;span style=&quot;background-color: transparent; color: light-dark(rgb(0, 51, 102), rgb(161, 205, 249));&quot;&gt;id_usuario_creador&lt;/span&gt;&lt;/p&gt;&lt;p style=&quot;margin: 0px; margin-left: 8px;&quot;&gt;&lt;span style=&quot;background-color: transparent; color: light-dark(rgb(0, 51, 102), rgb(161, 205, 249));&quot;&gt;fecha_creacion&lt;/span&gt;&lt;/p&gt;&lt;p style=&quot;margin: 0px; margin-left: 8px;&quot;&gt;&lt;span style=&quot;background-color: transparent; color: light-dark(rgb(0, 51, 102), rgb(161, 205, 249));&quot;&gt;fecha_actualizacion&lt;/span&gt;&lt;/p&gt;&lt;p style=&quot;margin: 0px; margin-left: 8px;&quot;&gt;&lt;span style=&quot;background-color: transparent; color: light-dark(rgb(0, 51, 102), rgb(161, 205, 249));&quot;&gt;estado&lt;/span&gt;&lt;/p&gt;&lt;p style=&quot;margin: 0px; margin-left: 8px;&quot;&gt;&lt;br&gt;&lt;/p&gt;" style="verticalAlign=top;align=left;overflow=fill;fontSize=12;fontFamily=Helvetica;html=1;strokeColor=#003366;shadow=1;fillColor=#D4E1F5;fontColor=#003366" parent="1" vertex="1">
                    <mxGeometry x="1440" y="280" width="160.0000000000001" height="180" as="geometry"/>
                </mxCell>
                <mxCell id="Op8TfLiG2Sl3Lztc7KOS-122" value="&lt;p style=&quot;margin: 0px; margin-top: 4px; text-align: center; text-decoration: underline;&quot;&gt;&lt;b&gt;Preguntas_formulario&lt;/b&gt;&lt;/p&gt;&lt;hr&gt;&lt;p style=&quot;margin: 0px; margin-left: 8px;&quot;&gt;id_pregunta&lt;/p&gt;&lt;p style=&quot;margin: 0px; margin-left: 8px;&quot;&gt;id_formulario&lt;/p&gt;&lt;p style=&quot;margin: 0px; margin-left: 8px;&quot;&gt;tipo_pregunta&lt;/p&gt;&lt;p style=&quot;margin: 0px; margin-left: 8px;&quot;&gt;texto_pregunta&lt;/p&gt;&lt;p style=&quot;margin: 0px; margin-left: 8px;&quot;&gt;orden&lt;/p&gt;" style="verticalAlign=top;align=left;overflow=fill;fontSize=12;fontFamily=Helvetica;html=1;strokeColor=#003366;shadow=1;fillColor=#D4E1F5;fontColor=#003366" parent="1" vertex="1">
                    <mxGeometry x="39.99999999999993" y="480" width="160.0000000000001" height="180" as="geometry"/>
                </mxCell>
                <mxCell id="Op8TfLiG2Sl3Lztc7KOS-123" value="&lt;p style=&quot;margin: 0px; margin-top: 4px; text-align: center; text-decoration: underline;&quot;&gt;&lt;b&gt;Respuesta_formulario&lt;/b&gt;&lt;/p&gt;&lt;hr&gt;&lt;p style=&quot;margin: 0px; margin-left: 8px;&quot;&gt;id_respuesta&lt;/p&gt;&lt;p style=&quot;margin: 0px; margin-left: 8px;&quot;&gt;id_pregunta&lt;/p&gt;&lt;p style=&quot;margin: 0px; margin-left: 8px;&quot;&gt;id_usuario&lt;span style=&quot;color: rgba(0, 0, 0, 0); font-family: monospace; font-size: 0px; background-color: transparent;&quot;&gt;%3CmxGraphModel%3E%3Croot%3E%3CmxCell%20id%3D%220%22%2F%3E%3CmxCell%20id%3D%221%22%20parent%3D%220%22%2F%3E%3CmxCell%20id%3D%222%22%20value%3D%22%26lt%3Bp%20style%3D%26quot%3Bmargin%3A%200px%3B%20margin-top%3A%204px%3B%20text-align%3A%20center%3B%20text-decoration%3A%20underline%3B%26quot%3B%26gt%3B%26lt%3Bb%26gt%3BPreguntas_formulario%26lt%3B%2Fb%26gt%3B%26lt%3B%2Fp%26gt%3B%26lt%3Bhr%26gt%3B%26lt%3Bp%20style%3D%26quot%3Bmargin%3A%200px%3B%20margin-left%3A%208px%3B%26quot%3B%26gt%3Bid_pregunta%26lt%3B%2Fp%26gt%3B%26lt%3Bp%20style%3D%26quot%3Bmargin%3A%200px%3B%20margin-left%3A%208px%3B%26quot%3B%26gt%3Bid_formulario%26lt%3B%2Fp%26gt%3B%26lt%3Bp%20style%3D%26quot%3Bmargin%3A%200px%3B%20margin-left%3A%208px%3B%26quot%3B%26gt%3Btipo_pregunta%26lt%3B%2Fp%26gt%3B%26lt%3Bp%20style%3D%26quot%3Bmargin%3A%200px%3B%20margin-left%3A%208px%3B%26quot%3B%26gt%3Btexto_pregunta%26lt%3B%2Fp%26gt%3B%26lt%3Bp%20style%3D%26quot%3Bmargin%3A%200px%3B%20margin-left%3A%208px%3B%26quot%3B%26gt%3Borden%26lt%3B%2Fp%26gt%3B%22%20style%3D%22verticalAlign%3Dtop%3Balign%3Dleft%3Boverflow%3Dfill%3BfontSize%3D12%3BfontFamily%3DHelvetica%3Bhtml%3D1%3BstrokeColor%3D%23003366%3Bshadow%3D1%3BfillColor%3D%23D4E1F5%3BfontColor%3D%23003366%22%20vertex%3D%221%22%20parent%3D%221%22%3E%3CmxGeometry%20x%3D%2259.99999999999993%22%20y%3D%221410%22%20width%3D%22160.0000000000001%22%20height%3D%22180%22%20as%3D%22geometry%22%2F%3E%3C%2FmxCell%3E%3C%2Froot%3E%3C%2FmxGraphModel%3E&lt;/span&gt;&lt;/p&gt;&lt;p style=&quot;margin: 0px; margin-left: 8px;&quot;&gt;valor_respuesta&lt;/p&gt;&lt;p style=&quot;margin: 0px; margin-left: 8px;&quot;&gt;fecha_respuesta&lt;/p&gt;" style="verticalAlign=top;align=left;overflow=fill;fontSize=12;fontFamily=Helvetica;html=1;strokeColor=#003366;shadow=1;fillColor=#D4E1F5;fontColor=#003366" parent="1" vertex="1">
                    <mxGeometry x="232.99999999999994" y="480" width="160.0000000000001" height="180" as="geometry"/>
                </mxCell>
                <mxCell id="Op8TfLiG2Sl3Lztc7KOS-124" value="&lt;p style=&quot;margin: 0px; margin-top: 4px; text-align: center; text-decoration: underline;&quot;&gt;&lt;b&gt;Notificaciones&lt;/b&gt;&lt;/p&gt;&lt;hr&gt;&lt;p style=&quot;margin: 0px; margin-left: 8px;&quot;&gt;id_notificacion&lt;/p&gt;&lt;p style=&quot;margin: 0px; margin-left: 8px;&quot;&gt;id_usuario_destinatario&lt;/p&gt;&lt;p style=&quot;margin: 0px; margin-left: 8px;&quot;&gt;id_tipo_notificacion&lt;/p&gt;&lt;p style=&quot;margin: 0px; margin-left: 8px;&quot;&gt;mensaje&lt;/p&gt;&lt;p style=&quot;margin: 0px; margin-left: 8px;&quot;&gt;fecha_creacion&lt;/p&gt;&lt;p style=&quot;margin: 0px; margin-left: 8px;&quot;&gt;leido&lt;span style=&quot;color: rgba(0, 0, 0, 0); font-family: monospace; font-size: 0px; background-color: transparent;&quot;&gt;%3CmxGraphModel%3E%3Croot%3E%3CmxCell%20id%3D%220%22%2F%3E%3CmxCell%20id%3D%221%22%20parent%3D%220%22%2F%3E%3CmxCell%20id%3D%222%22%20value%3D%22%26lt%3Bp%20style%3D%26quot%3Bmargin%3A%200px%3B%20margin-top%3A%204px%3B%20text-align%3A%20center%3B%20text-decoration%3A%20underline%3B%26quot%3B%26gt%3B%26lt%3Bb%26gt%3BRespuesta_formulario%26lt%3B%2Fb%26gt%3B%26lt%3B%2Fp%26gt%3B%26lt%3Bhr%26gt%3B%26lt%3Bp%20style%3D%26quot%3Bmargin%3A%200px%3B%20margin-left%3A%208px%3B%26quot%3B%26gt%3Bid_respuesta%26lt%3B%2Fp%26gt%3B%26lt%3Bp%20style%3D%26quot%3Bmargin%3A%200px%3B%20margin-left%3A%208px%3B%26quot%3B%26gt%3Bid_pregunta%26lt%3B%2Fp%26gt%3B%26lt%3Bp%20style%3D%26quot%3Bmargin%3A%200px%3B%20margin-left%3A%208px%3B%26quot%3B%26gt%3Bid_usuario%26lt%3Bspan%20style%3D%26quot%3Bcolor%3A%20rgba(0%2C%200%2C%200%2C%200)%3B%20font-family%3A%20monospace%3B%20font-size%3A%200px%3B%20background-color%3A%20transparent%3B%26quot%3B%26gt%3B%253CmxGraphModel%253E%253Croot%253E%253CmxCell%2520id%253D%25220%2522%252F%253E%253CmxCell%2520id%253D%25221%2522%2520parent%253D%25220%2522%252F%253E%253CmxCell%2520id%253D%25222%2522%2520value%253D%2522%2526lt%253Bp%2520style%253D%2526quot%253Bmargin%253A%25200px%253B%2520margin-top%253A%25204px%253B%2520text-align%253A%2520center%253B%2520text-decoration%253A%2520underline%253B%2526quot%253B%2526gt%253B%2526lt%253Bb%2526gt%253BPreguntas_formulario%2526lt%253B%252Fb%2526gt%253B%2526lt%253B%252Fp%2526gt%253B%2526lt%253Bhr%2526gt%253B%2526lt%253Bp%2520style%253D%2526quot%253Bmargin%253A%25200px%253B%2520margin-left%253A%25208px%253B%2526quot%253B%2526gt%253Bid_pregunta%2526lt%253B%252Fp%2526gt%253B%2526lt%253Bp%2520style%253D%2526quot%253Bmargin%253A%25200px%253B%2520margin-left%253A%25208px%253B%2526quot%253B%2526gt%253Bid_formulario%2526lt%253B%252Fp%2526gt%253B%2526lt%253Bp%2520style%253D%2526quot%253Bmargin%253A%25200px%253B%2520margin-left%253A%25208px%253B%2526quot%253B%2526gt%253Btipo_pregunta%2526lt%253B%252Fp%2526gt%253B%2526lt%253Bp%2520style%253D%2526quot%253Bmargin%253A%25200px%253B%2520margin-left%253A%25208px%253B%2526quot%253B%2526gt%253Btexto_pregunta%2526lt%253B%252Fp%2526gt%253B%2526lt%253Bp%2520style%253D%2526quot%253Bmargin%253A%25200px%253B%2520margin-left%253A%25208px%253B%2526quot%253B%2526gt%253Borden%2526lt%253B%252Fp%2526gt%253B%2522%2520style%253D%2522verticalAlign%253Dtop%253Balign%253Dleft%253Boverflow%253Dfill%253BfontSize%253D12%253BfontFamily%253DHelvetica%253Bhtml%253D1%253BstrokeColor%253D%2523003366%253Bshadow%253D1%253BfillColor%253D%2523D4E1F5%253BfontColor%253D%2523003366%2522%2520vertex%253D%25221%2522%2520parent%253D%25221%2522%253E%253CmxGeometry%2520x%253D%252259.99999999999993%2522%2520y%253D%25221410%2522%2520width%253D%2522160.0000000000001%2522%2520height%253D%2522180%2522%2520as%253D%2522geometry%2522%252F%253E%253C%252FmxCell%253E%253C%252Froot%253E%253C%252FmxGraphModel%253E%26lt%3B%2Fspan%26gt%3B%26lt%3B%2Fp%26gt%3B%26lt%3Bp%20style%3D%26quot%3Bmargin%3A%200px%3B%20margin-left%3A%208px%3B%26quot%3B%26gt%3Bvalor_respuesta%26lt%3B%2Fp%26gt%3B%26lt%3Bp%20style%3D%26quot%3Bmargin%3A%200px%3B%20margin-left%3A%208px%3B%26quot%3B%26gt%3Bfecha_respuesta%26lt%3B%2Fp%26gt%3B%22%20style%3D%22verticalAlign%3Dtop%3Balign%3Dleft%3Boverflow%3Dfill%3BfontSize%3D12%3BfontFamily%3DHelvetica%3Bhtml%3D1%3BstrokeColor%3D%23003366%3Bshadow%3D1%3BfillColor%3D%23D4E1F5%3BfontColor%3D%23003366%22%20vertex%3D%221%22%20parent%3D%221%22%3E%3CmxGeometry%20x%3D%22252.99999999999994%22%20y%3D%221410%22%20width%3D%22160.0000000000001%22%20height%3D%22180%22%20as%3D%22geometry%22%2F%3E%3C%2FmxCell%3E%3C%2Froot%3E%3C%2FmxGraphModel%3E&lt;/span&gt;&lt;/p&gt;" style="verticalAlign=top;align=left;overflow=fill;fontSize=12;fontFamily=Helvetica;html=1;strokeColor=#82b366;shadow=1;fillColor=#D5E8D4;" parent="1" vertex="1">
                    <mxGeometry x="429.99999999999994" y="480" width="160.0000000000001" height="180" as="geometry"/>
                </mxCell>
                <mxCell id="Op8TfLiG2Sl3Lztc7KOS-125" value="&lt;p style=&quot;margin: 0px; margin-top: 4px; text-align: center; text-decoration: underline;&quot;&gt;&lt;b&gt;Comentarios&lt;/b&gt;&lt;/p&gt;&lt;hr&gt;&lt;p style=&quot;margin: 0px; margin-left: 8px;&quot;&gt;id_comentario&lt;/p&gt;&lt;p style=&quot;margin: 0px; margin-left: 8px;&quot;&gt;id_usuario_autor&lt;/p&gt;&lt;p style=&quot;margin: 0px; margin-left: 8px;&quot;&gt;&lt;span style=&quot;background-color: transparent;&quot;&gt;id_enfermero_o_servicio&lt;/span&gt;&lt;/p&gt;&lt;p style=&quot;margin: 0px; margin-left: 8px;&quot;&gt;&lt;span style=&quot;background-color: transparent;&quot;&gt;texto_comentario&lt;/span&gt;&lt;/p&gt;&lt;p style=&quot;margin: 0px; margin-left: 8px;&quot;&gt;&lt;span style=&quot;background-color: transparent;&quot;&gt;calificacion&lt;/span&gt;&lt;/p&gt;&lt;p style=&quot;margin: 0px; margin-left: 8px;&quot;&gt;&lt;span style=&quot;background-color: transparent;&quot;&gt;fecha_comentario&lt;/span&gt;&lt;/p&gt;&lt;p style=&quot;margin: 0px; margin-left: 8px;&quot;&gt;&lt;span style=&quot;background-color: transparent; color: rgba(0, 0, 0, 0); font-family: monospace; font-size: 0px;&quot;&gt;texto%3CmxGraphModel%3E%3Croot%3E%3CmxCell%20id%3D%220%22%2F%3E%3CmxCell%20id%3D%221%22%20parent%3D%220%22%2F%3E%3CmxCell%20id%3D%222%22%20value%3D%22%26lt%3Bp%20style%3D%26quot%3Bmargin%3A%200px%3B%20margin-top%3A%204px%3B%20text-align%3A%20center%3B%20text-decoration%3A%20underline%3B%26quot%3B%26gt%3B%26lt%3Bb%26gt%3BRespuesta_formulario%26lt%3B%2Fb%26gt%3B%26lt%3B%2Fp%26gt%3B%26lt%3Bhr%26gt%3B%26lt%3Bp%20style%3D%26quot%3Bmargin%3A%200px%3B%20margin-left%3A%208px%3B%26quot%3B%26gt%3Bid_respuesta%26lt%3B%2Fp%26gt%3B%26lt%3Bp%20style%3D%26quot%3Bmargin%3A%200px%3B%20margin-left%3A%208px%3B%26quot%3B%26gt%3Bid_pregunta%26lt%3B%2Fp%26gt%3B%26lt%3Bp%20style%3D%26quot%3Bmargin%3A%200px%3B%20margin-left%3A%208px%3B%26quot%3B%26gt%3Bid_usuario%26lt%3Bspan%20style%3D%26quot%3Bcolor%3A%20rgba(0%2C%200%2C%200%2C%200)%3B%20font-family%3A%20monospace%3B%20font-size%3A%200px%3B%20background-color%3A%20transparent%3B%26quot%3B%26gt%3B%253CmxGraphModel%253E%253Croot%253E%253CmxCell%2520id%253D%25220%2522%252F%253E%253CmxCell%2520id%253D%25221%2522%2520parent%253D%25220%2522%252F%253E%253CmxCell%2520id%253D%25222%2522%2520value%253D%2522%2526lt%253Bp%2520style%253D%2526quot%253Bmargin%253A%25200px%253B%2520margin-top%253A%25204px%253B%2520text-align%253A%2520center%253B%2520text-decoration%253A%2520underline%253B%2526quot%253B%2526gt%253B%2526lt%253Bb%2526gt%253BPreguntas_formulario%2526lt%253B%252Fb%2526gt%253B%2526lt%253B%252Fp%2526gt%253B%2526lt%253Bhr%2526gt%253B%2526lt%253Bp%2520style%253D%2526quot%253Bmargin%253A%25200px%253B%2520margin-left%253A%25208px%253B%2526quot%253B%2526gt%253Bid_pregunta%2526lt%253B%252Fp%2526gt%253B%2526lt%253Bp%2520style%253D%2526quot%253Bmargin%253A%25200px%253B%2520margin-left%253A%25208px%253B%2526quot%253B%2526gt%253Bid_formulario%2526lt%253B%252Fp%2526gt%253B%2526lt%253Bp%2520style%253D%2526quot%253Bmargin%253A%25200px%253B%2520margin-left%253A%25208px%253B%2526quot%253B%2526gt%253Btipo_pregunta%2526lt%253B%252Fp%2526gt%253B%2526lt%253Bp%2520style%253D%2526quot%253Bmargin%253A%25200px%253B%2520margin-left%253A%25208px%253B%2526quot%253B%2526gt%253Btexto_pregunta%2526lt%253B%252Fp%2526gt%253B%2526lt%253Bp%2520style%253D%2526quot%253Bmargin%253A%25200px%253B%2520margin-left%253A%25208px%253B%2526quot%253B%2526gt%253Borden%2526lt%253B%252Fp%2526gt%253B%2522%2520style%253D%2522verticalAlign%253Dtop%253Balign%253Dleft%253Boverflow%253Dfill%253BfontSize%253D12%253BfontFamily%253DHelvetica%253Bhtml%253D1%253BstrokeColor%253D%2523003366%253Bshadow%253D1%253BfillColor%253D%2523D4E1F5%253BfontColor%253D%2523003366%2522%2520vertex%253D%25221%2522%2520parent%253D%25221%2522%253E%253CmxGeometry%2520x%253D%252259.99999999999993%2522%2520y%253D%25221410%2522%2520width%253D%2522160.0000000000001%2522%2520height%253D%2522180%2522%2520as%253D%2522geometry%2522%252F%253E%253C%252FmxCell%253E%253C%252Froot%253E%253C%252FmxGraphModel%253E%26lt%3B%2Fspan%26gt%3B%26lt%3B%2Fp%26gt%3B%26lt%3Bp%20style%3D%26quot%3Bmargin%3A%200px%3B%20margin-left%3A%208px%3B%26quot%3B%26gt%3Bvalor_respuesta%26lt%3B%2Fp%26gt%3B%26lt%3Bp%20style%3D%26quot%3Bmargin%3A%200px%3B%20margin-left%3A%208px%3B%26quot%3B%26gt%3Bfecha_respuesta%26lt%3B%2Fp%26gt%3B%22%20style%3D%22verticalAlign%3Dtop%3Balign%3Dleft%3Boverflow%3Dfill%3BfontSize%3D12%3BfontFamily%3DHelvetica%3Bhtml%3D1%3BstrokeColor%3D%23003366%3Bshadow%3D1%3BfillColor%3D%23D4E1F5%3BfontColor%3D%23003366%22%20vertex%3D%221%22%20parent%3D%221%22%3E%3CmxGeometry%20x%3D%22252.99999999999994%22%20y%3D%221410%22%20width%3D%22160.0000000000001%22%20height%3D%22180%22%20as%3D%22geometry%22%2F%3E%3C%2FmxCell%3E%3C%2Froot%3E%3C%2FmxGraphModel%3E&lt;/span&gt;&lt;/p&gt;" style="verticalAlign=top;align=left;overflow=fill;fontSize=12;fontFamily=Helvetica;html=1;strokeColor=#003366;shadow=1;fillColor=#D4E1F5;fontColor=#003366" parent="1" vertex="1">
                    <mxGeometry x="620" y="480" width="160.0000000000001" height="180" as="geometry"/>
                </mxCell>
                <mxCell id="Op8TfLiG2Sl3Lztc7KOS-126" value="&lt;p style=&quot;margin: 0px; margin-top: 4px; text-align: center; text-decoration: underline;&quot;&gt;&lt;b&gt;Roles&lt;/b&gt;&lt;/p&gt;&lt;hr&gt;&lt;p style=&quot;margin: 0px; margin-left: 8px;&quot;&gt;id_roles&lt;/p&gt;&lt;p style=&quot;margin: 0px; margin-left: 8px;&quot;&gt;nombre_rol&lt;/p&gt;&lt;p style=&quot;margin: 0px; margin-left: 8px;&quot;&gt;descripccion_rol&lt;/p&gt;&lt;p style=&quot;margin: 0px; margin-left: 8px;&quot;&gt;nivel&lt;/p&gt;&lt;p style=&quot;margin: 0px; margin-left: 8px;&quot;&gt;&lt;span style=&quot;background-color: transparent; color: rgba(0, 0, 0, 0); font-family: monospace; font-size: 0px;&quot;&gt;texto%3CmxGraphModel%3E%3Croot%3E%3CmxCell%20id%3D%220%22%2F%3E%3CmxCell%20id%3D%221%22%20parent%3D%220%22%2F%3E%3CmxCell%20id%3D%222%22%20value%3D%22%26lt%3Bp%20style%3D%26quot%3Bmargin%3A%200px%3B%20margin-top%3A%204px%3B%20text-align%3A%20center%3B%20text-decoration%3A%20underline%3B%26quot%3B%26gt%3B%26lt%3Bb%26gt%3BRespuesta_formulario%26lt%3B%2Fb%26gt%3B%26lt%3B%2Fp%26gt%3B%26lt%3Bhr%26gt%3B%26lt%3Bp%20style%3D%26quot%3Bmargin%3A%200px%3B%20margin-left%3A%208px%3B%26quot%3B%26gt%3Bid_respuesta%26lt%3B%2Fp%26gt%3B%26lt%3Bp%20style%3D%26quot%3Bmargin%3A%200px%3B%20margin-left%3A%208px%3B%26quot%3B%26gt%3Bid_pregunta%26lt%3B%2Fp%26gt%3B%26lt%3Bp%20style%3D%26quot%3Bmargin%3A%200px%3B%20margin-left%3A%208px%3B%26quot%3B%26gt%3Bid_usuario%26lt%3Bspan%20style%3D%26quot%3Bcolor%3A%20rgba(0%2C%200%2C%200%2C%200)%3B%20font-family%3A%20monospace%3B%20font-size%3A%200px%3B%20background-color%3A%20transparent%3B%26quot%3B%26gt%3B%253CmxGraphModel%253E%253Croot%253E%253CmxCell%2520id%253D%25220%2522%252F%253E%253CmxCell%2520id%253D%25221%2522%2520parent%253D%25220%2522%252F%253E%253CmxCell%2520id%253D%25222%2522%2520value%253D%2522%2526lt%253Bp%2520style%253D%2526quot%253Bmargin%253A%25200px%253B%2520margin-top%253A%25204px%253B%2520text-align%253A%2520center%253B%2520text-decoration%253A%2520underline%253B%2526quot%253B%2526gt%253B%2526lt%253Bb%2526gt%253BPreguntas_formulario%2526lt%253B%252Fb%2526gt%253B%2526lt%253B%252Fp%2526gt%253B%2526lt%253Bhr%2526gt%253B%2526lt%253Bp%2520style%253D%2526quot%253Bmargin%253A%25200px%253B%2520margin-left%253A%25208px%253B%2526quot%253B%2526gt%253Bid_pregunta%2526lt%253B%252Fp%2526gt%253B%2526lt%253Bp%2520style%253D%2526quot%253Bmargin%253A%25200px%253B%2520margin-left%253A%25208px%253B%2526quot%253B%2526gt%253Bid_formulario%2526lt%253B%252Fp%2526gt%253B%2526lt%253Bp%2520style%253D%2526quot%253Bmargin%253A%25200px%253B%2520margin-left%253A%25208px%253B%2526quot%253B%2526gt%253Btipo_pregunta%2526lt%253B%252Fp%2526gt%253B%2526lt%253Bp%2520style%253D%2526quot%253Bmargin%253A%25200px%253B%2520margin-left%253A%25208px%253B%2526quot%253B%2526gt%253Btexto_pregunta%2526lt%253B%252Fp%2526gt%253B%2526lt%253Bp%2520style%253D%2526quot%253Bmargin%253A%25200px%253B%2520margin-left%253A%25208px%253B%2526quot%253B%2526gt%253Borden%2526lt%253B%252Fp%2526gt%253B%2522%2520style%253D%2522verticalAlign%253Dtop%253Balign%253Dleft%253Boverflow%253Dfill%253BfontSize%253D12%253BfontFamily%253DHelvetica%253Bhtml%253D1%253BstrokeColor%253D%2523003366%253Bshadow%253D1%253BfillColor%253D%2523D4E1F5%253BfontColor%253D%2523003366%2522%2520vertex%253D%25221%2522%2520parent%253D%25221%2522%253E%253CmxGeometry%2520x%253D%252259.99999999999993%2522%2520y%253D%25221410%2522%2520width%253D%2522160.0000000000001%2522%2520height%253D%2522180%2522%2520as%253D%2522geometry%2522%252F%253E%253C%252FmxCell%253E%253C%252Froot%253E%253C%252FmxGraphModel%253E%26lt%3B%2Fspan%26gt%3B%26lt%3B%2Fp%26gt%3B%26lt%3Bp%20style%3D%26quot%3Bmargin%3A%200px%3B%20margin-left%3A%208px%3B%26quot%3B%26gt%3Bvalor_respuesta%26lt%3B%2Fp%26gt%3B%26lt%3Bp%20style%3D%26quot%3Bmargin%3A%200px%3B%20margin-left%3A%208px%3B%26quot%3B%26gt%3Bfecha_respuesta%26lt%3B%2Fp%26gt%3B%22%20style%3D%22verticalAlign%3Dtop%3Balign%3Dleft%3Boverflow%3Dfill%3BfontSize%3D12%3BfontFamily%3DHelvetica%3Bhtml%3D1%3BstrokeColor%3D%23003366%3Bshadow%3D1%3BfillColor%3D%23D4E1F5%3BfontColor%3D%23003366%22%20vertex%3D%221%22%20parent%3D%221%22%3E%3CmxGeometry%20x%3D%22252.99999999999994%22%20y%3D%221410%22%20width%3D%22160.0000000000001%22%20height%3D%22180%22%20as%3D%22geometry%22%2F%3E%3C%2FmxCell%3E%3C%2Froot%3E%3C%2FmxGraphModel%3E&lt;/span&gt;&lt;/p&gt;" style="verticalAlign=top;align=left;overflow=fill;fontSize=12;fontFamily=Helvetica;html=1;strokeColor=#9673a6;shadow=1;fillColor=#e1d5e7;" parent="1" vertex="1">
                    <mxGeometry x="40" y="1000" width="160.0000000000001" height="180" as="geometry"/>
                </mxCell>
                <mxCell id="Op8TfLiG2Sl3Lztc7KOS-127" value="&lt;p style=&quot;margin: 0px; margin-top: 4px; text-align: center; text-decoration: underline;&quot;&gt;&lt;b&gt;Usuario_rol&lt;/b&gt;&lt;/p&gt;&lt;hr&gt;&lt;p style=&quot;margin: 0px; margin-left: 8px;&quot;&gt;id_usuario_ro&lt;span style=&quot;background-color: transparent; color: light-dark(rgb(0, 51, 102), rgb(161, 205, 249));&quot;&gt;l&lt;/span&gt;&lt;/p&gt;&lt;p style=&quot;margin: 0px; margin-left: 8px;&quot;&gt;&lt;span style=&quot;background-color: transparent; color: light-dark(rgb(0, 51, 102), rgb(161, 205, 249));&quot;&gt;id_usuario&lt;/span&gt;&lt;/p&gt;&lt;p style=&quot;margin: 0px; margin-left: 8px;&quot;&gt;&lt;span style=&quot;background-color: transparent; color: light-dark(rgb(0, 51, 102), rgb(161, 205, 249));&quot;&gt;id_roles&lt;/span&gt;&lt;/p&gt;&lt;p style=&quot;margin: 0px; margin-left: 8px;&quot;&gt;&lt;span style=&quot;background-color: transparent; color: rgba(0, 0, 0, 0); font-family: monospace; font-size: 0px;&quot;&gt;texto%3CmxGraphModel%3E%3Croot%3E%3CmxCell%20id%3D%220%22%2F%3E%3CmxCell%20id%3D%221%22%20parent%3D%220%22%2F%3E%3CmxCell%20id%3D%222%22%20value%3D%22%26lt%3Bp%20style%3D%26quot%3Bmargin%3A%200px%3B%20margin-top%3A%204px%3B%20text-align%3A%20center%3B%20text-decoration%3A%20underline%3B%26quot%3B%26gt%3B%26lt%3Bb%26gt%3BRespuesta_formulario%26lt%3B%2Fb%26gt%3B%26lt%3B%2Fp%26gt%3B%26lt%3Bhr%26gt%3B%26lt%3Bp%20style%3D%26quot%3Bmargin%3A%200px%3B%20margin-left%3A%208px%3B%26quot%3B%26gt%3Bid_respuesta%26lt%3B%2Fp%26gt%3B%26lt%3Bp%20style%3D%26quot%3Bmargin%3A%200px%3B%20margin-left%3A%208px%3B%26quot%3B%26gt%3Bid_pregunta%26lt%3B%2Fp%26gt%3B%26lt%3Bp%20style%3D%26quot%3Bmargin%3A%200px%3B%20margin-left%3A%208px%3B%26quot%3B%26gt%3Bid_usuario%26lt%3Bspan%20style%3D%26quot%3Bcolor%3A%20rgba(0%2C%200%2C%200%2C%200)%3B%20font-family%3A%20monospace%3B%20font-size%3A%200px%3B%20background-color%3A%20transparent%3B%26quot%3B%26gt%3B%253CmxGraphModel%253E%253Croot%253E%253CmxCell%2520id%253D%25220%2522%252F%253E%253CmxCell%2520id%253D%25221%2522%2520parent%253D%25220%2522%252F%253E%253CmxCell%2520id%253D%25222%2522%2520value%253D%2522%2526lt%253Bp%2520style%253D%2526quot%253Bmargin%253A%25200px%253B%2520margin-top%253A%25204px%253B%2520text-align%253A%2520center%253B%2520text-decoration%253A%2520underline%253B%2526quot%253B%2526gt%253B%2526lt%253Bb%2526gt%253BPreguntas_formulario%2526lt%253B%252Fb%2526gt%253B%2526lt%253B%252Fp%2526gt%253B%2526lt%253Bhr%2526gt%253B%2526lt%253Bp%2520style%253D%2526quot%253Bmargin%253A%25200px%253B%2520margin-left%253A%25208px%253B%2526quot%253B%2526gt%253Bid_pregunta%2526lt%253B%252Fp%2526gt%253B%2526lt%253Bp%2520style%253D%2526quot%253Bmargin%253A%25200px%253B%2520margin-left%253A%25208px%253B%2526quot%253B%2526gt%253Bid_formulario%2526lt%253B%252Fp%2526gt%253B%2526lt%253Bp%2520style%253D%2526quot%253Bmargin%253A%25200px%253B%2520margin-left%253A%25208px%253B%2526quot%253B%2526gt%253Btipo_pregunta%2526lt%253B%252Fp%2526gt%253B%2526lt%253Bp%2520style%253D%2526quot%253Bmargin%253A%25200px%253B%2520margin-left%253A%25208px%253B%2526quot%253B%2526gt%253Btexto_pregunta%2526lt%253B%252Fp%2526gt%253B%2526lt%253Bp%2520style%253D%2526quot%253Bmargin%253A%25200px%253B%2520margin-left%253A%25208px%253B%2526quot%253B%2526gt%253Borden%2526lt%253B%252Fp%2526gt%253B%2522%2520style%253D%2522verticalAlign%253Dtop%253Balign%253Dleft%253Boverflow%253Dfill%253BfontSize%253D12%253BfontFamily%253DHelvetica%253Bhtml%253D1%253BstrokeColor%253D%2523003366%253Bshadow%253D1%253BfillColor%253D%2523D4E1F5%253BfontColor%253D%2523003366%2522%2520vertex%253D%25221%2522%2520parent%253D%25221%2522%253E%253CmxGeometry%2520x%253D%252259.99999999999993%2522%2520y%253D%25221410%2522%2520width%253D%2522160.0000000000001%2522%2520height%253D%2522180%2522%2520as%253D%2522geometry%2522%252F%253E%253C%252FmxCell%253E%253C%252Froot%253E%253C%252FmxGraphModel%253E%26lt%3B%2Fspan%26gt%3B%26lt%3B%2Fp%26gt%3B%26lt%3Bp%20style%3D%26quot%3Bmargin%3A%200px%3B%20margin-left%3A%208px%3B%26quot%3B%26gt%3Bvalor_respuesta%26lt%3B%2Fp%26gt%3B%26lt%3Bp%20style%3D%26quot%3Bmargin%3A%200px%3B%20margin-left%3A%208px%3B%26quot%3B%26gt%3Bfecha_respuesta%26lt%3B%2Fp%26gt%3B%22%20style%3D%22verticalAlign%3Dtop%3Balign%3Dleft%3Boverflow%3Dfill%3BfontSize%3D12%3BfontFamily%3DHelvetica%3Bhtml%3D1%3BstrokeColor%3D%23003366%3Bshadow%3D1%3BfillColor%3D%23D4E1F5%3BfontColor%3D%23003366%22%20vertex%3D%221%22%20parent%3D%221%22%3E%3CmxGeometry%20x%3D%22252.99999999999994%22%20y%3D%221410%22%20width%3D%22160.0000000000001%22%20height%3D%22180%22%20as%3D%22geometry%22%2F%3E%3C%2FmxCell%3E%3C%2Froot%3E%3C%2FmxGraphModel%3E&lt;/span&gt;&lt;/p&gt;" style="verticalAlign=top;align=left;overflow=fill;fontSize=12;fontFamily=Helvetica;html=1;strokeColor=#003366;shadow=1;fillColor=#D4E1F5;fontColor=#003366" parent="1" vertex="1">
                    <mxGeometry x="1000" y="480" width="160.0000000000001" height="180" as="geometry"/>
                </mxCell>
                <mxCell id="Op8TfLiG2Sl3Lztc7KOS-128" value="&lt;p style=&quot;margin: 0px; margin-top: 4px; text-align: center; text-decoration: underline;&quot;&gt;&lt;b&gt;Historial_medico&lt;/b&gt;&lt;/p&gt;&lt;hr&gt;&lt;p style=&quot;margin: 0px; margin-left: 8px;&quot;&gt;id_historial&lt;/p&gt;&lt;p style=&quot;margin: 0px; margin-left: 8px;&quot;&gt;id_paciente&lt;/p&gt;&lt;p style=&quot;margin: 0px; margin-left: 8px;&quot;&gt;fecha_registro&lt;/p&gt;&lt;p style=&quot;margin: 0px; margin-left: 8px;&quot;&gt;diagnostico&lt;/p&gt;&lt;p style=&quot;margin: 0px; margin-left: 8px;&quot;&gt;tratamiento&lt;/p&gt;&lt;p style=&quot;margin: 0px; margin-left: 8px;&quot;&gt;observaciones&lt;/p&gt;&lt;p style=&quot;margin: 0px; margin-left: 8px;&quot;&gt;id_enfermero (usuario)&lt;/p&gt;&lt;p style=&quot;margin: 0px; margin-left: 8px;&quot;&gt;&lt;span style=&quot;background-color: transparent; color: rgba(0, 0, 0, 0); font-family: monospace; font-size: 0px;&quot;&gt;texto%3CmxGraphModel%3E%3Croot%3E%3CmxCell%20id%3D%220%22%2F%3E%3CmxCell%20id%3D%221%22%20parent%3D%220%22%2F%3E%3CmxCell%20id%3D%222%22%20value%3D%22%26lt%3Bp%20style%3D%26quot%3Bmargin%3A%200px%3B%20margin-top%3A%204px%3B%20text-align%3A%20center%3B%20text-decoration%3A%20underline%3B%26quot%3B%26gt%3B%26lt%3Bb%26gt%3BRespuesta_formulario%26lt%3B%2Fb%26gt%3B%26lt%3B%2Fp%26gt%3B%26lt%3Bhr%26gt%3B%26lt%3Bp%20style%3D%26quot%3Bmargin%3A%200px%3B%20margin-left%3A%208px%3B%26quot%3B%26gt%3Bid_respuesta%26lt%3B%2Fp%26gt%3B%26lt%3Bp%20style%3D%26quot%3Bmargin%3A%200px%3B%20margin-left%3A%208px%3B%26quot%3B%26gt%3Bid_pregunta%26lt%3B%2Fp%26gt%3B%26lt%3Bp%20style%3D%26quot%3Bmargin%3A%200px%3B%20margin-left%3A%208px%3B%26quot%3B%26gt%3Bid_usuario%26lt%3Bspan%20style%3D%26quot%3Bcolor%3A%20rgba(0%2C%200%2C%200%2C%200)%3B%20font-family%3A%20monospace%3B%20font-size%3A%200px%3B%20background-color%3A%20transparent%3B%26quot%3B%26gt%3B%253CmxGraphModel%253E%253Croot%253E%253CmxCell%2520id%253D%25220%2522%252F%253E%253CmxCell%2520id%253D%25221%2522%2520parent%253D%25220%2522%252F%253E%253CmxCell%2520id%253D%25222%2522%2520value%253D%2522%2526lt%253Bp%2520style%253D%2526quot%253Bmargin%253A%25200px%253B%2520margin-top%253A%25204px%253B%2520text-align%253A%2520center%253B%2520text-decoration%253A%2520underline%253B%2526quot%253B%2526gt%253B%2526lt%253Bb%2526gt%253BPreguntas_formulario%2526lt%253B%252Fb%2526gt%253B%2526lt%253B%252Fp%2526gt%253B%2526lt%253Bhr%2526gt%253B%2526lt%253Bp%2520style%253D%2526quot%253Bmargin%253A%25200px%253B%2520margin-left%253A%25208px%253B%2526quot%253B%2526gt%253Bid_pregunta%2526lt%253B%252Fp%2526gt%253B%2526lt%253Bp%2520style%253D%2526quot%253Bmargin%253A%25200px%253B%2520margin-left%253A%25208px%253B%2526quot%253B%2526gt%253Bid_formulario%2526lt%253B%252Fp%2526gt%253B%2526lt%253Bp%2520style%253D%2526quot%253Bmargin%253A%25200px%253B%2520margin-left%253A%25208px%253B%2526quot%253B%2526gt%253Btipo_pregunta%2526lt%253B%252Fp%2526gt%253B%2526lt%253Bp%2520style%253D%2526quot%253Bmargin%253A%25200px%253B%2520margin-left%253A%25208px%253B%2526quot%253B%2526gt%253Btexto_pregunta%2526lt%253B%252Fp%2526gt%253B%2526lt%253Bp%2520style%253D%2526quot%253Bmargin%253A%25200px%253B%2520margin-left%253A%25208px%253B%2526quot%253B%2526gt%253Borden%2526lt%253B%252Fp%2526gt%253B%2522%2520style%253D%2522verticalAlign%253Dtop%253Balign%253Dleft%253Boverflow%253Dfill%253BfontSize%253D12%253BfontFamily%253DHelvetica%253Bhtml%253D1%253BstrokeColor%253D%2523003366%253Bshadow%253D1%253BfillColor%253D%2523D4E1F5%253BfontColor%253D%2523003366%2522%2520vertex%253D%25221%2522%2520parent%253D%25221%2522%253E%253CmxGeometry%2520x%253D%252259.99999999999993%2522%2520y%253D%25221410%2522%2520width%253D%2522160.0000000000001%2522%2520height%253D%2522180%2522%2520as%253D%2522geometry%2522%252F%253E%253C%252FmxCell%253E%253C%252Froot%253E%253C%252FmxGraphModel%253E%26lt%3B%2Fspan%26gt%3B%26lt%3B%2Fp%26gt%3B%26lt%3Bp%20style%3D%26quot%3Bmargin%3A%200px%3B%20margin-left%3A%208px%3B%26quot%3B%26gt%3Bvalor_respuesta%26lt%3B%2Fp%26gt%3B%26lt%3Bp%20style%3D%26quot%3Bmargin%3A%200px%3B%20margin-left%3A%208px%3B%26quot%3B%26gt%3Bfecha_respuesta%26lt%3B%2Fp%26gt%3B%22%20style%3D%22verticalAlign%3Dtop%3Balign%3Dleft%3Boverflow%3Dfill%3BfontSize%3D12%3BfontFamily%3DHelvetica%3Bhtml%3D1%3BstrokeColor%3D%23003366%3Bshadow%3D1%3BfillColor%3D%23D4E1F5%3BfontColor%3D%23003366%22%20vertex%3D%221%22%20parent%3D%221%22%3E%3CmxGeometry%20x%3D%22252.99999999999994%22%20y%3D%221410%22%20width%3D%22160.0000000000001%22%20height%3D%22180%22%20as%3D%22geometry%22%2F%3E%3C%2FmxCell%3E%3C%2Froot%3E%3C%2FmxGraphModel%3E&lt;/span&gt;&lt;/p&gt;" style="verticalAlign=top;align=left;overflow=fill;fontSize=12;fontFamily=Helvetica;html=1;strokeColor=#003366;shadow=1;fillColor=#D4E1F5;fontColor=#003366" parent="1" vertex="1">
                    <mxGeometry x="1190" y="480" width="160.0000000000001" height="180" as="geometry"/>
                </mxCell>
                <mxCell id="Op8TfLiG2Sl3Lztc7KOS-129" value="&lt;p style=&quot;margin: 0px; margin-top: 4px; text-align: center; text-decoration: underline;&quot;&gt;&lt;b&gt;Horiarios_disponibles&lt;/b&gt;&lt;/p&gt;&lt;hr&gt;&lt;p style=&quot;margin: 0px; margin-left: 8px;&quot;&gt;id_disponibilidad&lt;/p&gt;&lt;p style=&quot;margin: 0px; margin-left: 8px;&quot;&gt;id_enfermero (usuario)&lt;/p&gt;&lt;p style=&quot;margin: 0px; margin-left: 8px;&quot;&gt;dia_Semana&lt;/p&gt;&lt;p style=&quot;margin: 0px; margin-left: 8px;&quot;&gt;hora_inicio&lt;/p&gt;&lt;p style=&quot;margin: 0px; margin-left: 8px;&quot;&gt;hora_fin&lt;/p&gt;&lt;p style=&quot;margin: 0px; margin-left: 8px;&quot;&gt;&lt;span style=&quot;background-color: transparent; color: rgba(0, 0, 0, 0); font-family: monospace; font-size: 0px;&quot;&gt;texto%3CmxGraphModel%3E%3Croot%3E%3CmxCell%20id%3D%220%22%2F%3E%3CmxCell%20id%3D%221%22%20parent%3D%220%22%2F%3E%3CmxCell%20id%3D%222%22%20value%3D%22%26lt%3Bp%20style%3D%26quot%3Bmargin%3A%200px%3B%20margin-top%3A%204px%3B%20text-align%3A%20center%3B%20text-decoration%3A%20underline%3B%26quot%3B%26gt%3B%26lt%3Bb%26gt%3BRespuesta_formulario%26lt%3B%2Fb%26gt%3B%26lt%3B%2Fp%26gt%3B%26lt%3Bhr%26gt%3B%26lt%3Bp%20style%3D%26quot%3Bmargin%3A%200px%3B%20margin-left%3A%208px%3B%26quot%3B%26gt%3Bid_respuesta%26lt%3B%2Fp%26gt%3B%26lt%3Bp%20style%3D%26quot%3Bmargin%3A%200px%3B%20margin-left%3A%208px%3B%26quot%3B%26gt%3Bid_pregunta%26lt%3B%2Fp%26gt%3B%26lt%3Bp%20style%3D%26quot%3Bmargin%3A%200px%3B%20margin-left%3A%208px%3B%26quot%3B%26gt%3Bid_usuario%26lt%3Bspan%20style%3D%26quot%3Bcolor%3A%20rgba(0%2C%200%2C%200%2C%200)%3B%20font-family%3A%20monospace%3B%20font-size%3A%200px%3B%20background-color%3A%20transparent%3B%26quot%3B%26gt%3B%253CmxGraphModel%253E%253Croot%253E%253CmxCell%2520id%253D%25220%2522%252F%253E%253CmxCell%2520id%253D%25221%2522%2520parent%253D%25220%2522%252F%253E%253CmxCell%2520id%253D%25222%2522%2520value%253D%2522%2526lt%253Bp%2520style%253D%2526quot%253Bmargin%253A%25200px%253B%2520margin-top%253A%25204px%253B%2520text-align%253A%2520center%253B%2520text-decoration%253A%2520underline%253B%2526quot%253B%2526gt%253B%2526lt%253Bb%2526gt%253BPreguntas_formulario%2526lt%253B%252Fb%2526gt%253B%2526lt%253B%252Fp%2526gt%253B%2526lt%253Bhr%2526gt%253B%2526lt%253Bp%2520style%253D%2526quot%253Bmargin%253A%25200px%253B%2520margin-left%253A%25208px%253B%2526quot%253B%2526gt%253Bid_pregunta%2526lt%253B%252Fp%2526gt%253B%2526lt%253Bp%2520style%253D%2526quot%253Bmargin%253A%25200px%253B%2520margin-left%253A%25208px%253B%2526quot%253B%2526gt%253Bid_formulario%2526lt%253B%252Fp%2526gt%253B%2526lt%253Bp%2520style%253D%2526quot%253Bmargin%253A%25200px%253B%2520margin-left%253A%25208px%253B%2526quot%253B%2526gt%253Btipo_pregunta%2526lt%253B%252Fp%2526gt%253B%2526lt%253Bp%2520style%253D%2526quot%253Bmargin%253A%25200px%253B%2520margin-left%253A%25208px%253B%2526quot%253B%2526gt%253Btexto_pregunta%2526lt%253B%252Fp%2526gt%253B%2526lt%253Bp%2520style%253D%2526quot%253Bmargin%253A%25200px%253B%2520margin-left%253A%25208px%253B%2526quot%253B%2526gt%253Borden%2526lt%253B%252Fp%2526gt%253B%2522%2520style%253D%2522verticalAlign%253Dtop%253Balign%253Dleft%253Boverflow%253Dfill%253BfontSize%253D12%253BfontFamily%253DHelvetica%253Bhtml%253D1%253BstrokeColor%253D%2523003366%253Bshadow%253D1%253BfillColor%253D%2523D4E1F5%253BfontColor%253D%2523003366%2522%2520vertex%253D%25221%2522%2520parent%253D%25221%2522%253E%253CmxGeometry%2520x%253D%252259.99999999999993%2522%2520y%253D%25221410%2522%2520width%253D%2522160.0000000000001%2522%2520height%253D%2522180%2522%2520as%253D%2522geometry%2522%252F%253E%253C%252FmxCell%253E%253C%252Froot%253E%253C%252FmxGraphModel%253E%26lt%3B%2Fspan%26gt%3B%26lt%3B%2Fp%26gt%3B%26lt%3Bp%20style%3D%26quot%3Bmargin%3A%200px%3B%20margin-left%3A%208px%3B%26quot%3B%26gt%3Bvalor_respuesta%26lt%3B%2Fp%26gt%3B%26lt%3Bp%20style%3D%26quot%3Bmargin%3A%200px%3B%20margin-left%3A%208px%3B%26quot%3B%26gt%3Bfecha_respuesta%26lt%3B%2Fp%26gt%3B%22%20style%3D%22verticalAlign%3Dtop%3Balign%3Dleft%3Boverflow%3Dfill%3BfontSize%3D12%3BfontFamily%3DHelvetica%3Bhtml%3D1%3BstrokeColor%3D%23003366%3Bshadow%3D1%3BfillColor%3D%23D4E1F5%3BfontColor%3D%23003366%22%20vertex%3D%221%22%20parent%3D%221%22%3E%3CmxGeometry%20x%3D%22252.99999999999994%22%20y%3D%221410%22%20width%3D%22160.0000000000001%22%20height%3D%22180%22%20as%3D%22geometry%22%2F%3E%3C%2FmxCell%3E%3C%2Froot%3E%3C%2FmxGraphModel%3E&lt;/span&gt;&lt;/p&gt;" style="verticalAlign=top;align=left;overflow=fill;fontSize=12;fontFamily=Helvetica;html=1;strokeColor=#003366;shadow=1;fillColor=#D4E1F5;fontColor=#003366" parent="1" vertex="1">
                    <mxGeometry x="1380" y="480" width="160.0000000000001" height="180" as="geometry"/>
                </mxCell>
                <mxCell id="Op8TfLiG2Sl3Lztc7KOS-130" value="&lt;p style=&quot;margin: 0px; margin-top: 4px; text-align: center; text-decoration: underline;&quot;&gt;&lt;b&gt;Pagos&lt;/b&gt;&lt;/p&gt;&lt;hr&gt;&lt;p style=&quot;margin: 0px; margin-left: 8px;&quot;&gt;id_pago&lt;/p&gt;&lt;p style=&quot;margin: 0px; margin-left: 8px;&quot;&gt;id_cita&lt;/p&gt;&lt;p style=&quot;margin: 0px; margin-left: 8px;&quot;&gt;monto&lt;/p&gt;&lt;p style=&quot;margin: 0px; margin-left: 8px;&quot;&gt;fecha_pago&lt;/p&gt;&lt;p style=&quot;margin: 0px; margin-left: 8px;&quot;&gt;id_metodo_pago&lt;/p&gt;&lt;p style=&quot;margin: 0px; margin-left: 8px;&quot;&gt;id_Estado_pago&lt;/p&gt;" style="verticalAlign=top;align=left;overflow=fill;fontSize=12;fontFamily=Helvetica;html=1;strokeColor=#003366;shadow=1;fillColor=#D4E1F5;fontColor=#003366" parent="1" vertex="1">
                    <mxGeometry x="39.99999999999993" y="690" width="160.0000000000001" height="180" as="geometry"/>
                </mxCell>
                <mxCell id="Op8TfLiG2Sl3Lztc7KOS-131" value="&lt;p style=&quot;margin: 0px; margin-top: 4px; text-align: center; text-decoration: underline;&quot;&gt;&lt;b&gt;Documentos&lt;/b&gt;&lt;/p&gt;&lt;hr&gt;&lt;p style=&quot;margin: 0px; margin-left: 8px;&quot;&gt;id_documentos&lt;/p&gt;&lt;p style=&quot;margin: 0px; margin-left: 8px;&quot;&gt;id_usuario&lt;/p&gt;&lt;p style=&quot;margin: 0px; margin-left: 8px;&quot;&gt;tipo_documento&lt;/p&gt;&lt;p style=&quot;margin: 0px; margin-left: 8px;&quot;&gt;ruta_archivo&lt;/p&gt;&lt;p style=&quot;margin: 0px; margin-left: 8px;&quot;&gt;fecha_subida&lt;/p&gt;&lt;p style=&quot;margin: 0px; margin-left: 8px;&quot;&gt;descripcion&lt;/p&gt;" style="verticalAlign=top;align=left;overflow=fill;fontSize=12;fontFamily=Helvetica;html=1;strokeColor=#003366;shadow=1;fillColor=#D4E1F5;fontColor=#003366" parent="1" vertex="1">
                    <mxGeometry x="232.99999999999994" y="690" width="160.0000000000001" height="180" as="geometry"/>
                </mxCell>
                <mxCell id="Op8TfLiG2Sl3Lztc7KOS-132" value="&lt;p style=&quot;margin: 0px; margin-top: 4px; text-align: center; text-decoration: underline;&quot;&gt;&lt;b&gt;Actividad&lt;/b&gt;&lt;/p&gt;&lt;hr&gt;&lt;p style=&quot;margin: 0px; margin-left: 8px;&quot;&gt;id_actividad&lt;/p&gt;&lt;p style=&quot;margin: 0px; margin-left: 8px;&quot;&gt;id_usuario&lt;/p&gt;&lt;p style=&quot;margin: 0px; margin-left: 8px;&quot;&gt;accion&lt;/p&gt;&lt;p style=&quot;margin: 0px; margin-left: 8px;&quot;&gt;tabla_afectada&lt;/p&gt;&lt;p style=&quot;margin: 0px; margin-left: 8px;&quot;&gt;id_registro_afectado&lt;/p&gt;&lt;p style=&quot;margin: 0px; margin-left: 8px;&quot;&gt;fecha_accion&lt;/p&gt;&lt;p style=&quot;margin: 0px; margin-left: 8px;&quot;&gt;detalles&lt;/p&gt;" style="verticalAlign=top;align=left;overflow=fill;fontSize=12;fontFamily=Helvetica;html=1;strokeColor=#003366;shadow=1;fillColor=#D4E1F5;fontColor=#003366" parent="1" vertex="1">
                    <mxGeometry x="806" y="480" width="160.0000000000001" height="180" as="geometry"/>
                </mxCell>
                <mxCell id="Op8TfLiG2Sl3Lztc7KOS-133" value="&lt;p style=&quot;margin: 0px; margin-top: 4px; text-align: center; text-decoration: underline;&quot;&gt;&lt;b&gt;Estado_cuenta&lt;/b&gt;&lt;/p&gt;&lt;hr&gt;&lt;p style=&quot;margin: 0px; margin-left: 8px;&quot;&gt;id_estado_cuenta&lt;/p&gt;&lt;p style=&quot;margin: 0px; margin-left: 8px;&quot;&gt;nombre_Estado&lt;/p&gt;&lt;p style=&quot;margin: 0px; margin-left: 8px;&quot;&gt;&lt;span style=&quot;background-color: transparent; color: rgba(0, 0, 0, 0); font-family: monospace; font-size: 0px;&quot;&gt;texto%3CmxGraphModel%3E%3Croot%3E%3CmxCell%20id%3D%220%22%2F%3E%3CmxCell%20id%3D%221%22%20parent%3D%220%22%2F%3E%3CmxCell%20id%3D%222%22%20value%3D%22%26lt%3Bp%20style%3D%26quot%3Bmargin%3A%200px%3B%20margin-top%3A%204px%3B%20text-align%3A%20center%3B%20text-decoration%3A%20underline%3B%26quot%3B%26gt%3B%26lt%3Bb%26gt%3BRespuesta_formulario%26lt%3B%2Fb%26gt%3B%26lt%3B%2Fp%26gt%3B%26lt%3Bhr%26gt%3B%26lt%3Bp%20style%3D%26quot%3Bmargin%3A%200px%3B%20margin-left%3A%208px%3B%26quot%3B%26gt%3Bid_respuesta%26lt%3B%2Fp%26gt%3B%26lt%3Bp%20style%3D%26quot%3Bmargin%3A%200px%3B%20margin-left%3A%208px%3B%26quot%3B%26gt%3Bid_pregunta%26lt%3B%2Fp%26gt%3B%26lt%3Bp%20style%3D%26quot%3Bmargin%3A%200px%3B%20margin-left%3A%208px%3B%26quot%3B%26gt%3Bid_usuario%26lt%3Bspan%20style%3D%26quot%3Bcolor%3A%20rgba(0%2C%200%2C%200%2C%200)%3B%20font-family%3A%20monospace%3B%20font-size%3A%200px%3B%20background-color%3A%20transparent%3B%26quot%3B%26gt%3B%253CmxGraphModel%253E%253Croot%253E%253CmxCell%2520id%253D%25220%2522%252F%253E%253CmxCell%2520id%253D%25221%2522%2520parent%253D%25220%2522%252F%253E%253CmxCell%2520id%253D%25222%2522%2520value%253D%2522%2526lt%253Bp%2520style%253D%2526quot%253Bmargin%253A%25200px%253B%2520margin-top%253A%25204px%253B%2520text-align%253A%2520center%253B%2520text-decoration%253A%2520underline%253B%2526quot%253B%2526gt%253B%2526lt%253Bb%2526gt%253BPreguntas_formulario%2526lt%253B%252Fb%2526gt%253B%2526lt%253B%252Fp%2526gt%253B%2526lt%253Bhr%2526gt%253B%2526lt%253Bp%2520style%253D%2526quot%253Bmargin%253A%25200px%253B%2520margin-left%253A%25208px%253B%2526quot%253B%2526gt%253Bid_pregunta%2526lt%253B%252Fp%2526gt%253B%2526lt%253Bp%2520style%253D%2526quot%253Bmargin%253A%25200px%253B%2520margin-left%253A%25208px%253B%2526quot%253B%2526gt%253Bid_formulario%2526lt%253B%252Fp%2526gt%253B%2526lt%253Bp%2520style%253D%2526quot%253Bmargin%253A%25200px%253B%2520margin-left%253A%25208px%253B%2526quot%253B%2526gt%253Btipo_pregunta%2526lt%253B%252Fp%2526gt%253B%2526lt%253Bp%2520style%253D%2526quot%253Bmargin%253A%25200px%253B%2520margin-left%253A%25208px%253B%2526quot%253B%2526gt%253Btexto_pregunta%2526lt%253B%252Fp%2526gt%253B%2526lt%253Bp%2520style%253D%2526quot%253Bmargin%253A%25200px%253B%2520margin-left%253A%25208px%253B%2526quot%253B%2526gt%253Borden%2526lt%253B%252Fp%2526gt%253B%2522%2520style%253D%2522verticalAlign%253Dtop%253Balign%253Dleft%253Boverflow%253Dfill%253BfontSize%253D12%253BfontFamily%253DHelvetica%253Bhtml%253D1%253BstrokeColor%253D%2523003366%253Bshadow%253D1%253BfillColor%253D%2523D4E1F5%253BfontColor%253D%2523003366%2522%2520vertex%253D%25221%2522%2520parent%253D%25221%2522%253E%253CmxGeometry%2520x%253D%252259.99999999999993%2522%2520y%253D%25221410%2522%2520width%253D%2522160.0000000000001%2522%2520height%253D%2522180%2522%2520as%253D%2522geometry%2522%252F%253E%253C%252FmxCell%253E%253C%252Froot%253E%253C%252FmxGraphModel%253E%26lt%3B%2Fspan%26gt%3B%26lt%3B%2Fp%26gt%3B%26lt%3Bp%20style%3D%26quot%3Bmargin%3A%200px%3B%20margin-left%3A%208px%3B%26quot%3B%26gt%3Bvalor_respuesta%26lt%3B%2Fp%26gt%3B%26lt%3Bp%20style%3D%26quot%3Bmargin%3A%200px%3B%20margin-left%3A%208px%3B%26quot%3B%26gt%3Bfecha_respuesta%26lt%3B%2Fp%26gt%3B%22%20style%3D%22verticalAlign%3Dtop%3Balign%3Dleft%3Boverflow%3Dfill%3BfontSize%3D12%3BfontFamily%3DHelvetica%3Bhtml%3D1%3BstrokeColor%3D%23003366%3Bshadow%3D1%3BfillColor%3D%23D4E1F5%3BfontColor%3D%23003366%22%20vertex%3D%221%22%20parent%3D%221%22%3E%3CmxGeometry%20x%3D%22252.99999999999994%22%20y%3D%221410%22%20width%3D%22160.0000000000001%22%20height%3D%22180%22%20as%3D%22geometry%22%2F%3E%3C%2FmxCell%3E%3C%2Froot%3E%3C%2FmxGraphModel%3E&lt;/span&gt;&lt;/p&gt;" style="verticalAlign=top;align=left;overflow=fill;fontSize=12;fontFamily=Helvetica;html=1;strokeColor=#9673a6;shadow=1;fillColor=#e1d5e7;" parent="1" vertex="1">
                    <mxGeometry x="233" y="1000" width="160.0000000000001" height="180" as="geometry"/>
                </mxCell>
                <mxCell id="Op8TfLiG2Sl3Lztc7KOS-134" value="&lt;p style=&quot;margin: 0px; margin-top: 4px; text-align: center; text-decoration: underline;&quot;&gt;&lt;b&gt;Estados_cita&lt;/b&gt;&lt;/p&gt;&lt;hr&gt;&lt;p style=&quot;margin: 0px; margin-left: 8px;&quot;&gt;id_estado_cita&lt;/p&gt;&lt;p style=&quot;margin: 0px; margin-left: 8px;&quot;&gt;nombre_estado_cita&lt;/p&gt;&lt;p style=&quot;margin: 0px; margin-left: 8px;&quot;&gt;&lt;span style=&quot;background-color: transparent; color: rgba(0, 0, 0, 0); font-family: monospace; font-size: 0px;&quot;&gt;texto%3CmxGraphModel%3E%3Croot%3E%3CmxCell%20id%3D%220%22%2F%3E%3CmxCell%20id%3D%221%22%20parent%3D%220%22%2F%3E%3CmxCell%20id%3D%222%22%20value%3D%22%26lt%3Bp%20style%3D%26quot%3Bmargin%3A%200px%3B%20margin-top%3A%204px%3B%20text-align%3A%20center%3B%20text-decoration%3A%20underline%3B%26quot%3B%26gt%3B%26lt%3Bb%26gt%3BRespuesta_formulario%26lt%3B%2Fb%26gt%3B%26lt%3B%2Fp%26gt%3B%26lt%3Bhr%26gt%3B%26lt%3Bp%20style%3D%26quot%3Bmargin%3A%200px%3B%20margin-left%3A%208px%3B%26quot%3B%26gt%3Bid_respuesta%26lt%3B%2Fp%26gt%3B%26lt%3Bp%20style%3D%26quot%3Bmargin%3A%200px%3B%20margin-left%3A%208px%3B%26quot%3B%26gt%3Bid_pregunta%26lt%3B%2Fp%26gt%3B%26lt%3Bp%20style%3D%26quot%3Bmargin%3A%200px%3B%20margin-left%3A%208px%3B%26quot%3B%26gt%3Bid_usuario%26lt%3Bspan%20style%3D%26quot%3Bcolor%3A%20rgba(0%2C%200%2C%200%2C%200)%3B%20font-family%3A%20monospace%3B%20font-size%3A%200px%3B%20background-color%3A%20transparent%3B%26quot%3B%26gt%3B%253CmxGraphModel%253E%253Croot%253E%253CmxCell%2520id%253D%25220%2522%252F%253E%253CmxCell%2520id%253D%25221%2522%2520parent%253D%25220%2522%252F%253E%253CmxCell%2520id%253D%25222%2522%2520value%253D%2522%2526lt%253Bp%2520style%253D%2526quot%253Bmargin%253A%25200px%253B%2520margin-top%253A%25204px%253B%2520text-align%253A%2520center%253B%2520text-decoration%253A%2520underline%253B%2526quot%253B%2526gt%253B%2526lt%253Bb%2526gt%253BPreguntas_formulario%2526lt%253B%252Fb%2526gt%253B%2526lt%253B%252Fp%2526gt%253B%2526lt%253Bhr%2526gt%253B%2526lt%253Bp%2520style%253D%2526quot%253Bmargin%253A%25200px%253B%2520margin-left%253A%25208px%253B%2526quot%253B%2526gt%253Bid_pregunta%2526lt%253B%252Fp%2526gt%253B%2526lt%253Bp%2520style%253D%2526quot%253Bmargin%253A%25200px%253B%2520margin-left%253A%25208px%253B%2526quot%253B%2526gt%253Bid_formulario%2526lt%253B%252Fp%2526gt%253B%2526lt%253Bp%2520style%253D%2526quot%253Bmargin%253A%25200px%253B%2520margin-left%253A%25208px%253B%2526quot%253B%2526gt%253Btipo_pregunta%2526lt%253B%252Fp%2526gt%253B%2526lt%253Bp%2520style%253D%2526quot%253Bmargin%253A%25200px%253B%2520margin-left%253A%25208px%253B%2526quot%253B%2526gt%253Btexto_pregunta%2526lt%253B%252Fp%2526gt%253B%2526lt%253Bp%2520style%253D%2526quot%253Bmargin%253A%25200px%253B%2520margin-left%253A%25208px%253B%2526quot%253B%2526gt%253Borden%2526lt%253B%252Fp%2526gt%253B%2522%2520style%253D%2522verticalAlign%253Dtop%253Balign%253Dleft%253Boverflow%253Dfill%253BfontSize%253D12%253BfontFamily%253DHelvetica%253Bhtml%253D1%253BstrokeColor%253D%2523003366%253Bshadow%253D1%253BfillColor%253D%2523D4E1F5%253BfontColor%253D%2523003366%2522%2520vertex%253D%25221%2522%2520parent%253D%25221%2522%253E%253CmxGeometry%2520x%253D%252259.99999999999993%2522%2520y%253D%25221410%2522%2520width%253D%2522160.0000000000001%2522%2520height%253D%2522180%2522%2520as%253D%2522geometry%2522%252F%253E%253C%252FmxCell%253E%253C%252Froot%253E%253C%252FmxGraphModel%253E%26lt%3B%2Fspan%26gt%3B%26lt%3B%2Fp%26gt%3B%26lt%3Bp%20style%3D%26quot%3Bmargin%3A%200px%3B%20margin-left%3A%208px%3B%26quot%3B%26gt%3Bvalor_respuesta%26lt%3B%2Fp%26gt%3B%26lt%3Bp%20style%3D%26quot%3Bmargin%3A%200px%3B%20margin-left%3A%208px%3B%26quot%3B%26gt%3Bfecha_respuesta%26lt%3B%2Fp%26gt%3B%22%20style%3D%22verticalAlign%3Dtop%3Balign%3Dleft%3Boverflow%3Dfill%3BfontSize%3D12%3BfontFamily%3DHelvetica%3Bhtml%3D1%3BstrokeColor%3D%23003366%3Bshadow%3D1%3BfillColor%3D%23D4E1F5%3BfontColor%3D%23003366%22%20vertex%3D%221%22%20parent%3D%221%22%3E%3CmxGeometry%20x%3D%22252.99999999999994%22%20y%3D%221410%22%20width%3D%22160.0000000000001%22%20height%3D%22180%22%20as%3D%22geometry%22%2F%3E%3C%2FmxCell%3E%3C%2Froot%3E%3C%2FmxGraphModel%3E&lt;/span&gt;&lt;/p&gt;" style="verticalAlign=top;align=left;overflow=fill;fontSize=12;fontFamily=Helvetica;html=1;strokeColor=#9673a6;shadow=1;fillColor=#e1d5e7;" parent="1" vertex="1">
                    <mxGeometry x="430" y="1000" width="160.0000000000001" height="180" as="geometry"/>
                </mxCell>
                <mxCell id="Op8TfLiG2Sl3Lztc7KOS-135" value="&lt;p style=&quot;margin: 0px; margin-top: 4px; text-align: center; text-decoration: underline;&quot;&gt;&lt;b&gt;Generos&lt;/b&gt;&lt;/p&gt;&lt;hr&gt;&lt;p style=&quot;margin: 0px; margin-left: 8px;&quot;&gt;id_genero&lt;/p&gt;&lt;p style=&quot;margin: 0px; margin-left: 8px;&quot;&gt;descipccion_genero&lt;/p&gt;&lt;p style=&quot;margin: 0px; margin-left: 8px;&quot;&gt;&lt;span style=&quot;background-color: transparent; color: rgba(0, 0, 0, 0); font-family: monospace; font-size: 0px;&quot;&gt;texto%3CmxGraphModel%3E%3Croot%3E%3CmxCell%20id%3D%220%22%2F%3E%3CmxCell%20id%3D%221%22%20parent%3D%220%22%2F%3E%3CmxCell%20id%3D%222%22%20value%3D%22%26lt%3Bp%20style%3D%26quot%3Bmargin%3A%200px%3B%20margin-top%3A%204px%3B%20text-align%3A%20center%3B%20text-decoration%3A%20underline%3B%26quot%3B%26gt%3B%26lt%3Bb%26gt%3BRespuesta_formulario%26lt%3B%2Fb%26gt%3B%26lt%3B%2Fp%26gt%3B%26lt%3Bhr%26gt%3B%26lt%3Bp%20style%3D%26quot%3Bmargin%3A%200px%3B%20margin-left%3A%208px%3B%26quot%3B%26gt%3Bid_respuesta%26lt%3B%2Fp%26gt%3B%26lt%3Bp%20style%3D%26quot%3Bmargin%3A%200px%3B%20margin-left%3A%208px%3B%26quot%3B%26gt%3Bid_pregunta%26lt%3B%2Fp%26gt%3B%26lt%3Bp%20style%3D%26quot%3Bmargin%3A%200px%3B%20margin-left%3A%208px%3B%26quot%3B%26gt%3Bid_usuario%26lt%3Bspan%20style%3D%26quot%3Bcolor%3A%20rgba(0%2C%200%2C%200%2C%200)%3B%20font-family%3A%20monospace%3B%20font-size%3A%200px%3B%20background-color%3A%20transparent%3B%26quot%3B%26gt%3B%253CmxGraphModel%253E%253Croot%253E%253CmxCell%2520id%253D%25220%2522%252F%253E%253CmxCell%2520id%253D%25221%2522%2520parent%253D%25220%2522%252F%253E%253CmxCell%2520id%253D%25222%2522%2520value%253D%2522%2526lt%253Bp%2520style%253D%2526quot%253Bmargin%253A%25200px%253B%2520margin-top%253A%25204px%253B%2520text-align%253A%2520center%253B%2520text-decoration%253A%2520underline%253B%2526quot%253B%2526gt%253B%2526lt%253Bb%2526gt%253BPreguntas_formulario%2526lt%253B%252Fb%2526gt%253B%2526lt%253B%252Fp%2526gt%253B%2526lt%253Bhr%2526gt%253B%2526lt%253Bp%2520style%253D%2526quot%253Bmargin%253A%25200px%253B%2520margin-left%253A%25208px%253B%2526quot%253B%2526gt%253Bid_pregunta%2526lt%253B%252Fp%2526gt%253B%2526lt%253Bp%2520style%253D%2526quot%253Bmargin%253A%25200px%253B%2520margin-left%253A%25208px%253B%2526quot%253B%2526gt%253Bid_formulario%2526lt%253B%252Fp%2526gt%253B%2526lt%253Bp%2520style%253D%2526quot%253Bmargin%253A%25200px%253B%2520margin-left%253A%25208px%253B%2526quot%253B%2526gt%253Btipo_pregunta%2526lt%253B%252Fp%2526gt%253B%2526lt%253Bp%2520style%253D%2526quot%253Bmargin%253A%25200px%253B%2520margin-left%253A%25208px%253B%2526quot%253B%2526gt%253Btexto_pregunta%2526lt%253B%252Fp%2526gt%253B%2526lt%253Bp%2520style%253D%2526quot%253Bmargin%253A%25200px%253B%2520margin-left%253A%25208px%253B%2526quot%253B%2526gt%253Borden%2526lt%253B%252Fp%2526gt%253B%2522%2520style%253D%2522verticalAlign%253Dtop%253Balign%253Dleft%253Boverflow%253Dfill%253BfontSize%253D12%253BfontFamily%253DHelvetica%253Bhtml%253D1%253BstrokeColor%253D%2523003366%253Bshadow%253D1%253BfillColor%253D%2523D4E1F5%253BfontColor%253D%2523003366%2522%2520vertex%253D%25221%2522%2520parent%253D%25221%2522%253E%253CmxGeometry%2520x%253D%252259.99999999999993%2522%2520y%253D%25221410%2522%2520width%253D%2522160.0000000000001%2522%2520height%253D%2522180%2522%2520as%253D%2522geometry%2522%252F%253E%253C%252FmxCell%253E%253C%252Froot%253E%253C%252FmxGraphModel%253E%26lt%3B%2Fspan%26gt%3B%26lt%3B%2Fp%26gt%3B%26lt%3Bp%20style%3D%26quot%3Bmargin%3A%200px%3B%20margin-left%3A%208px%3B%26quot%3B%26gt%3Bvalor_respuesta%26lt%3B%2Fp%26gt%3B%26lt%3Bp%20style%3D%26quot%3Bmargin%3A%200px%3B%20margin-left%3A%208px%3B%26quot%3B%26gt%3Bfecha_respuesta%26lt%3B%2Fp%26gt%3B%22%20style%3D%22verticalAlign%3Dtop%3Balign%3Dleft%3Boverflow%3Dfill%3BfontSize%3D12%3BfontFamily%3DHelvetica%3Bhtml%3D1%3BstrokeColor%3D%23003366%3Bshadow%3D1%3BfillColor%3D%23D4E1F5%3BfontColor%3D%23003366%22%20vertex%3D%221%22%20parent%3D%221%22%3E%3CmxGeometry%20x%3D%22252.99999999999994%22%20y%3D%221410%22%20width%3D%22160.0000000000001%22%20height%3D%22180%22%20as%3D%22geometry%22%2F%3E%3C%2FmxCell%3E%3C%2Froot%3E%3C%2FmxGraphModel%3E&lt;/span&gt;&lt;/p&gt;" style="verticalAlign=top;align=left;overflow=fill;fontSize=12;fontFamily=Helvetica;html=1;strokeColor=#9673a6;shadow=1;fillColor=#e1d5e7;" parent="1" vertex="1">
                    <mxGeometry x="620" y="1000" width="160.0000000000001" height="180" as="geometry"/>
                </mxCell>
                <mxCell id="Op8TfLiG2Sl3Lztc7KOS-136" value="&lt;p style=&quot;margin: 0px; margin-top: 4px; text-align: center; text-decoration: underline;&quot;&gt;&lt;b&gt;Tipo_sangre&lt;/b&gt;&lt;/p&gt;&lt;hr&gt;&lt;p style=&quot;margin: 0px; margin-left: 8px;&quot;&gt;id_tipo_sangre&lt;/p&gt;&lt;p style=&quot;margin: 0px; margin-left: 8px;&quot;&gt;grupo_sanguineo&lt;/p&gt;&lt;p style=&quot;margin: 0px; margin-left: 8px;&quot;&gt;&lt;span style=&quot;background-color: transparent; color: rgba(0, 0, 0, 0); font-family: monospace; font-size: 0px;&quot;&gt;texto%3CmxGraphModel%3E%3Croot%3E%3CmxCell%20id%3D%220%22%2F%3E%3CmxCell%20id%3D%221%22%20parent%3D%220%22%2F%3E%3CmxCell%20id%3D%222%22%20value%3D%22%26lt%3Bp%20style%3D%26quot%3Bmargin%3A%200px%3B%20margin-top%3A%204px%3B%20text-align%3A%20center%3B%20text-decoration%3A%20underline%3B%26quot%3B%26gt%3B%26lt%3Bb%26gt%3BRespuesta_formulario%26lt%3B%2Fb%26gt%3B%26lt%3B%2Fp%26gt%3B%26lt%3Bhr%26gt%3B%26lt%3Bp%20style%3D%26quot%3Bmargin%3A%200px%3B%20margin-left%3A%208px%3B%26quot%3B%26gt%3Bid_respuesta%26lt%3B%2Fp%26gt%3B%26lt%3Bp%20style%3D%26quot%3Bmargin%3A%200px%3B%20margin-left%3A%208px%3B%26quot%3B%26gt%3Bid_pregunta%26lt%3B%2Fp%26gt%3B%26lt%3Bp%20style%3D%26quot%3Bmargin%3A%200px%3B%20margin-left%3A%208px%3B%26quot%3B%26gt%3Bid_usuario%26lt%3Bspan%20style%3D%26quot%3Bcolor%3A%20rgba(0%2C%200%2C%200%2C%200)%3B%20font-family%3A%20monospace%3B%20font-size%3A%200px%3B%20background-color%3A%20transparent%3B%26quot%3B%26gt%3B%253CmxGraphModel%253E%253Croot%253E%253CmxCell%2520id%253D%25220%2522%252F%253E%253CmxCell%2520id%253D%25221%2522%2520parent%253D%25220%2522%252F%253E%253CmxCell%2520id%253D%25222%2522%2520value%253D%2522%2526lt%253Bp%2520style%253D%2526quot%253Bmargin%253A%25200px%253B%2520margin-top%253A%25204px%253B%2520text-align%253A%2520center%253B%2520text-decoration%253A%2520underline%253B%2526quot%253B%2526gt%253B%2526lt%253Bb%2526gt%253BPreguntas_formulario%2526lt%253B%252Fb%2526gt%253B%2526lt%253B%252Fp%2526gt%253B%2526lt%253Bhr%2526gt%253B%2526lt%253Bp%2520style%253D%2526quot%253Bmargin%253A%25200px%253B%2520margin-left%253A%25208px%253B%2526quot%253B%2526gt%253Bid_pregunta%2526lt%253B%252Fp%2526gt%253B%2526lt%253Bp%2520style%253D%2526quot%253Bmargin%253A%25200px%253B%2520margin-left%253A%25208px%253B%2526quot%253B%2526gt%253Bid_formulario%2526lt%253B%252Fp%2526gt%253B%2526lt%253Bp%2520style%253D%2526quot%253Bmargin%253A%25200px%253B%2520margin-left%253A%25208px%253B%2526quot%253B%2526gt%253Btipo_pregunta%2526lt%253B%252Fp%2526gt%253B%2526lt%253Bp%2520style%253D%2526quot%253Bmargin%253A%25200px%253B%2520margin-left%253A%25208px%253B%2526quot%253B%2526gt%253Btexto_pregunta%2526lt%253B%252Fp%2526gt%253B%2526lt%253Bp%2520style%253D%2526quot%253Bmargin%253A%25200px%253B%2520margin-left%253A%25208px%253B%2526quot%253B%2526gt%253Borden%2526lt%253B%252Fp%2526gt%253B%2522%2520style%253D%2522verticalAlign%253Dtop%253Balign%253Dleft%253Boverflow%253Dfill%253BfontSize%253D12%253BfontFamily%253DHelvetica%253Bhtml%253D1%253BstrokeColor%253D%2523003366%253Bshadow%253D1%253BfillColor%253D%2523D4E1F5%253BfontColor%253D%2523003366%2522%2520vertex%253D%25221%2522%2520parent%253D%25221%2522%253E%253CmxGeometry%2520x%253D%252259.99999999999993%2522%2520y%253D%25221410%2522%2520width%253D%2522160.0000000000001%2522%2520height%253D%2522180%2522%2520as%253D%2522geometry%2522%252F%253E%253C%252FmxCell%253E%253C%252Froot%253E%253C%252FmxGraphModel%253E%26lt%3B%2Fspan%26gt%3B%26lt%3B%2Fp%26gt%3B%26lt%3Bp%20style%3D%26quot%3Bmargin%3A%200px%3B%20margin-left%3A%208px%3B%26quot%3B%26gt%3Bvalor_respuesta%26lt%3B%2Fp%26gt%3B%26lt%3Bp%20style%3D%26quot%3Bmargin%3A%200px%3B%20margin-left%3A%208px%3B%26quot%3B%26gt%3Bfecha_respuesta%26lt%3B%2Fp%26gt%3B%22%20style%3D%22verticalAlign%3Dtop%3Balign%3Dleft%3Boverflow%3Dfill%3BfontSize%3D12%3BfontFamily%3DHelvetica%3Bhtml%3D1%3BstrokeColor%3D%23003366%3Bshadow%3D1%3BfillColor%3D%23D4E1F5%3BfontColor%3D%23003366%22%20vertex%3D%221%22%20parent%3D%221%22%3E%3CmxGeometry%20x%3D%22252.99999999999994%22%20y%3D%221410%22%20width%3D%22160.0000000000001%22%20height%3D%22180%22%20as%3D%22geometry%22%2F%3E%3C%2FmxCell%3E%3C%2Froot%3E%3C%2FmxGraphModel%3E&lt;/span&gt;&lt;/p&gt;" style="verticalAlign=top;align=left;overflow=fill;fontSize=12;fontFamily=Helvetica;html=1;strokeColor=#9673a6;shadow=1;fillColor=#e1d5e7;" parent="1" vertex="1">
                    <mxGeometry x="806" y="1000" width="160.0000000000001" height="180" as="geometry"/>
                </mxCell>
                <mxCell id="Op8TfLiG2Sl3Lztc7KOS-137" value="&lt;p style=&quot;margin: 0px; margin-top: 4px; text-align: center; text-decoration: underline;&quot;&gt;&lt;b&gt;Especialidades&lt;/b&gt;&lt;/p&gt;&lt;hr&gt;&lt;p style=&quot;margin: 0px; margin-left: 8px;&quot;&gt;id_especialidad&lt;/p&gt;&lt;p style=&quot;margin: 0px; margin-left: 8px;&quot;&gt;nombre_Especialidad&lt;/p&gt;&lt;p style=&quot;margin: 0px; margin-left: 8px;&quot;&gt;descripccion&lt;/p&gt;&lt;p style=&quot;margin: 0px; margin-left: 8px;&quot;&gt;&lt;span style=&quot;background-color: transparent; color: rgba(0, 0, 0, 0); font-family: monospace; font-size: 0px;&quot;&gt;texto%3CmxGraphModel%3E%3Croot%3E%3CmxCell%20id%3D%220%22%2F%3E%3CmxCell%20id%3D%221%22%20parent%3D%220%22%2F%3E%3CmxCell%20id%3D%222%22%20value%3D%22%26lt%3Bp%20style%3D%26quot%3Bmargin%3A%200px%3B%20margin-top%3A%204px%3B%20text-align%3A%20center%3B%20text-decoration%3A%20underline%3B%26quot%3B%26gt%3B%26lt%3Bb%26gt%3BRespuesta_formulario%26lt%3B%2Fb%26gt%3B%26lt%3B%2Fp%26gt%3B%26lt%3Bhr%26gt%3B%26lt%3Bp%20style%3D%26quot%3Bmargin%3A%200px%3B%20margin-left%3A%208px%3B%26quot%3B%26gt%3Bid_respuesta%26lt%3B%2Fp%26gt%3B%26lt%3Bp%20style%3D%26quot%3Bmargin%3A%200px%3B%20margin-left%3A%208px%3B%26quot%3B%26gt%3Bid_pregunta%26lt%3B%2Fp%26gt%3B%26lt%3Bp%20style%3D%26quot%3Bmargin%3A%200px%3B%20margin-left%3A%208px%3B%26quot%3B%26gt%3Bid_usuario%26lt%3Bspan%20style%3D%26quot%3Bcolor%3A%20rgba(0%2C%200%2C%200%2C%200)%3B%20font-family%3A%20monospace%3B%20font-size%3A%200px%3B%20background-color%3A%20transparent%3B%26quot%3B%26gt%3B%253CmxGraphModel%253E%253Croot%253E%253CmxCell%2520id%253D%25220%2522%252F%253E%253CmxCell%2520id%253D%25221%2522%2520parent%253D%25220%2522%252F%253E%253CmxCell%2520id%253D%25222%2522%2520value%253D%2522%2526lt%253Bp%2520style%253D%2526quot%253Bmargin%253A%25200px%253B%2520margin-top%253A%25204px%253B%2520text-align%253A%2520center%253B%2520text-decoration%253A%2520underline%253B%2526quot%253B%2526gt%253B%2526lt%253Bb%2526gt%253BPreguntas_formulario%2526lt%253B%252Fb%2526gt%253B%2526lt%253B%252Fp%2526gt%253B%2526lt%253Bhr%2526gt%253B%2526lt%253Bp%2520style%253D%2526quot%253Bmargin%253A%25200px%253B%2520margin-left%253A%25208px%253B%2526quot%253B%2526gt%253Bid_pregunta%2526lt%253B%252Fp%2526gt%253B%2526lt%253Bp%2520style%253D%2526quot%253Bmargin%253A%25200px%253B%2520margin-left%253A%25208px%253B%2526quot%253B%2526gt%253Bid_formulario%2526lt%253B%252Fp%2526gt%253B%2526lt%253Bp%2520style%253D%2526quot%253Bmargin%253A%25200px%253B%2520margin-left%253A%25208px%253B%2526quot%253B%2526gt%253Btipo_pregunta%2526lt%253B%252Fp%2526gt%253B%2526lt%253Bp%2520style%253D%2526quot%253Bmargin%253A%25200px%253B%2520margin-left%253A%25208px%253B%2526quot%253B%2526gt%253Btexto_pregunta%2526lt%253B%252Fp%2526gt%253B%2526lt%253Bp%2520style%253D%2526quot%253Bmargin%253A%25200px%253B%2520margin-left%253A%25208px%253B%2526quot%253B%2526gt%253Borden%2526lt%253B%252Fp%2526gt%253B%2522%2520style%253D%2522verticalAlign%253Dtop%253Balign%253Dleft%253Boverflow%253Dfill%253BfontSize%253D12%253BfontFamily%253DHelvetica%253Bhtml%253D1%253BstrokeColor%253D%2523003366%253Bshadow%253D1%253BfillColor%253D%2523D4E1F5%253BfontColor%253D%2523003366%2522%2520vertex%253D%25221%2522%2520parent%253D%25221%2522%253E%253CmxGeometry%2520x%253D%252259.99999999999993%2522%2520y%253D%25221410%2522%2520width%253D%2522160.0000000000001%2522%2520height%253D%2522180%2522%2520as%253D%2522geometry%2522%252F%253E%253C%252FmxCell%253E%253C%252Froot%253E%253C%252FmxGraphModel%253E%26lt%3B%2Fspan%26gt%3B%26lt%3B%2Fp%26gt%3B%26lt%3Bp%20style%3D%26quot%3Bmargin%3A%200px%3B%20margin-left%3A%208px%3B%26quot%3B%26gt%3Bvalor_respuesta%26lt%3B%2Fp%26gt%3B%26lt%3Bp%20style%3D%26quot%3Bmargin%3A%200px%3B%20margin-left%3A%208px%3B%26quot%3B%26gt%3Bfecha_respuesta%26lt%3B%2Fp%26gt%3B%22%20style%3D%22verticalAlign%3Dtop%3Balign%3Dleft%3Boverflow%3Dfill%3BfontSize%3D12%3BfontFamily%3DHelvetica%3Bhtml%3D1%3BstrokeColor%3D%23003366%3Bshadow%3D1%3BfillColor%3D%23D4E1F5%3BfontColor%3D%23003366%22%20vertex%3D%221%22%20parent%3D%221%22%3E%3CmxGeometry%20x%3D%22252.99999999999994%22%20y%3D%221410%22%20width%3D%22160.0000000000001%22%20height%3D%22180%22%20as%3D%22geometry%22%2F%3E%3C%2FmxCell%3E%3C%2Froot%3E%3C%2FmxGraphModel%3E&lt;/span&gt;&lt;/p&gt;" style="verticalAlign=top;align=left;overflow=fill;fontSize=12;fontFamily=Helvetica;html=1;strokeColor=#9673a6;shadow=1;fillColor=#e1d5e7;" parent="1" vertex="1">
                    <mxGeometry x="1000" y="1000" width="160.0000000000001" height="180" as="geometry"/>
                </mxCell>
                <mxCell id="Op8TfLiG2Sl3Lztc7KOS-138" value="&lt;p style=&quot;margin: 0px; margin-top: 4px; text-align: center; text-decoration: underline;&quot;&gt;&lt;b&gt;Relacion_contacto&lt;/b&gt;&lt;/p&gt;&lt;hr&gt;&lt;p style=&quot;margin: 0px; margin-left: 8px;&quot;&gt;id_relacion&lt;/p&gt;&lt;p style=&quot;margin: 0px; margin-left: 8px;&quot;&gt;nombre_relacion&lt;/p&gt;&lt;p style=&quot;margin: 0px; margin-left: 8px;&quot;&gt;&lt;span style=&quot;background-color: transparent; color: rgba(0, 0, 0, 0); font-family: monospace; font-size: 0px;&quot;&gt;texto%3CmxGraphModel%3E%3Croot%3E%3CmxCell%20id%3D%220%22%2F%3E%3CmxCell%20id%3D%221%22%20parent%3D%220%22%2F%3E%3CmxCell%20id%3D%222%22%20value%3D%22%26lt%3Bp%20style%3D%26quot%3Bmargin%3A%200px%3B%20margin-top%3A%204px%3B%20text-align%3A%20center%3B%20text-decoration%3A%20underline%3B%26quot%3B%26gt%3B%26lt%3Bb%26gt%3BRespuesta_formulario%26lt%3B%2Fb%26gt%3B%26lt%3B%2Fp%26gt%3B%26lt%3Bhr%26gt%3B%26lt%3Bp%20style%3D%26quot%3Bmargin%3A%200px%3B%20margin-left%3A%208px%3B%26quot%3B%26gt%3Bid_respuesta%26lt%3B%2Fp%26gt%3B%26lt%3Bp%20style%3D%26quot%3Bmargin%3A%200px%3B%20margin-left%3A%208px%3B%26quot%3B%26gt%3Bid_pregunta%26lt%3B%2Fp%26gt%3B%26lt%3Bp%20style%3D%26quot%3Bmargin%3A%200px%3B%20margin-left%3A%208px%3B%26quot%3B%26gt%3Bid_usuario%26lt%3Bspan%20style%3D%26quot%3Bcolor%3A%20rgba(0%2C%200%2C%200%2C%200)%3B%20font-family%3A%20monospace%3B%20font-size%3A%200px%3B%20background-color%3A%20transparent%3B%26quot%3B%26gt%3B%253CmxGraphModel%253E%253Croot%253E%253CmxCell%2520id%253D%25220%2522%252F%253E%253CmxCell%2520id%253D%25221%2522%2520parent%253D%25220%2522%252F%253E%253CmxCell%2520id%253D%25222%2522%2520value%253D%2522%2526lt%253Bp%2520style%253D%2526quot%253Bmargin%253A%25200px%253B%2520margin-top%253A%25204px%253B%2520text-align%253A%2520center%253B%2520text-decoration%253A%2520underline%253B%2526quot%253B%2526gt%253B%2526lt%253Bb%2526gt%253BPreguntas_formulario%2526lt%253B%252Fb%2526gt%253B%2526lt%253B%252Fp%2526gt%253B%2526lt%253Bhr%2526gt%253B%2526lt%253Bp%2520style%253D%2526quot%253Bmargin%253A%25200px%253B%2520margin-left%253A%25208px%253B%2526quot%253B%2526gt%253Bid_pregunta%2526lt%253B%252Fp%2526gt%253B%2526lt%253Bp%2520style%253D%2526quot%253Bmargin%253A%25200px%253B%2520margin-left%253A%25208px%253B%2526quot%253B%2526gt%253Bid_formulario%2526lt%253B%252Fp%2526gt%253B%2526lt%253Bp%2520style%253D%2526quot%253Bmargin%253A%25200px%253B%2520margin-left%253A%25208px%253B%2526quot%253B%2526gt%253Btipo_pregunta%2526lt%253B%252Fp%2526gt%253B%2526lt%253Bp%2520style%253D%2526quot%253Bmargin%253A%25200px%253B%2520margin-left%253A%25208px%253B%2526quot%253B%2526gt%253Btexto_pregunta%2526lt%253B%252Fp%2526gt%253B%2526lt%253Bp%2520style%253D%2526quot%253Bmargin%253A%25200px%253B%2520margin-left%253A%25208px%253B%2526quot%253B%2526gt%253Borden%2526lt%253B%252Fp%2526gt%253B%2522%2520style%253D%2522verticalAlign%253Dtop%253Balign%253Dleft%253Boverflow%253Dfill%253BfontSize%253D12%253BfontFamily%253DHelvetica%253Bhtml%253D1%253BstrokeColor%253D%2523003366%253Bshadow%253D1%253BfillColor%253D%2523D4E1F5%253BfontColor%253D%2523003366%2522%2520vertex%253D%25221%2522%2520parent%253D%25221%2522%253E%253CmxGeometry%2520x%253D%252259.99999999999993%2522%2520y%253D%25221410%2522%2520width%253D%2522160.0000000000001%2522%2520height%253D%2522180%2522%2520as%253D%2522geometry%2522%252F%253E%253C%252FmxCell%253E%253C%252Froot%253E%253C%252FmxGraphModel%253E%26lt%3B%2Fspan%26gt%3B%26lt%3B%2Fp%26gt%3B%26lt%3Bp%20style%3D%26quot%3Bmargin%3A%200px%3B%20margin-left%3A%208px%3B%26quot%3B%26gt%3Bvalor_respuesta%26lt%3B%2Fp%26gt%3B%26lt%3Bp%20style%3D%26quot%3Bmargin%3A%200px%3B%20margin-left%3A%208px%3B%26quot%3B%26gt%3Bfecha_respuesta%26lt%3B%2Fp%26gt%3B%22%20style%3D%22verticalAlign%3Dtop%3Balign%3Dleft%3Boverflow%3Dfill%3BfontSize%3D12%3BfontFamily%3DHelvetica%3Bhtml%3D1%3BstrokeColor%3D%23003366%3Bshadow%3D1%3BfillColor%3D%23D4E1F5%3BfontColor%3D%23003366%22%20vertex%3D%221%22%20parent%3D%221%22%3E%3CmxGeometry%20x%3D%22252.99999999999994%22%20y%3D%221410%22%20width%3D%22160.0000000000001%22%20height%3D%22180%22%20as%3D%22geometry%22%2F%3E%3C%2FmxCell%3E%3C%2Froot%3E%3C%2FmxGraphModel%3E&lt;/span&gt;&lt;/p&gt;" style="verticalAlign=top;align=left;overflow=fill;fontSize=12;fontFamily=Helvetica;html=1;strokeColor=#9673a6;shadow=1;fillColor=#e1d5e7;" parent="1" vertex="1">
                    <mxGeometry x="1190" y="1000" width="160.0000000000001" height="180" as="geometry"/>
                </mxCell>
                <mxCell id="Op8TfLiG2Sl3Lztc7KOS-139" value="&lt;p style=&quot;margin: 0px; margin-top: 4px; text-align: center; text-decoration: underline;&quot;&gt;&lt;b&gt;Notificaciones&lt;/b&gt;&lt;/p&gt;&lt;hr&gt;&lt;p style=&quot;margin: 0px; margin-left: 8px;&quot;&gt;id_tipo_notificacion&lt;/p&gt;&lt;p style=&quot;margin: 0px; margin-left: 8px;&quot;&gt;nombre_tipo_notificacion&lt;/p&gt;&lt;p style=&quot;margin: 0px; margin-left: 8px;&quot;&gt;&lt;span style=&quot;background-color: transparent; color: rgba(0, 0, 0, 0); font-family: monospace; font-size: 0px;&quot;&gt;texto%3CmxGraphModel%3E%3Croot%3E%3CmxCell%20id%3D%220%22%2F%3E%3CmxCell%20id%3D%221%22%20parent%3D%220%22%2F%3E%3CmxCell%20id%3D%222%22%20value%3D%22%26lt%3Bp%20style%3D%26quot%3Bmargin%3A%200px%3B%20margin-top%3A%204px%3B%20text-align%3A%20center%3B%20text-decoration%3A%20underline%3B%26quot%3B%26gt%3B%26lt%3Bb%26gt%3BRespuesta_formulario%26lt%3B%2Fb%26gt%3B%26lt%3B%2Fp%26gt%3B%26lt%3Bhr%26gt%3B%26lt%3Bp%20style%3D%26quot%3Bmargin%3A%200px%3B%20margin-left%3A%208px%3B%26quot%3B%26gt%3Bid_respuesta%26lt%3B%2Fp%26gt%3B%26lt%3Bp%20style%3D%26quot%3Bmargin%3A%200px%3B%20margin-left%3A%208px%3B%26quot%3B%26gt%3Bid_pregunta%26lt%3B%2Fp%26gt%3B%26lt%3Bp%20style%3D%26quot%3Bmargin%3A%200px%3B%20margin-left%3A%208px%3B%26quot%3B%26gt%3Bid_usuario%26lt%3Bspan%20style%3D%26quot%3Bcolor%3A%20rgba(0%2C%200%2C%200%2C%200)%3B%20font-family%3A%20monospace%3B%20font-size%3A%200px%3B%20background-color%3A%20transparent%3B%26quot%3B%26gt%3B%253CmxGraphModel%253E%253Croot%253E%253CmxCell%2520id%253D%25220%2522%252F%253E%253CmxCell%2520id%253D%25221%2522%2520parent%253D%25220%2522%252F%253E%253CmxCell%2520id%253D%25222%2522%2520value%253D%2522%2526lt%253Bp%2520style%253D%2526quot%253Bmargin%253A%25200px%253B%2520margin-top%253A%25204px%253B%2520text-align%253A%2520center%253B%2520text-decoration%253A%2520underline%253B%2526quot%253B%2526gt%253B%2526lt%253Bb%2526gt%253BPreguntas_formulario%2526lt%253B%252Fb%2526gt%253B%2526lt%253B%252Fp%2526gt%253B%2526lt%253Bhr%2526gt%253B%2526lt%253Bp%2520style%253D%2526quot%253Bmargin%253A%25200px%253B%2520margin-left%253A%25208px%253B%2526quot%253B%2526gt%253Bid_pregunta%2526lt%253B%252Fp%2526gt%253B%2526lt%253Bp%2520style%253D%2526quot%253Bmargin%253A%25200px%253B%2520margin-left%253A%25208px%253B%2526quot%253B%2526gt%253Bid_formulario%2526lt%253B%252Fp%2526gt%253B%2526lt%253Bp%2520style%253D%2526quot%253Bmargin%253A%25200px%253B%2520margin-left%253A%25208px%253B%2526quot%253B%2526gt%253Btipo_pregunta%2526lt%253B%252Fp%2526gt%253B%2526lt%253Bp%2520style%253D%2526quot%253Bmargin%253A%25200px%253B%2520margin-left%253A%25208px%253B%2526quot%253B%2526gt%253Btexto_pregunta%2526lt%253B%252Fp%2526gt%253B%2526lt%253Bp%2520style%253D%2526quot%253Bmargin%253A%25200px%253B%2520margin-left%253A%25208px%253B%2526quot%253B%2526gt%253Borden%2526lt%253B%252Fp%2526gt%253B%2522%2520style%253D%2522verticalAlign%253Dtop%253Balign%253Dleft%253Boverflow%253Dfill%253BfontSize%253D12%253BfontFamily%253DHelvetica%253Bhtml%253D1%253BstrokeColor%253D%2523003366%253Bshadow%253D1%253BfillColor%253D%2523D4E1F5%253BfontColor%253D%2523003366%2522%2520vertex%253D%25221%2522%2520parent%253D%25221%2522%253E%253CmxGeometry%2520x%253D%252259.99999999999993%2522%2520y%253D%25221410%2522%2520width%253D%2522160.0000000000001%2522%2520height%253D%2522180%2522%2520as%253D%2522geometry%2522%252F%253E%253C%252FmxCell%253E%253C%252Froot%253E%253C%252FmxGraphModel%253E%26lt%3B%2Fspan%26gt%3B%26lt%3B%2Fp%26gt%3B%26lt%3Bp%20style%3D%26quot%3Bmargin%3A%200px%3B%20margin-left%3A%208px%3B%26quot%3B%26gt%3Bvalor_respuesta%26lt%3B%2Fp%26gt%3B%26lt%3Bp%20style%3D%26quot%3Bmargin%3A%200px%3B%20margin-left%3A%208px%3B%26quot%3B%26gt%3Bfecha_respuesta%26lt%3B%2Fp%26gt%3B%22%20style%3D%22verticalAlign%3Dtop%3Balign%3Dleft%3Boverflow%3Dfill%3BfontSize%3D12%3BfontFamily%3DHelvetica%3Bhtml%3D1%3BstrokeColor%3D%23003366%3Bshadow%3D1%3BfillColor%3D%23D4E1F5%3BfontColor%3D%23003366%22%20vertex%3D%221%22%20parent%3D%221%22%3E%3CmxGeometry%20x%3D%22252.99999999999994%22%20y%3D%221410%22%20width%3D%22160.0000000000001%22%20height%3D%22180%22%20as%3D%22geometry%22%2F%3E%3C%2FmxCell%3E%3C%2Froot%3E%3C%2FmxGraphModel%3E&lt;/span&gt;&lt;/p&gt;" style="verticalAlign=top;align=left;overflow=fill;fontSize=12;fontFamily=Helvetica;html=1;strokeColor=#82b366;shadow=1;fillColor=#d5e8d4;" parent="1" vertex="1">
                    <mxGeometry x="1390" y="1000" width="160.0000000000001" height="180" as="geometry"/>
                </mxCell>
                <mxCell id="Op8TfLiG2Sl3Lztc7KOS-140" value="&lt;p style=&quot;margin: 0px; margin-top: 4px; text-align: center; text-decoration: underline;&quot;&gt;&lt;b&gt;Metodos de pago&lt;/b&gt;&lt;/p&gt;&lt;hr&gt;&lt;p style=&quot;margin: 0px; margin-left: 8px;&quot;&gt;id_metodo_pago&lt;/p&gt;&lt;p style=&quot;margin: 0px; margin-left: 8px;&quot;&gt;nombre_metodo_pago&lt;/p&gt;&lt;p style=&quot;margin: 0px; margin-left: 8px;&quot;&gt;&lt;span style=&quot;background-color: transparent; color: rgba(0, 0, 0, 0); font-family: monospace; font-size: 0px;&quot;&gt;texto%3CmxGraphModel%3E%3Croot%3E%3CmxCell%20id%3D%220%22%2F%3E%3CmxCell%20id%3D%221%22%20parent%3D%220%22%2F%3E%3CmxCell%20id%3D%222%22%20value%3D%22%26lt%3Bp%20style%3D%26quot%3Bmargin%3A%200px%3B%20margin-top%3A%204px%3B%20text-align%3A%20center%3B%20text-decoration%3A%20underline%3B%26quot%3B%26gt%3B%26lt%3Bb%26gt%3BRespuesta_formulario%26lt%3B%2Fb%26gt%3B%26lt%3B%2Fp%26gt%3B%26lt%3Bhr%26gt%3B%26lt%3Bp%20style%3D%26quot%3Bmargin%3A%200px%3B%20margin-left%3A%208px%3B%26quot%3B%26gt%3Bid_respuesta%26lt%3B%2Fp%26gt%3B%26lt%3Bp%20style%3D%26quot%3Bmargin%3A%200px%3B%20margin-left%3A%208px%3B%26quot%3B%26gt%3Bid_pregunta%26lt%3B%2Fp%26gt%3B%26lt%3Bp%20style%3D%26quot%3Bmargin%3A%200px%3B%20margin-left%3A%208px%3B%26quot%3B%26gt%3Bid_usuario%26lt%3Bspan%20style%3D%26quot%3Bcolor%3A%20rgba(0%2C%200%2C%200%2C%200)%3B%20font-family%3A%20monospace%3B%20font-size%3A%200px%3B%20background-color%3A%20transparent%3B%26quot%3B%26gt%3B%253CmxGraphModel%253E%253Croot%253E%253CmxCell%2520id%253D%25220%2522%252F%253E%253CmxCell%2520id%253D%25221%2522%2520parent%253D%25220%2522%252F%253E%253CmxCell%2520id%253D%25222%2522%2520value%253D%2522%2526lt%253Bp%2520style%253D%2526quot%253Bmargin%253A%25200px%253B%2520margin-top%253A%25204px%253B%2520text-align%253A%2520center%253B%2520text-decoration%253A%2520underline%253B%2526quot%253B%2526gt%253B%2526lt%253Bb%2526gt%253BPreguntas_formulario%2526lt%253B%252Fb%2526gt%253B%2526lt%253B%252Fp%2526gt%253B%2526lt%253Bhr%2526gt%253B%2526lt%253Bp%2520style%253D%2526quot%253Bmargin%253A%25200px%253B%2520margin-left%253A%25208px%253B%2526quot%253B%2526gt%253Bid_pregunta%2526lt%253B%252Fp%2526gt%253B%2526lt%253Bp%2520style%253D%2526quot%253Bmargin%253A%25200px%253B%2520margin-left%253A%25208px%253B%2526quot%253B%2526gt%253Bid_formulario%2526lt%253B%252Fp%2526gt%253B%2526lt%253Bp%2520style%253D%2526quot%253Bmargin%253A%25200px%253B%2520margin-left%253A%25208px%253B%2526quot%253B%2526gt%253Btipo_pregunta%2526lt%253B%252Fp%2526gt%253B%2526lt%253Bp%2520style%253D%2526quot%253Bmargin%253A%25200px%253B%2520margin-left%253A%25208px%253B%2526quot%253B%2526gt%253Btexto_pregunta%2526lt%253B%252Fp%2526gt%253B%2526lt%253Bp%2520style%253D%2526quot%253Bmargin%253A%25200px%253B%2520margin-left%253A%25208px%253B%2526quot%253B%2526gt%253Borden%2526lt%253B%252Fp%2526gt%253B%2522%2520style%253D%2522verticalAlign%253Dtop%253Balign%253Dleft%253Boverflow%253Dfill%253BfontSize%253D12%253BfontFamily%253DHelvetica%253Bhtml%253D1%253BstrokeColor%253D%2523003366%253Bshadow%253D1%253BfillColor%253D%2523D4E1F5%253BfontColor%253D%2523003366%2522%2520vertex%253D%25221%2522%2520parent%253D%25221%2522%253E%253CmxGeometry%2520x%253D%252259.99999999999993%2522%2520y%253D%25221410%2522%2520width%253D%2522160.0000000000001%2522%2520height%253D%2522180%2522%2520as%253D%2522geometry%2522%252F%253E%253C%252FmxCell%253E%253C%252Froot%253E%253C%252FmxGraphModel%253E%26lt%3B%2Fspan%26gt%3B%26lt%3B%2Fp%26gt%3B%26lt%3Bp%20style%3D%26quot%3Bmargin%3A%200px%3B%20margin-left%3A%208px%3B%26quot%3B%26gt%3Bvalor_respuesta%26lt%3B%2Fp%26gt%3B%26lt%3Bp%20style%3D%26quot%3Bmargin%3A%200px%3B%20margin-left%3A%208px%3B%26quot%3B%26gt%3Bfecha_respuesta%26lt%3B%2Fp%26gt%3B%22%20style%3D%22verticalAlign%3Dtop%3Balign%3Dleft%3Boverflow%3Dfill%3BfontSize%3D12%3BfontFamily%3DHelvetica%3Bhtml%3D1%3BstrokeColor%3D%23003366%3Bshadow%3D1%3BfillColor%3D%23D4E1F5%3BfontColor%3D%23003366%22%20vertex%3D%221%22%20parent%3D%221%22%3E%3CmxGeometry%20x%3D%22252.99999999999994%22%20y%3D%221410%22%20width%3D%22160.0000000000001%22%20height%3D%22180%22%20as%3D%22geometry%22%2F%3E%3C%2FmxCell%3E%3C%2Froot%3E%3C%2FmxGraphModel%3E&lt;/span&gt;&lt;/p&gt;" style="verticalAlign=top;align=left;overflow=fill;fontSize=12;fontFamily=Helvetica;html=1;strokeColor=#9673a6;shadow=1;fillColor=#D5E8D4;" parent="1" vertex="1">
                    <mxGeometry x="40" y="1230" width="160.0000000000001" height="180" as="geometry"/>
                </mxCell>
                <mxCell id="Op8TfLiG2Sl3Lztc7KOS-141" value="&lt;p style=&quot;margin: 0px; margin-top: 4px; text-align: center; text-decoration: underline;&quot;&gt;&lt;b&gt;Dispositivos&lt;/b&gt;&lt;/p&gt;&lt;hr&gt;&lt;p style=&quot;margin: 0px; margin-left: 8px;&quot;&gt;id_dispositivo&lt;/p&gt;&lt;p style=&quot;margin: 0px; margin-left: 8px;&quot;&gt;numero_Serie&lt;/p&gt;&lt;p style=&quot;margin: 0px; margin-left: 8px;&quot;&gt;id_tipo_dispositivo&lt;/p&gt;&lt;p style=&quot;margin: 0px; margin-left: 8px;&quot;&gt;modelo&lt;/p&gt;&lt;p style=&quot;margin: 0px; margin-left: 8px;&quot;&gt;fabricante&lt;/p&gt;&lt;p style=&quot;margin: 0px; margin-left: 8px;&quot;&gt;fecha_registro&lt;/p&gt;" style="verticalAlign=top;align=left;overflow=fill;fontSize=12;fontFamily=Helvetica;html=1;strokeColor=#b85450;shadow=1;fillColor=#D5E8D4;" parent="1" vertex="1">
                    <mxGeometry x="419.99999999999994" y="690" width="160.0000000000001" height="180" as="geometry"/>
                </mxCell>
                <mxCell id="Op8TfLiG2Sl3Lztc7KOS-142" value="&lt;p style=&quot;margin: 0px; margin-top: 4px; text-align: center; text-decoration: underline;&quot;&gt;&lt;b&gt;Tipo de dispositivo&lt;/b&gt;&lt;/p&gt;&lt;hr&gt;&lt;p style=&quot;margin: 0px; margin-left: 8px;&quot;&gt;id_tipo_dispositivo&lt;/p&gt;&lt;p style=&quot;margin: 0px; margin-left: 8px;&quot;&gt;nombre_tipo_dispositivo&lt;/p&gt;&lt;p style=&quot;margin: 0px; margin-left: 8px;&quot;&gt;descripccion&lt;/p&gt;" style="verticalAlign=top;align=left;overflow=fill;fontSize=12;fontFamily=Helvetica;html=1;strokeColor=#b85450;shadow=1;fillColor=#D5E8D4;" parent="1" vertex="1">
                    <mxGeometry x="232.99999999999994" y="1230" width="160.0000000000001" height="180" as="geometry"/>
                </mxCell>
                <mxCell id="Op8TfLiG2Sl3Lztc7KOS-143" value="&lt;p style=&quot;margin: 0px; margin-top: 4px; text-align: center; text-decoration: underline;&quot;&gt;&lt;b&gt;mediciones_dispositivos&lt;/b&gt;&lt;/p&gt;&lt;hr&gt;&lt;p style=&quot;margin: 0px; margin-left: 8px;&quot;&gt;id_mediciones&lt;/p&gt;&lt;p style=&quot;margin: 0px; margin-left: 8px;&quot;&gt;id_dispositivo&lt;/p&gt;&lt;p style=&quot;margin: 0px; margin-left: 8px;&quot;&gt;id_tipo_dispositivo&lt;/p&gt;&lt;p style=&quot;margin: 0px; margin-left: 8px;&quot;&gt;valor&lt;/p&gt;&lt;p style=&quot;margin: 0px; margin-left: 8px;&quot;&gt;unidad_medida&lt;/p&gt;&lt;p style=&quot;margin: 0px; margin-left: 8px;&quot;&gt;fecha_hora_medicion&lt;/p&gt;&lt;p style=&quot;margin: 0px; margin-left: 8px;&quot;&gt;&lt;br&gt;&lt;/p&gt;" style="verticalAlign=top;align=left;overflow=fill;fontSize=12;fontFamily=Helvetica;html=1;strokeColor=#b85450;shadow=1;fillColor=#D5E8D4;" parent="1" vertex="1">
                    <mxGeometry x="610" y="690" width="180" height="180" as="geometry"/>
                </mxCell>
                <mxCell id="Op8TfLiG2Sl3Lztc7KOS-145" value="&lt;p style=&quot;margin: 0px; margin-top: 4px; text-align: center; text-decoration: underline;&quot;&gt;&lt;b&gt;Tipo de medicion&lt;/b&gt;&lt;/p&gt;&lt;hr&gt;&lt;p style=&quot;margin: 0px; margin-left: 8px;&quot;&gt;id_tipo_medicion&lt;/p&gt;&lt;p style=&quot;margin: 0px; margin-left: 8px;&quot;&gt;nombre_de_medicion&lt;/p&gt;&lt;p style=&quot;margin: 0px; margin-left: 8px;&quot;&gt;descripccion&lt;/p&gt;" style="verticalAlign=top;align=left;overflow=fill;fontSize=12;fontFamily=Helvetica;html=1;strokeColor=#b85450;shadow=1;fillColor=#D5E8D4;" parent="1" vertex="1">
                    <mxGeometry x="429.99999999999994" y="1230" width="160.0000000000001" height="180" as="geometry"/>
                </mxCell>
                <mxCell id="Op8TfLiG2Sl3Lztc7KOS-146" value="&lt;p style=&quot;margin: 0px; margin-top: 4px; text-align: center; text-decoration: underline;&quot;&gt;&lt;b&gt;cita_servicio&lt;/b&gt;&lt;/p&gt;&lt;hr&gt;&lt;p style=&quot;margin: 0px; margin-left: 8px;&quot;&gt;id_cita_servicio&lt;/p&gt;&lt;p style=&quot;margin: 0px; margin-left: 8px;&quot;&gt;id_cita&lt;/p&gt;&lt;p style=&quot;margin: 0px; margin-left: 8px;&quot;&gt;id_Servicio&lt;/p&gt;&lt;p style=&quot;margin: 0px; margin-left: 8px;&quot;&gt;cantidad&lt;/p&gt;" style="verticalAlign=top;align=left;overflow=fill;fontSize=12;fontFamily=Helvetica;html=1;strokeColor=#d6b656;shadow=1;fillColor=#fff2cc;" parent="1" vertex="1">
                    <mxGeometry x="39.99999999999993" y="60" width="160.0000000000001" height="180" as="geometry"/>
                </mxCell>
                <mxCell id="Op8TfLiG2Sl3Lztc7KOS-147" value="&lt;p style=&quot;margin: 0px; margin-top: 4px; text-align: center; text-decoration: underline;&quot;&gt;&lt;b&gt;Dispositivos_pacientes&lt;/b&gt;&lt;/p&gt;&lt;hr&gt;&lt;p style=&quot;margin: 0px; margin-left: 8px;&quot;&gt;id_dispositivo_pacinete&lt;/p&gt;&lt;p style=&quot;margin: 0px; margin-left: 8px;&quot;&gt;id_paciente&lt;/p&gt;&lt;p style=&quot;margin: 0px; margin-left: 8px;&quot;&gt;id_dispositivo&lt;/p&gt;&lt;p style=&quot;margin: 0px; margin-left: 8px;&quot;&gt;fecha_asignacion&lt;/p&gt;&lt;p style=&quot;margin: 0px; margin-left: 8px;&quot;&gt;fecha_devolucion&lt;/p&gt;" style="verticalAlign=top;align=left;overflow=fill;fontSize=12;fontFamily=Helvetica;html=1;strokeColor=#d6b656;shadow=1;fillColor=#fff2cc;" parent="1" vertex="1">
                    <mxGeometry x="232.99999999999994" y="60" width="160.0000000000001" height="180" as="geometry"/>
                </mxCell>
                <mxCell id="Op8TfLiG2Sl3Lztc7KOS-148" value="&lt;p style=&quot;margin: 0px; margin-top: 4px; text-align: center; text-decoration: underline;&quot;&gt;&lt;b&gt;Registro de actividad&lt;/b&gt;&lt;/p&gt;&lt;hr&gt;&lt;p style=&quot;margin: 0px; margin-left: 8px;&quot;&gt;id_registro&lt;/p&gt;&lt;p style=&quot;margin: 0px; margin-left: 8px;&quot;&gt;id_usuario&lt;/p&gt;&lt;p style=&quot;margin: 0px; margin-left: 8px;&quot;&gt;accion&lt;/p&gt;&lt;p style=&quot;margin: 0px; margin-left: 8px;&quot;&gt;tabla_Afectada&lt;/p&gt;&lt;p style=&quot;margin: 0px; margin-left: 8px;&quot;&gt;id_registro_afectado&lt;/p&gt;&lt;p style=&quot;margin: 0px; margin-left: 8px;&quot;&gt;fecha_Accion&lt;/p&gt;&lt;p style=&quot;margin: 0px; margin-left: 8px;&quot;&gt;detalles&lt;/p&gt;" style="verticalAlign=top;align=left;overflow=fill;fontSize=12;fontFamily=Helvetica;html=1;strokeColor=#d6b656;shadow=1;fillColor=#fff2cc;" parent="1" vertex="1">
                    <mxGeometry x="429.99999999999994" y="60" width="160.0000000000001" height="180" as="geometry"/>
                </mxCell>
                <mxCell id="PyjHkJgTDeBDRdeg4yO5-5" style="edgeStyle=orthogonalEdgeStyle;rounded=0;orthogonalLoop=1;jettySize=auto;html=1;exitX=0.5;exitY=0;exitDx=0;exitDy=0;entryX=0.5;entryY=1;entryDx=0;entryDy=0;" parent="1" source="PyjHkJgTDeBDRdeg4yO5-1" target="PyjHkJgTDeBDRdeg4yO5-3" edge="1">
                    <mxGeometry relative="1" as="geometry"/>
                </mxCell>
                <mxCell id="PyjHkJgTDeBDRdeg4yO5-8" style="edgeStyle=orthogonalEdgeStyle;rounded=0;orthogonalLoop=1;jettySize=auto;html=1;entryX=0.008;entryY=0.332;entryDx=0;entryDy=0;entryPerimeter=0;exitX=1.005;exitY=0.142;exitDx=0;exitDy=0;exitPerimeter=0;" parent="1" source="PyjHkJgTDeBDRdeg4yO5-1" target="PyjHkJgTDeBDRdeg4yO5-7" edge="1">
                    <mxGeometry relative="1" as="geometry">
                        <Array as="points">
                            <mxPoint x="3040" y="506"/>
                            <mxPoint x="3040" y="300"/>
                            <mxPoint x="3081" y="300"/>
                        </Array>
                    </mxGeometry>
                </mxCell>
                <mxCell id="PyjHkJgTDeBDRdeg4yO5-14" style="edgeStyle=orthogonalEdgeStyle;rounded=0;orthogonalLoop=1;jettySize=auto;html=1;exitX=0;exitY=0.25;exitDx=0;exitDy=0;" parent="1" source="PyjHkJgTDeBDRdeg4yO5-1" target="PyjHkJgTDeBDRdeg4yO5-13" edge="1">
                    <mxGeometry relative="1" as="geometry">
                        <Array as="points">
                            <mxPoint x="3000" y="525"/>
                            <mxPoint x="3000" y="761"/>
                        </Array>
                    </mxGeometry>
                </mxCell>
                <mxCell id="PyjHkJgTDeBDRdeg4yO5-1" value="&lt;p style=&quot;margin: 0px; margin-top: 4px; text-align: center; text-decoration: underline;&quot;&gt;&lt;strong&gt;Usuarios&lt;/strong&gt;&lt;/p&gt;&lt;hr&gt;&lt;p style=&quot;margin: 0px; margin-left: 8px;&quot;&gt;&lt;b&gt;id_usuario&lt;/b&gt;&lt;/p&gt;&lt;p style=&quot;margin: 0px; margin-left: 8px;&quot;&gt;nombre&lt;/p&gt;&lt;p style=&quot;margin: 0px; margin-left: 8px;&quot;&gt;apellidos&lt;/p&gt;&lt;p style=&quot;margin: 0px; margin-left: 8px;&quot;&gt;&lt;span style=&quot;background-color: transparent; color: light-dark(rgb(0, 51, 102), rgb(161, 205, 249));&quot;&gt;Email&lt;/span&gt;&lt;/p&gt;&lt;p style=&quot;margin: 0px; margin-left: 8px;&quot;&gt;&lt;span style=&quot;background-color: transparent; color: light-dark(rgb(0, 51, 102), rgb(161, 205, 249));&quot;&gt;Contraseña&lt;/span&gt;&lt;/p&gt;&lt;p style=&quot;margin: 0px; margin-left: 8px;&quot;&gt;id_roles&lt;/p&gt;&lt;p style=&quot;margin: 0px; margin-left: 8px;&quot;&gt;&lt;b&gt;id_estado_cuenta&lt;/b&gt;&lt;/p&gt;&lt;p style=&quot;margin: 0px; margin-left: 8px;&quot;&gt;fecha_creacion&lt;/p&gt;&lt;p style=&quot;margin: 0px; margin-left: 8px;&quot;&gt;fecha_Actualizacion&lt;/p&gt;" style="verticalAlign=top;align=left;overflow=fill;fontSize=12;fontFamily=Helvetica;html=1;strokeColor=#003366;shadow=1;fillColor=#D4E1F5;fontColor=#003366" parent="1" vertex="1">
                    <mxGeometry x="2800" y="480" width="160.0000000000001" height="180" as="geometry"/>
                </mxCell>
                <mxCell id="PyjHkJgTDeBDRdeg4yO5-2" value="&lt;p style=&quot;margin: 0px; margin-top: 4px; text-align: center; text-decoration: underline;&quot;&gt;&lt;b&gt;Actividad&lt;/b&gt;&lt;/p&gt;&lt;hr&gt;&lt;p style=&quot;margin: 0px; margin-left: 8px;&quot;&gt;id_actividad&lt;/p&gt;&lt;p style=&quot;margin: 0px; margin-left: 8px;&quot;&gt;id_usuario&lt;/p&gt;&lt;p style=&quot;margin: 0px; margin-left: 8px;&quot;&gt;accion&lt;/p&gt;&lt;p style=&quot;margin: 0px; margin-left: 8px;&quot;&gt;tabla_afectada&lt;/p&gt;&lt;p style=&quot;margin: 0px; margin-left: 8px;&quot;&gt;id_registro_afectado&lt;/p&gt;&lt;p style=&quot;margin: 0px; margin-left: 8px;&quot;&gt;fecha_accion&lt;/p&gt;&lt;p style=&quot;margin: 0px; margin-left: 8px;&quot;&gt;detalles&lt;/p&gt;" style="verticalAlign=top;align=left;overflow=fill;fontSize=12;fontFamily=Helvetica;html=1;strokeColor=#003366;shadow=1;fillColor=#D4E1F5;fontColor=#003366" parent="1" vertex="1">
                    <mxGeometry x="2800" y="10" width="160.0000000000001" height="180" as="geometry"/>
                </mxCell>
                <mxCell id="PyjHkJgTDeBDRdeg4yO5-4" style="edgeStyle=orthogonalEdgeStyle;rounded=0;orthogonalLoop=1;jettySize=auto;html=1;" parent="1" source="PyjHkJgTDeBDRdeg4yO5-3" target="PyjHkJgTDeBDRdeg4yO5-2" edge="1">
                    <mxGeometry relative="1" as="geometry"/>
                </mxCell>
                <mxCell id="PyjHkJgTDeBDRdeg4yO5-3" value="&lt;p style=&quot;margin: 0px; margin-top: 4px; text-align: center; text-decoration: underline;&quot;&gt;&lt;b&gt;Registro de actividad&lt;/b&gt;&lt;/p&gt;&lt;hr&gt;&lt;p style=&quot;margin: 0px; margin-left: 8px;&quot;&gt;id_registro&lt;/p&gt;&lt;p style=&quot;margin: 0px; margin-left: 8px;&quot;&gt;id_usuario&lt;/p&gt;&lt;p style=&quot;margin: 0px; margin-left: 8px;&quot;&gt;accion&lt;/p&gt;&lt;p style=&quot;margin: 0px; margin-left: 8px;&quot;&gt;tabla_Afectada&lt;/p&gt;&lt;p style=&quot;margin: 0px; margin-left: 8px;&quot;&gt;id_registro_afectado&lt;/p&gt;&lt;p style=&quot;margin: 0px; margin-left: 8px;&quot;&gt;fecha_Accion&lt;/p&gt;&lt;p style=&quot;margin: 0px; margin-left: 8px;&quot;&gt;detalles&lt;/p&gt;" style="verticalAlign=top;align=left;overflow=fill;fontSize=12;fontFamily=Helvetica;html=1;strokeColor=#d6b656;shadow=1;fillColor=#fff2cc;" parent="1" vertex="1">
                    <mxGeometry x="2800" y="240" width="160" height="160" as="geometry"/>
                </mxCell>
                <mxCell id="PyjHkJgTDeBDRdeg4yO5-6" value="&lt;p style=&quot;margin: 0px; margin-top: 4px; text-align: center; text-decoration: underline;&quot;&gt;&lt;b&gt;Estado_cuenta&lt;/b&gt;&lt;/p&gt;&lt;hr&gt;&lt;p style=&quot;margin: 0px; margin-left: 8px;&quot;&gt;id_estado_cuenta&lt;/p&gt;&lt;p style=&quot;margin: 0px; margin-left: 8px;&quot;&gt;nombre_Estado&lt;/p&gt;&lt;p style=&quot;margin: 0px; margin-left: 8px;&quot;&gt;&lt;span style=&quot;background-color: transparent; color: rgba(0, 0, 0, 0); font-family: monospace; font-size: 0px;&quot;&gt;texto%3CmxGraphModel%3E%3Croot%3E%3CmxCell%20id%3D%220%22%2F%3E%3CmxCell%20id%3D%221%22%20parent%3D%220%22%2F%3E%3CmxCell%20id%3D%222%22%20value%3D%22%26lt%3Bp%20style%3D%26quot%3Bmargin%3A%200px%3B%20margin-top%3A%204px%3B%20text-align%3A%20center%3B%20text-decoration%3A%20underline%3B%26quot%3B%26gt%3B%26lt%3Bb%26gt%3BRespuesta_formulario%26lt%3B%2Fb%26gt%3B%26lt%3B%2Fp%26gt%3B%26lt%3Bhr%26gt%3B%26lt%3Bp%20style%3D%26quot%3Bmargin%3A%200px%3B%20margin-left%3A%208px%3B%26quot%3B%26gt%3Bid_respuesta%26lt%3B%2Fp%26gt%3B%26lt%3Bp%20style%3D%26quot%3Bmargin%3A%200px%3B%20margin-left%3A%208px%3B%26quot%3B%26gt%3Bid_pregunta%26lt%3B%2Fp%26gt%3B%26lt%3Bp%20style%3D%26quot%3Bmargin%3A%200px%3B%20margin-left%3A%208px%3B%26quot%3B%26gt%3Bid_usuario%26lt%3Bspan%20style%3D%26quot%3Bcolor%3A%20rgba(0%2C%200%2C%200%2C%200)%3B%20font-family%3A%20monospace%3B%20font-size%3A%200px%3B%20background-color%3A%20transparent%3B%26quot%3B%26gt%3B%253CmxGraphModel%253E%253Croot%253E%253CmxCell%2520id%253D%25220%2522%252F%253E%253CmxCell%2520id%253D%25221%2522%2520parent%253D%25220%2522%252F%253E%253CmxCell%2520id%253D%25222%2522%2520value%253D%2522%2526lt%253Bp%2520style%253D%2526quot%253Bmargin%253A%25200px%253B%2520margin-top%253A%25204px%253B%2520text-align%253A%2520center%253B%2520text-decoration%253A%2520underline%253B%2526quot%253B%2526gt%253B%2526lt%253Bb%2526gt%253BPreguntas_formulario%2526lt%253B%252Fb%2526gt%253B%2526lt%253B%252Fp%2526gt%253B%2526lt%253Bhr%2526gt%253B%2526lt%253Bp%2520style%253D%2526quot%253Bmargin%253A%25200px%253B%2520margin-left%253A%25208px%253B%2526quot%253B%2526gt%253Bid_pregunta%2526lt%253B%252Fp%2526gt%253B%2526lt%253Bp%2520style%253D%2526quot%253Bmargin%253A%25200px%253B%2520margin-left%253A%25208px%253B%2526quot%253B%2526gt%253Bid_formulario%2526lt%253B%252Fp%2526gt%253B%2526lt%253Bp%2520style%253D%2526quot%253Bmargin%253A%25200px%253B%2520margin-left%253A%25208px%253B%2526quot%253B%2526gt%253Btipo_pregunta%2526lt%253B%252Fp%2526gt%253B%2526lt%253Bp%2520style%253D%2526quot%253Bmargin%253A%25200px%253B%2520margin-left%253A%25208px%253B%2526quot%253B%2526gt%253Btexto_pregunta%2526lt%253B%252Fp%2526gt%253B%2526lt%253Bp%2520style%253D%2526quot%253Bmargin%253A%25200px%253B%2520margin-left%253A%25208px%253B%2526quot%253B%2526gt%253Borden%2526lt%253B%252Fp%2526gt%253B%2522%2520style%253D%2522verticalAlign%253Dtop%253Balign%253Dleft%253Boverflow%253Dfill%253BfontSize%253D12%253BfontFamily%253DHelvetica%253Bhtml%253D1%253BstrokeColor%253D%2523003366%253Bshadow%253D1%253BfillColor%253D%2523D4E1F5%253BfontColor%253D%2523003366%2522%2520vertex%253D%25221%2522%2520parent%253D%25221%2522%253E%253CmxGeometry%2520x%253D%252259.99999999999993%2522%2520y%253D%25221410%2522%2520width%253D%2522160.0000000000001%2522%2520height%253D%2522180%2522%2520as%253D%2522geometry%2522%252F%253E%253C%252FmxCell%253E%253C%252Froot%253E%253C%252FmxGraphModel%253E%26lt%3B%2Fspan%26gt%3B%26lt%3B%2Fp%26gt%3B%26lt%3Bp%20style%3D%26quot%3Bmargin%3A%200px%3B%20margin-left%3A%208px%3B%26quot%3B%26gt%3Bvalor_respuesta%26lt%3B%2Fp%26gt%3B%26lt%3Bp%20style%3D%26quot%3Bmargin%3A%200px%3B%20margin-left%3A%208px%3B%26quot%3B%26gt%3Bfecha_respuesta%26lt%3B%2Fp%26gt%3B%22%20style%3D%22verticalAlign%3Dtop%3Balign%3Dleft%3Boverflow%3Dfill%3BfontSize%3D12%3BfontFamily%3DHelvetica%3Bhtml%3D1%3BstrokeColor%3D%23003366%3Bshadow%3D1%3BfillColor%3D%23D4E1F5%3BfontColor%3D%23003366%22%20vertex%3D%221%22%20parent%3D%221%22%3E%3CmxGeometry%20x%3D%22252.99999999999994%22%20y%3D%221410%22%20width%3D%22160.0000000000001%22%20height%3D%22180%22%20as%3D%22geometry%22%2F%3E%3C%2FmxCell%3E%3C%2Froot%3E%3C%2FmxGraphModel%3E&lt;/span&gt;&lt;/p&gt;" style="verticalAlign=top;align=left;overflow=fill;fontSize=12;fontFamily=Helvetica;html=1;strokeColor=#9673a6;shadow=1;fillColor=#e1d5e7;" parent="1" vertex="1">
                    <mxGeometry x="3080" y="600" width="160" height="80" as="geometry"/>
                </mxCell>
                <mxCell id="PyjHkJgTDeBDRdeg4yO5-7" value="&lt;p style=&quot;margin: 0px; margin-top: 4px; text-align: center; text-decoration: underline;&quot;&gt;&lt;b&gt;Perfiles&lt;/b&gt;&lt;/p&gt;&lt;hr&gt;&lt;p style=&quot;margin: 0px; margin-left: 8px;&quot;&gt;id_perfil&lt;/p&gt;&lt;p style=&quot;margin: 0px; margin-left: 8px;&quot;&gt;id_usuario&lt;/p&gt;&lt;p style=&quot;margin: 0px; margin-left: 8px;&quot;&gt;&lt;b&gt;id_genero&lt;/b&gt;&lt;/p&gt;&lt;p style=&quot;margin: 0px; margin-left: 8px;&quot;&gt;telefono&lt;/p&gt;&lt;p style=&quot;margin: 0px; margin-left: 8px;&quot;&gt;direccion&lt;/p&gt;&lt;p style=&quot;margin: 0px; margin-left: 8px;&quot;&gt;fecha_nacimiento&lt;/p&gt;&lt;p style=&quot;margin: 0px; margin-left: 8px;&quot;&gt;genero&lt;/p&gt;&lt;p style=&quot;margin: 0px; margin-left: 8px;&quot;&gt;fotografia&lt;/p&gt;&lt;p style=&quot;margin: 0px; margin-left: 8px;&quot;&gt;otros_datos&amp;nbsp;&lt;/p&gt;" style="verticalAlign=top;align=left;overflow=fill;fontSize=12;fontFamily=Helvetica;html=1;strokeColor=#003366;shadow=1;fillColor=#D4E1F5;fontColor=#003366" parent="1" vertex="1">
                    <mxGeometry x="3080" y="240" width="160.0000000000001" height="180" as="geometry"/>
                </mxCell>
                <mxCell id="PyjHkJgTDeBDRdeg4yO5-9" value="&lt;p style=&quot;margin: 0px; margin-top: 4px; text-align: center; text-decoration: underline;&quot;&gt;&lt;b&gt;Generos&lt;/b&gt;&lt;/p&gt;&lt;hr&gt;&lt;p style=&quot;margin: 0px; margin-left: 8px;&quot;&gt;id_genero&lt;/p&gt;&lt;p style=&quot;margin: 0px; margin-left: 8px;&quot;&gt;descipccion_genero&lt;/p&gt;&lt;p style=&quot;margin: 0px; margin-left: 8px;&quot;&gt;&lt;span style=&quot;background-color: transparent; color: rgba(0, 0, 0, 0); font-family: monospace; font-size: 0px;&quot;&gt;texto%3CmxGraphModel%3E%3Croot%3E%3CmxCell%20id%3D%220%22%2F%3E%3CmxCell%20id%3D%221%22%20parent%3D%220%22%2F%3E%3CmxCell%20id%3D%222%22%20value%3D%22%26lt%3Bp%20style%3D%26quot%3Bmargin%3A%200px%3B%20margin-top%3A%204px%3B%20text-align%3A%20center%3B%20text-decoration%3A%20underline%3B%26quot%3B%26gt%3B%26lt%3Bb%26gt%3BRespuesta_formulario%26lt%3B%2Fb%26gt%3B%26lt%3B%2Fp%26gt%3B%26lt%3Bhr%26gt%3B%26lt%3Bp%20style%3D%26quot%3Bmargin%3A%200px%3B%20margin-left%3A%208px%3B%26quot%3B%26gt%3Bid_respuesta%26lt%3B%2Fp%26gt%3B%26lt%3Bp%20style%3D%26quot%3Bmargin%3A%200px%3B%20margin-left%3A%208px%3B%26quot%3B%26gt%3Bid_pregunta%26lt%3B%2Fp%26gt%3B%26lt%3Bp%20style%3D%26quot%3Bmargin%3A%200px%3B%20margin-left%3A%208px%3B%26quot%3B%26gt%3Bid_usuario%26lt%3Bspan%20style%3D%26quot%3Bcolor%3A%20rgba(0%2C%200%2C%200%2C%200)%3B%20font-family%3A%20monospace%3B%20font-size%3A%200px%3B%20background-color%3A%20transparent%3B%26quot%3B%26gt%3B%253CmxGraphModel%253E%253Croot%253E%253CmxCell%2520id%253D%25220%2522%252F%253E%253CmxCell%2520id%253D%25221%2522%2520parent%253D%25220%2522%252F%253E%253CmxCell%2520id%253D%25222%2522%2520value%253D%2522%2526lt%253Bp%2520style%253D%2526quot%253Bmargin%253A%25200px%253B%2520margin-top%253A%25204px%253B%2520text-align%253A%2520center%253B%2520text-decoration%253A%2520underline%253B%2526quot%253B%2526gt%253B%2526lt%253Bb%2526gt%253BPreguntas_formulario%2526lt%253B%252Fb%2526gt%253B%2526lt%253B%252Fp%2526gt%253B%2526lt%253Bhr%2526gt%253B%2526lt%253Bp%2520style%253D%2526quot%253Bmargin%253A%25200px%253B%2520margin-left%253A%25208px%253B%2526quot%253B%2526gt%253Bid_pregunta%2526lt%253B%252Fp%2526gt%253B%2526lt%253Bp%2520style%253D%2526quot%253Bmargin%253A%25200px%253B%2520margin-left%253A%25208px%253B%2526quot%253B%2526gt%253Bid_formulario%2526lt%253B%252Fp%2526gt%253B%2526lt%253Bp%2520style%253D%2526quot%253Bmargin%253A%25200px%253B%2520margin-left%253A%25208px%253B%2526quot%253B%2526gt%253Btipo_pregunta%2526lt%253B%252Fp%2526gt%253B%2526lt%253Bp%2520style%253D%2526quot%253Bmargin%253A%25200px%253B%2520margin-left%253A%25208px%253B%2526quot%253B%2526gt%253Btexto_pregunta%2526lt%253B%252Fp%2526gt%253B%2526lt%253Bp%2520style%253D%2526quot%253Bmargin%253A%25200px%253B%2520margin-left%253A%25208px%253B%2526quot%253B%2526gt%253Borden%2526lt%253B%252Fp%2526gt%253B%2522%2520style%253D%2522verticalAlign%253Dtop%253Balign%253Dleft%253Boverflow%253Dfill%253BfontSize%253D12%253BfontFamily%253DHelvetica%253Bhtml%253D1%253BstrokeColor%253D%2523003366%253Bshadow%253D1%253BfillColor%253D%2523D4E1F5%253BfontColor%253D%2523003366%2522%2520vertex%253D%25221%2522%2520parent%253D%25221%2522%253E%253CmxGeometry%2520x%253D%252259.99999999999993%2522%2520y%253D%25221410%2522%2520width%253D%2522160.0000000000001%2522%2520height%253D%2522180%2522%2520as%253D%2522geometry%2522%252F%253E%253C%252FmxCell%253E%253C%252Froot%253E%253C%252FmxGraphModel%253E%26lt%3B%2Fspan%26gt%3B%26lt%3B%2Fp%26gt%3B%26lt%3Bp%20style%3D%26quot%3Bmargin%3A%200px%3B%20margin-left%3A%208px%3B%26quot%3B%26gt%3Bvalor_respuesta%26lt%3B%2Fp%26gt%3B%26lt%3Bp%20style%3D%26quot%3Bmargin%3A%200px%3B%20margin-left%3A%208px%3B%26quot%3B%26gt%3Bfecha_respuesta%26lt%3B%2Fp%26gt%3B%22%20style%3D%22verticalAlign%3Dtop%3Balign%3Dleft%3Boverflow%3Dfill%3BfontSize%3D12%3BfontFamily%3DHelvetica%3Bhtml%3D1%3BstrokeColor%3D%23003366%3Bshadow%3D1%3BfillColor%3D%23D4E1F5%3BfontColor%3D%23003366%22%20vertex%3D%221%22%20parent%3D%221%22%3E%3CmxGeometry%20x%3D%22252.99999999999994%22%20y%3D%221410%22%20width%3D%22160.0000000000001%22%20height%3D%22180%22%20as%3D%22geometry%22%2F%3E%3C%2FmxCell%3E%3C%2Froot%3E%3C%2FmxGraphModel%3E&lt;/span&gt;&lt;/p&gt;" style="verticalAlign=top;align=left;overflow=fill;fontSize=12;fontFamily=Helvetica;html=1;strokeColor=#9673a6;shadow=1;fillColor=#e1d5e7;" parent="1" vertex="1">
                    <mxGeometry x="3020" y="100" width="160" height="80" as="geometry"/>
                </mxCell>
                <mxCell id="PyjHkJgTDeBDRdeg4yO5-10" value="&lt;p style=&quot;margin: 0px; margin-top: 4px; text-align: center; text-decoration: underline;&quot;&gt;&lt;b&gt;Especialidades&lt;/b&gt;&lt;/p&gt;&lt;hr&gt;&lt;p style=&quot;margin: 0px; margin-left: 8px;&quot;&gt;id_especialidad&lt;/p&gt;&lt;p style=&quot;margin: 0px; margin-left: 8px;&quot;&gt;nombre_Especialidad&lt;/p&gt;&lt;p style=&quot;margin: 0px; margin-left: 8px;&quot;&gt;descripccion&lt;/p&gt;&lt;p style=&quot;margin: 0px; margin-left: 8px;&quot;&gt;&lt;span style=&quot;background-color: transparent; color: rgba(0, 0, 0, 0); font-family: monospace; font-size: 0px;&quot;&gt;texto%3CmxGraphModel%3E%3Croot%3E%3CmxCell%20id%3D%220%22%2F%3E%3CmxCell%20id%3D%221%22%20parent%3D%220%22%2F%3E%3CmxCell%20id%3D%222%22%20value%3D%22%26lt%3Bp%20style%3D%26quot%3Bmargin%3A%200px%3B%20margin-top%3A%204px%3B%20text-align%3A%20center%3B%20text-decoration%3A%20underline%3B%26quot%3B%26gt%3B%26lt%3Bb%26gt%3BRespuesta_formulario%26lt%3B%2Fb%26gt%3B%26lt%3B%2Fp%26gt%3B%26lt%3Bhr%26gt%3B%26lt%3Bp%20style%3D%26quot%3Bmargin%3A%200px%3B%20margin-left%3A%208px%3B%26quot%3B%26gt%3Bid_respuesta%26lt%3B%2Fp%26gt%3B%26lt%3Bp%20style%3D%26quot%3Bmargin%3A%200px%3B%20margin-left%3A%208px%3B%26quot%3B%26gt%3Bid_pregunta%26lt%3B%2Fp%26gt%3B%26lt%3Bp%20style%3D%26quot%3Bmargin%3A%200px%3B%20margin-left%3A%208px%3B%26quot%3B%26gt%3Bid_usuario%26lt%3Bspan%20style%3D%26quot%3Bcolor%3A%20rgba(0%2C%200%2C%200%2C%200)%3B%20font-family%3A%20monospace%3B%20font-size%3A%200px%3B%20background-color%3A%20transparent%3B%26quot%3B%26gt%3B%253CmxGraphModel%253E%253Croot%253E%253CmxCell%2520id%253D%25220%2522%252F%253E%253CmxCell%2520id%253D%25221%2522%2520parent%253D%25220%2522%252F%253E%253CmxCell%2520id%253D%25222%2522%2520value%253D%2522%2526lt%253Bp%2520style%253D%2526quot%253Bmargin%253A%25200px%253B%2520margin-top%253A%25204px%253B%2520text-align%253A%2520center%253B%2520text-decoration%253A%2520underline%253B%2526quot%253B%2526gt%253B%2526lt%253Bb%2526gt%253BPreguntas_formulario%2526lt%253B%252Fb%2526gt%253B%2526lt%253B%252Fp%2526gt%253B%2526lt%253Bhr%2526gt%253B%2526lt%253Bp%2520style%253D%2526quot%253Bmargin%253A%25200px%253B%2520margin-left%253A%25208px%253B%2526quot%253B%2526gt%253Bid_pregunta%2526lt%253B%252Fp%2526gt%253B%2526lt%253Bp%2520style%253D%2526quot%253Bmargin%253A%25200px%253B%2520margin-left%253A%25208px%253B%2526quot%253B%2526gt%253Bid_formulario%2526lt%253B%252Fp%2526gt%253B%2526lt%253Bp%2520style%253D%2526quot%253Bmargin%253A%25200px%253B%2520margin-left%253A%25208px%253B%2526quot%253B%2526gt%253Btipo_pregunta%2526lt%253B%252Fp%2526gt%253B%2526lt%253Bp%2520style%253D%2526quot%253Bmargin%253A%25200px%253B%2520margin-left%253A%25208px%253B%2526quot%253B%2526gt%253Btexto_pregunta%2526lt%253B%252Fp%2526gt%253B%2526lt%253Bp%2520style%253D%2526quot%253Bmargin%253A%25200px%253B%2520margin-left%253A%25208px%253B%2526quot%253B%2526gt%253Borden%2526lt%253B%252Fp%2526gt%253B%2522%2520style%253D%2522verticalAlign%253Dtop%253Balign%253Dleft%253Boverflow%253Dfill%253BfontSize%253D12%253BfontFamily%253DHelvetica%253Bhtml%253D1%253BstrokeColor%253D%2523003366%253Bshadow%253D1%253BfillColor%253D%2523D4E1F5%253BfontColor%253D%2523003366%2522%2520vertex%253D%25221%2522%2520parent%253D%25221%2522%253E%253CmxGeometry%2520x%253D%252259.99999999999993%2522%2520y%253D%25221410%2522%2520width%253D%2522160.0000000000001%2522%2520height%253D%2522180%2522%2520as%253D%2522geometry%2522%252F%253E%253C%252FmxCell%253E%253C%252Froot%253E%253C%252FmxGraphModel%253E%26lt%3B%2Fspan%26gt%3B%26lt%3B%2Fp%26gt%3B%26lt%3Bp%20style%3D%26quot%3Bmargin%3A%200px%3B%20margin-left%3A%208px%3B%26quot%3B%26gt%3Bvalor_respuesta%26lt%3B%2Fp%26gt%3B%26lt%3Bp%20style%3D%26quot%3Bmargin%3A%200px%3B%20margin-left%3A%208px%3B%26quot%3B%26gt%3Bfecha_respuesta%26lt%3B%2Fp%26gt%3B%22%20style%3D%22verticalAlign%3Dtop%3Balign%3Dleft%3Boverflow%3Dfill%3BfontSize%3D12%3BfontFamily%3DHelvetica%3Bhtml%3D1%3BstrokeColor%3D%23003366%3Bshadow%3D1%3BfillColor%3D%23D4E1F5%3BfontColor%3D%23003366%22%20vertex%3D%221%22%20parent%3D%221%22%3E%3CmxGeometry%20x%3D%22252.99999999999994%22%20y%3D%221410%22%20width%3D%22160.0000000000001%22%20height%3D%22180%22%20as%3D%22geometry%22%2F%3E%3C%2FmxCell%3E%3C%2Froot%3E%3C%2FmxGraphModel%3E&lt;/span&gt;&lt;/p&gt;" style="verticalAlign=top;align=left;overflow=fill;fontSize=12;fontFamily=Helvetica;html=1;strokeColor=#9673a6;shadow=1;fillColor=#e1d5e7;" parent="1" vertex="1">
                    <mxGeometry x="2811" y="1160" width="160" height="80" as="geometry"/>
                </mxCell>
                <mxCell id="PyjHkJgTDeBDRdeg4yO5-11" value="&lt;p style=&quot;margin: 0px; margin-top: 4px; text-align: center; text-decoration: underline;&quot;&gt;&lt;b&gt;Enfermeros&lt;/b&gt;&lt;/p&gt;&lt;hr&gt;&lt;p style=&quot;margin: 0px; margin-left: 8px;&quot;&gt;id_enfermero&lt;/p&gt;&lt;p style=&quot;margin: 0px; margin-left: 8px;&quot;&gt;id_usuario&lt;/p&gt;&lt;p style=&quot;margin: 0px; margin-left: 8px;&quot;&gt;&lt;b&gt;id_especialidad&lt;/b&gt;&lt;/p&gt;&lt;p style=&quot;margin: 0px; margin-left: 8px;&quot;&gt;numero_colegiado&lt;/p&gt;&lt;p style=&quot;margin: 0px; margin-left: 8px;&quot;&gt;años_experiencia&lt;/p&gt;&lt;p style=&quot;margin: 0px; margin-left: 8px;&quot;&gt;turno_disponible&lt;/p&gt;&lt;p style=&quot;margin: 0px; margin-left: 8px;&quot;&gt;&lt;span style=&quot;background-color: transparent; color: light-dark(rgb(0, 51, 102), rgb(161, 205, 249));&quot;&gt;otros_datos&amp;nbsp;&lt;/span&gt;&lt;/p&gt;" style="verticalAlign=top;align=left;overflow=fill;fontSize=12;fontFamily=Helvetica;html=1;strokeColor=#003366;shadow=1;fillColor=#D4E1F5;fontColor=#003366" parent="1" vertex="1">
                    <mxGeometry x="2810" y="960" width="160" height="160" as="geometry"/>
                </mxCell>
                <mxCell id="PyjHkJgTDeBDRdeg4yO5-12" style="edgeStyle=orthogonalEdgeStyle;rounded=0;orthogonalLoop=1;jettySize=auto;html=1;exitX=1.004;exitY=0.194;exitDx=0;exitDy=0;entryX=1.002;entryY=0.324;entryDx=0;entryDy=0;entryPerimeter=0;exitPerimeter=0;" parent="1" source="PyjHkJgTDeBDRdeg4yO5-1" target="PyjHkJgTDeBDRdeg4yO5-11" edge="1">
                    <mxGeometry relative="1" as="geometry">
                        <Array as="points">
                            <mxPoint x="3040" y="515"/>
                            <mxPoint x="3040" y="1012"/>
                        </Array>
                    </mxGeometry>
                </mxCell>
                <mxCell id="PyjHkJgTDeBDRdeg4yO5-13" value="&lt;p style=&quot;margin: 0px; margin-top: 4px; text-align: center; text-decoration: underline;&quot;&gt;&lt;b&gt;Pacientes&lt;/b&gt;&lt;/p&gt;&lt;hr&gt;&lt;p style=&quot;margin: 0px; margin-left: 8px;&quot;&gt;id_paciente&lt;/p&gt;&lt;p style=&quot;margin: 0px; margin-left: 8px;&quot;&gt;id_usuario&lt;/p&gt;&lt;p style=&quot;margin: 0px; margin-left: 8px;&quot;&gt;nss&lt;/p&gt;&lt;p style=&quot;margin: 0px; margin-left: 8px;&quot;&gt;&lt;b&gt;id_tipo_sangre&lt;/b&gt;&lt;/p&gt;&lt;p style=&quot;margin: 0px; margin-left: 8px;&quot;&gt;alergias&lt;/p&gt;&lt;p style=&quot;margin: 0px; margin-left: 8px;&quot;&gt;padecimientos_cronicos&lt;/p&gt;&lt;p style=&quot;margin: 0px; margin-left: 8px;&quot;&gt;contacto_emergencia&lt;/p&gt;&lt;p style=&quot;margin: 0px; margin-left: 8px;&quot;&gt;&lt;b&gt;id_relacion_contacto_emergencia&lt;/b&gt;&lt;/p&gt;&lt;p style=&quot;margin: 0px; margin-left: 8px;&quot;&gt;otros_datos medicos&lt;/p&gt;" style="verticalAlign=top;align=left;overflow=fill;fontSize=12;fontFamily=Helvetica;html=1;strokeColor=#003366;shadow=1;fillColor=#D4E1F5;fontColor=#003366" parent="1" vertex="1">
                    <mxGeometry x="2720" y="720" width="240" height="180" as="geometry"/>
                </mxCell>
                <mxCell id="PyjHkJgTDeBDRdeg4yO5-15" value="&lt;p style=&quot;margin: 0px; margin-top: 4px; text-align: center; text-decoration: underline;&quot;&gt;&lt;b&gt;Tipo_sangre&lt;/b&gt;&lt;/p&gt;&lt;hr&gt;&lt;p style=&quot;margin: 0px; margin-left: 8px;&quot;&gt;id_tipo_sangre&lt;/p&gt;&lt;p style=&quot;margin: 0px; margin-left: 8px;&quot;&gt;grupo_sanguineo&lt;/p&gt;&lt;p style=&quot;margin: 0px; margin-left: 8px;&quot;&gt;&lt;span style=&quot;background-color: transparent; color: rgba(0, 0, 0, 0); font-family: monospace; font-size: 0px;&quot;&gt;texto%3CmxGraphModel%3E%3Croot%3E%3CmxCell%20id%3D%220%22%2F%3E%3CmxCell%20id%3D%221%22%20parent%3D%220%22%2F%3E%3CmxCell%20id%3D%222%22%20value%3D%22%26lt%3Bp%20style%3D%26quot%3Bmargin%3A%200px%3B%20margin-top%3A%204px%3B%20text-align%3A%20center%3B%20text-decoration%3A%20underline%3B%26quot%3B%26gt%3B%26lt%3Bb%26gt%3BRespuesta_formulario%26lt%3B%2Fb%26gt%3B%26lt%3B%2Fp%26gt%3B%26lt%3Bhr%26gt%3B%26lt%3Bp%20style%3D%26quot%3Bmargin%3A%200px%3B%20margin-left%3A%208px%3B%26quot%3B%26gt%3Bid_respuesta%26lt%3B%2Fp%26gt%3B%26lt%3Bp%20style%3D%26quot%3Bmargin%3A%200px%3B%20margin-left%3A%208px%3B%26quot%3B%26gt%3Bid_pregunta%26lt%3B%2Fp%26gt%3B%26lt%3Bp%20style%3D%26quot%3Bmargin%3A%200px%3B%20margin-left%3A%208px%3B%26quot%3B%26gt%3Bid_usuario%26lt%3Bspan%20style%3D%26quot%3Bcolor%3A%20rgba(0%2C%200%2C%200%2C%200)%3B%20font-family%3A%20monospace%3B%20font-size%3A%200px%3B%20background-color%3A%20transparent%3B%26quot%3B%26gt%3B%253CmxGraphModel%253E%253Croot%253E%253CmxCell%2520id%253D%25220%2522%252F%253E%253CmxCell%2520id%253D%25221%2522%2520parent%253D%25220%2522%252F%253E%253CmxCell%2520id%253D%25222%2522%2520value%253D%2522%2526lt%253Bp%2520style%253D%2526quot%253Bmargin%253A%25200px%253B%2520margin-top%253A%25204px%253B%2520text-align%253A%2520center%253B%2520text-decoration%253A%2520underline%253B%2526quot%253B%2526gt%253B%2526lt%253Bb%2526gt%253BPreguntas_formulario%2526lt%253B%252Fb%2526gt%253B%2526lt%253B%252Fp%2526gt%253B%2526lt%253Bhr%2526gt%253B%2526lt%253Bp%2520style%253D%2526quot%253Bmargin%253A%25200px%253B%2520margin-left%253A%25208px%253B%2526quot%253B%2526gt%253Bid_pregunta%2526lt%253B%252Fp%2526gt%253B%2526lt%253Bp%2520style%253D%2526quot%253Bmargin%253A%25200px%253B%2520margin-left%253A%25208px%253B%2526quot%253B%2526gt%253Bid_formulario%2526lt%253B%252Fp%2526gt%253B%2526lt%253Bp%2520style%253D%2526quot%253Bmargin%253A%25200px%253B%2520margin-left%253A%25208px%253B%2526quot%253B%2526gt%253Btipo_pregunta%2526lt%253B%252Fp%2526gt%253B%2526lt%253Bp%2520style%253D%2526quot%253Bmargin%253A%25200px%253B%2520margin-left%253A%25208px%253B%2526quot%253B%2526gt%253Btexto_pregunta%2526lt%253B%252Fp%2526gt%253B%2526lt%253Bp%2520style%253D%2526quot%253Bmargin%253A%25200px%253B%2520margin-left%253A%25208px%253B%2526quot%253B%2526gt%253Borden%2526lt%253B%252Fp%2526gt%253B%2522%2520style%253D%2522verticalAlign%253Dtop%253Balign%253Dleft%253Boverflow%253Dfill%253BfontSize%253D12%253BfontFamily%253DHelvetica%253Bhtml%253D1%253BstrokeColor%253D%2523003366%253Bshadow%253D1%253BfillColor%253D%2523D4E1F5%253BfontColor%253D%2523003366%2522%2520vertex%253D%25221%2522%2520parent%253D%25221%2522%253E%253CmxGeometry%2520x%253D%252259.99999999999993%2522%2520y%253D%25221410%2522%2520width%253D%2522160.0000000000001%2522%2520height%253D%2522180%2522%2520as%253D%2522geometry%2522%252F%253E%253C%252FmxCell%253E%253C%252Froot%253E%253C%252FmxGraphModel%253E%26lt%3B%2Fspan%26gt%3B%26lt%3B%2Fp%26gt%3B%26lt%3Bp%20style%3D%26quot%3Bmargin%3A%200px%3B%20margin-left%3A%208px%3B%26quot%3B%26gt%3Bvalor_respuesta%26lt%3B%2Fp%26gt%3B%26lt%3Bp%20style%3D%26quot%3Bmargin%3A%200px%3B%20margin-left%3A%208px%3B%26quot%3B%26gt%3Bfecha_respuesta%26lt%3B%2Fp%26gt%3B%22%20style%3D%22verticalAlign%3Dtop%3Balign%3Dleft%3Boverflow%3Dfill%3BfontSize%3D12%3BfontFamily%3DHelvetica%3Bhtml%3D1%3BstrokeColor%3D%23003366%3Bshadow%3D1%3BfillColor%3D%23D4E1F5%3BfontColor%3D%23003366%22%20vertex%3D%221%22%20parent%3D%221%22%3E%3CmxGeometry%20x%3D%22252.99999999999994%22%20y%3D%221410%22%20width%3D%22160.0000000000001%22%20height%3D%22180%22%20as%3D%22geometry%22%2F%3E%3C%2FmxCell%3E%3C%2Froot%3E%3C%2FmxGraphModel%3E&lt;/span&gt;&lt;/p&gt;" style="verticalAlign=top;align=left;overflow=fill;fontSize=12;fontFamily=Helvetica;html=1;strokeColor=#9673a6;shadow=1;fillColor=#e1d5e7;" parent="1" vertex="1">
                    <mxGeometry x="3080" y="720" width="160" height="80" as="geometry"/>
                </mxCell>
                <mxCell id="PyjHkJgTDeBDRdeg4yO5-16" value="&lt;p style=&quot;margin: 0px; margin-top: 4px; text-align: center; text-decoration: underline;&quot;&gt;&lt;b&gt;Relacion_contacto&lt;/b&gt;&lt;/p&gt;&lt;hr&gt;&lt;p style=&quot;margin: 0px; margin-left: 8px;&quot;&gt;id_relacion&lt;/p&gt;&lt;p style=&quot;margin: 0px; margin-left: 8px;&quot;&gt;nombre_relacion&lt;/p&gt;&lt;p style=&quot;margin: 0px; margin-left: 8px;&quot;&gt;&lt;span style=&quot;background-color: transparent; color: rgba(0, 0, 0, 0); font-family: monospace; font-size: 0px;&quot;&gt;texto%3CmxGraphModel%3E%3Croot%3E%3CmxCell%20id%3D%220%22%2F%3E%3CmxCell%20id%3D%221%22%20parent%3D%220%22%2F%3E%3CmxCell%20id%3D%222%22%20value%3D%22%26lt%3Bp%20style%3D%26quot%3Bmargin%3A%200px%3B%20margin-top%3A%204px%3B%20text-align%3A%20center%3B%20text-decoration%3A%20underline%3B%26quot%3B%26gt%3B%26lt%3Bb%26gt%3BRespuesta_formulario%26lt%3B%2Fb%26gt%3B%26lt%3B%2Fp%26gt%3B%26lt%3Bhr%26gt%3B%26lt%3Bp%20style%3D%26quot%3Bmargin%3A%200px%3B%20margin-left%3A%208px%3B%26quot%3B%26gt%3Bid_respuesta%26lt%3B%2Fp%26gt%3B%26lt%3Bp%20style%3D%26quot%3Bmargin%3A%200px%3B%20margin-left%3A%208px%3B%26quot%3B%26gt%3Bid_pregunta%26lt%3B%2Fp%26gt%3B%26lt%3Bp%20style%3D%26quot%3Bmargin%3A%200px%3B%20margin-left%3A%208px%3B%26quot%3B%26gt%3Bid_usuario%26lt%3Bspan%20style%3D%26quot%3Bcolor%3A%20rgba(0%2C%200%2C%200%2C%200)%3B%20font-family%3A%20monospace%3B%20font-size%3A%200px%3B%20background-color%3A%20transparent%3B%26quot%3B%26gt%3B%253CmxGraphModel%253E%253Croot%253E%253CmxCell%2520id%253D%25220%2522%252F%253E%253CmxCell%2520id%253D%25221%2522%2520parent%253D%25220%2522%252F%253E%253CmxCell%2520id%253D%25222%2522%2520value%253D%2522%2526lt%253Bp%2520style%253D%2526quot%253Bmargin%253A%25200px%253B%2520margin-top%253A%25204px%253B%2520text-align%253A%2520center%253B%2520text-decoration%253A%2520underline%253B%2526quot%253B%2526gt%253B%2526lt%253Bb%2526gt%253BPreguntas_formulario%2526lt%253B%252Fb%2526gt%253B%2526lt%253B%252Fp%2526gt%253B%2526lt%253Bhr%2526gt%253B%2526lt%253Bp%2520style%253D%2526quot%253Bmargin%253A%25200px%253B%2520margin-left%253A%25208px%253B%2526quot%253B%2526gt%253Bid_pregunta%2526lt%253B%252Fp%2526gt%253B%2526lt%253Bp%2520style%253D%2526quot%253Bmargin%253A%25200px%253B%2520margin-left%253A%25208px%253B%2526quot%253B%2526gt%253Bid_formulario%2526lt%253B%252Fp%2526gt%253B%2526lt%253Bp%2520style%253D%2526quot%253Bmargin%253A%25200px%253B%2520margin-left%253A%25208px%253B%2526quot%253B%2526gt%253Btipo_pregunta%2526lt%253B%252Fp%2526gt%253B%2526lt%253Bp%2520style%253D%2526quot%253Bmargin%253A%25200px%253B%2520margin-left%253A%25208px%253B%2526quot%253B%2526gt%253Btexto_pregunta%2526lt%253B%252Fp%2526gt%253B%2526lt%253Bp%2520style%253D%2526quot%253Bmargin%253A%25200px%253B%2520margin-left%253A%25208px%253B%2526quot%253B%2526gt%253Borden%2526lt%253B%252Fp%2526gt%253B%2522%2520style%253D%2522verticalAlign%253Dtop%253Balign%253Dleft%253Boverflow%253Dfill%253BfontSize%253D12%253BfontFamily%253DHelvetica%253Bhtml%253D1%253BstrokeColor%253D%2523003366%253Bshadow%253D1%253BfillColor%253D%2523D4E1F5%253BfontColor%253D%2523003366%2522%2520vertex%253D%25221%2522%2520parent%253D%25221%2522%253E%253CmxGeometry%2520x%253D%252259.99999999999993%2522%2520y%253D%25221410%2522%2520width%253D%2522160.0000000000001%2522%2520height%253D%2522180%2522%2520as%253D%2522geometry%2522%252F%253E%253C%252FmxCell%253E%253C%252Froot%253E%253C%252FmxGraphModel%253E%26lt%3B%2Fspan%26gt%3B%26lt%3B%2Fp%26gt%3B%26lt%3Bp%20style%3D%26quot%3Bmargin%3A%200px%3B%20margin-left%3A%208px%3B%26quot%3B%26gt%3Bvalor_respuesta%26lt%3B%2Fp%26gt%3B%26lt%3Bp%20style%3D%26quot%3Bmargin%3A%200px%3B%20margin-left%3A%208px%3B%26quot%3B%26gt%3Bfecha_respuesta%26lt%3B%2Fp%26gt%3B%22%20style%3D%22verticalAlign%3Dtop%3Balign%3Dleft%3Boverflow%3Dfill%3BfontSize%3D12%3BfontFamily%3DHelvetica%3Bhtml%3D1%3BstrokeColor%3D%23003366%3Bshadow%3D1%3BfillColor%3D%23D4E1F5%3BfontColor%3D%23003366%22%20vertex%3D%221%22%20parent%3D%221%22%3E%3CmxGeometry%20x%3D%22252.99999999999994%22%20y%3D%221410%22%20width%3D%22160.0000000000001%22%20height%3D%22180%22%20as%3D%22geometry%22%2F%3E%3C%2FmxCell%3E%3C%2Froot%3E%3C%2FmxGraphModel%3E&lt;/span&gt;&lt;/p&gt;" style="verticalAlign=top;align=left;overflow=fill;fontSize=12;fontFamily=Helvetica;html=1;strokeColor=#9673a6;shadow=1;fillColor=#e1d5e7;" parent="1" vertex="1">
                    <mxGeometry x="3080" y="840" width="160" height="80" as="geometry"/>
                </mxCell>
                <mxCell id="PyjHkJgTDeBDRdeg4yO5-19" style="edgeStyle=orthogonalEdgeStyle;rounded=0;orthogonalLoop=1;jettySize=auto;html=1;exitX=1;exitY=0.25;exitDx=0;exitDy=0;entryX=0;entryY=0.25;entryDx=0;entryDy=0;" parent="1" source="PyjHkJgTDeBDRdeg4yO5-17" target="PyjHkJgTDeBDRdeg4yO5-11" edge="1">
                    <mxGeometry relative="1" as="geometry">
                        <Array as="points">
                            <mxPoint x="2680" y="760"/>
                            <mxPoint x="2680" y="1000"/>
                        </Array>
                    </mxGeometry>
                </mxCell>
                <mxCell id="PyjHkJgTDeBDRdeg4yO5-20" style="edgeStyle=orthogonalEdgeStyle;rounded=0;orthogonalLoop=1;jettySize=auto;html=1;entryX=0;entryY=0.25;entryDx=0;entryDy=0;exitX=1.006;exitY=0.194;exitDx=0;exitDy=0;exitPerimeter=0;dashed=1;strokeColor=#FF3333;" parent="1" source="PyjHkJgTDeBDRdeg4yO5-17" target="PyjHkJgTDeBDRdeg4yO5-1" edge="1">
                    <mxGeometry relative="1" as="geometry">
                        <Array as="points">
                            <mxPoint x="2670" y="751"/>
                            <mxPoint x="2670" y="525"/>
                        </Array>
                    </mxGeometry>
                </mxCell>
                <mxCell id="PyjHkJgTDeBDRdeg4yO5-17" value="&lt;p style=&quot;margin: 0px; margin-top: 4px; text-align: center; text-decoration: underline;&quot;&gt;&lt;b&gt;Citas&lt;/b&gt;&lt;/p&gt;&lt;hr&gt;&lt;p style=&quot;margin: 0px; margin-left: 8px;&quot;&gt;id_cita&lt;/p&gt;&lt;p style=&quot;margin: 0px; margin-left: 8px;&quot;&gt;id_enfermero (id_usuario)&lt;/p&gt;&lt;p style=&quot;margin: 0px; margin-left: 8px;&quot;&gt;id_pacinete&lt;/p&gt;&lt;p style=&quot;margin: 0px; margin-left: 8px;&quot;&gt;fecha_hora_inicio&lt;/p&gt;&lt;p style=&quot;margin: 0px; margin-left: 8px;&quot;&gt;fecha_hora_fin&lt;/p&gt;&lt;p style=&quot;margin: 0px; margin-left: 8px;&quot;&gt;&lt;b&gt;id_estado_cita&lt;/b&gt;&lt;/p&gt;&lt;p style=&quot;margin: 0px; margin-left: 8px;&quot;&gt;observaciones&lt;/p&gt;&lt;p style=&quot;margin: 0px; margin-left: 8px;&quot;&gt;ubicacion&lt;/p&gt;" style="verticalAlign=top;align=left;overflow=fill;fontSize=12;fontFamily=Helvetica;html=1;strokeColor=#003366;shadow=1;fillColor=#D4E1F5;fontColor=#003366" parent="1" vertex="1">
                    <mxGeometry x="2440" y="720" width="160" height="160" as="geometry"/>
                </mxCell>
                <mxCell id="PyjHkJgTDeBDRdeg4yO5-21" value="&lt;p style=&quot;margin: 0px; margin-top: 4px; text-align: center; text-decoration: underline;&quot;&gt;&lt;b&gt;Estados_cita&lt;/b&gt;&lt;/p&gt;&lt;hr&gt;&lt;p style=&quot;margin: 0px; margin-left: 8px;&quot;&gt;id_estado_cita&lt;/p&gt;&lt;p style=&quot;margin: 0px; margin-left: 8px;&quot;&gt;nombre_estado_cita&lt;/p&gt;&lt;p style=&quot;margin: 0px; margin-left: 8px;&quot;&gt;&lt;span style=&quot;background-color: transparent; color: rgba(0, 0, 0, 0); font-family: monospace; font-size: 0px;&quot;&gt;texto%3CmxGraphModel%3E%3Croot%3E%3CmxCell%20id%3D%220%22%2F%3E%3CmxCell%20id%3D%221%22%20parent%3D%220%22%2F%3E%3CmxCell%20id%3D%222%22%20value%3D%22%26lt%3Bp%20style%3D%26quot%3Bmargin%3A%200px%3B%20margin-top%3A%204px%3B%20text-align%3A%20center%3B%20text-decoration%3A%20underline%3B%26quot%3B%26gt%3B%26lt%3Bb%26gt%3BRespuesta_formulario%26lt%3B%2Fb%26gt%3B%26lt%3B%2Fp%26gt%3B%26lt%3Bhr%26gt%3B%26lt%3Bp%20style%3D%26quot%3Bmargin%3A%200px%3B%20margin-left%3A%208px%3B%26quot%3B%26gt%3Bid_respuesta%26lt%3B%2Fp%26gt%3B%26lt%3Bp%20style%3D%26quot%3Bmargin%3A%200px%3B%20margin-left%3A%208px%3B%26quot%3B%26gt%3Bid_pregunta%26lt%3B%2Fp%26gt%3B%26lt%3Bp%20style%3D%26quot%3Bmargin%3A%200px%3B%20margin-left%3A%208px%3B%26quot%3B%26gt%3Bid_usuario%26lt%3Bspan%20style%3D%26quot%3Bcolor%3A%20rgba(0%2C%200%2C%200%2C%200)%3B%20font-family%3A%20monospace%3B%20font-size%3A%200px%3B%20background-color%3A%20transparent%3B%26quot%3B%26gt%3B%253CmxGraphModel%253E%253Croot%253E%253CmxCell%2520id%253D%25220%2522%252F%253E%253CmxCell%2520id%253D%25221%2522%2520parent%253D%25220%2522%252F%253E%253CmxCell%2520id%253D%25222%2522%2520value%253D%2522%2526lt%253Bp%2520style%253D%2526quot%253Bmargin%253A%25200px%253B%2520margin-top%253A%25204px%253B%2520text-align%253A%2520center%253B%2520text-decoration%253A%2520underline%253B%2526quot%253B%2526gt%253B%2526lt%253Bb%2526gt%253BPreguntas_formulario%2526lt%253B%252Fb%2526gt%253B%2526lt%253B%252Fp%2526gt%253B%2526lt%253Bhr%2526gt%253B%2526lt%253Bp%2520style%253D%2526quot%253Bmargin%253A%25200px%253B%2520margin-left%253A%25208px%253B%2526quot%253B%2526gt%253Bid_pregunta%2526lt%253B%252Fp%2526gt%253B%2526lt%253Bp%2520style%253D%2526quot%253Bmargin%253A%25200px%253B%2520margin-left%253A%25208px%253B%2526quot%253B%2526gt%253Bid_formulario%2526lt%253B%252Fp%2526gt%253B%2526lt%253Bp%2520style%253D%2526quot%253Bmargin%253A%25200px%253B%2520margin-left%253A%25208px%253B%2526quot%253B%2526gt%253Btipo_pregunta%2526lt%253B%252Fp%2526gt%253B%2526lt%253Bp%2520style%253D%2526quot%253Bmargin%253A%25200px%253B%2520margin-left%253A%25208px%253B%2526quot%253B%2526gt%253Btexto_pregunta%2526lt%253B%252Fp%2526gt%253B%2526lt%253Bp%2520style%253D%2526quot%253Bmargin%253A%25200px%253B%2520margin-left%253A%25208px%253B%2526quot%253B%2526gt%253Borden%2526lt%253B%252Fp%2526gt%253B%2522%2520style%253D%2522verticalAlign%253Dtop%253Balign%253Dleft%253Boverflow%253Dfill%253BfontSize%253D12%253BfontFamily%253DHelvetica%253Bhtml%253D1%253BstrokeColor%253D%2523003366%253Bshadow%253D1%253BfillColor%253D%2523D4E1F5%253BfontColor%253D%2523003366%2522%2520vertex%253D%25221%2522%2520parent%253D%25221%2522%253E%253CmxGeometry%2520x%253D%252259.99999999999993%2522%2520y%253D%25221410%2522%2520width%253D%2522160.0000000000001%2522%2520height%253D%2522180%2522%2520as%253D%2522geometry%2522%252F%253E%253C%252FmxCell%253E%253C%252Froot%253E%253C%252FmxGraphModel%253E%26lt%3B%2Fspan%26gt%3B%26lt%3B%2Fp%26gt%3B%26lt%3Bp%20style%3D%26quot%3Bmargin%3A%200px%3B%20margin-left%3A%208px%3B%26quot%3B%26gt%3Bvalor_respuesta%26lt%3B%2Fp%26gt%3B%26lt%3Bp%20style%3D%26quot%3Bmargin%3A%200px%3B%20margin-left%3A%208px%3B%26quot%3B%26gt%3Bfecha_respuesta%26lt%3B%2Fp%26gt%3B%22%20style%3D%22verticalAlign%3Dtop%3Balign%3Dleft%3Boverflow%3Dfill%3BfontSize%3D12%3BfontFamily%3DHelvetica%3Bhtml%3D1%3BstrokeColor%3D%23003366%3Bshadow%3D1%3BfillColor%3D%23D4E1F5%3BfontColor%3D%23003366%22%20vertex%3D%221%22%20parent%3D%221%22%3E%3CmxGeometry%20x%3D%22252.99999999999994%22%20y%3D%221410%22%20width%3D%22160.0000000000001%22%20height%3D%22180%22%20as%3D%22geometry%22%2F%3E%3C%2FmxCell%3E%3C%2Froot%3E%3C%2FmxGraphModel%3E&lt;/span&gt;&lt;/p&gt;" style="verticalAlign=top;align=left;overflow=fill;fontSize=12;fontFamily=Helvetica;html=1;strokeColor=#9673a6;shadow=1;fillColor=#e1d5e7;" parent="1" vertex="1">
                    <mxGeometry x="2440" y="920" width="160" height="80" as="geometry"/>
                </mxCell>
                <mxCell id="PyjHkJgTDeBDRdeg4yO5-22" value="&lt;p style=&quot;margin: 0px; margin-top: 4px; text-align: center; text-decoration: underline;&quot;&gt;&lt;b&gt;Servicios&lt;/b&gt;&lt;/p&gt;&lt;hr&gt;&lt;p style=&quot;margin: 0px; margin-left: 8px;&quot;&gt;id_servicio&lt;/p&gt;&lt;p style=&quot;margin: 0px; margin-left: 8px;&quot;&gt;nombre_servicio&lt;/p&gt;&lt;p style=&quot;margin: 0px; margin-left: 8px;&quot;&gt;descripccion&lt;/p&gt;&lt;p style=&quot;margin: 0px; margin-left: 8px;&quot;&gt;costo_estandar&lt;/p&gt;&lt;p style=&quot;margin: 0px; margin-left: 8px;&quot;&gt;duracion_estimada&lt;/p&gt;&lt;p style=&quot;margin: 0px; margin-left: 8px;&quot;&gt;&lt;br&gt;&lt;/p&gt;" style="verticalAlign=top;align=left;overflow=fill;fontSize=12;fontFamily=Helvetica;html=1;strokeColor=#003366;shadow=1;fillColor=#D4E1F5;fontColor=#003366" parent="1" vertex="1">
                    <mxGeometry x="2440" y="1040" width="160" height="120" as="geometry"/>
                </mxCell>
                <mxCell id="PyjHkJgTDeBDRdeg4yO5-24" style="edgeStyle=orthogonalEdgeStyle;rounded=0;orthogonalLoop=1;jettySize=auto;html=1;exitX=0.991;exitY=0.461;exitDx=0;exitDy=0;entryX=0;entryY=0.25;entryDx=0;entryDy=0;exitPerimeter=0;" parent="1" source="PyjHkJgTDeBDRdeg4yO5-23" target="PyjHkJgTDeBDRdeg4yO5-17" edge="1">
                    <mxGeometry relative="1" as="geometry"/>
                </mxCell>
                <mxCell id="PyjHkJgTDeBDRdeg4yO5-25" style="edgeStyle=orthogonalEdgeStyle;rounded=0;orthogonalLoop=1;jettySize=auto;html=1;exitX=1;exitY=0.601;exitDx=0;exitDy=0;entryX=0;entryY=0.25;entryDx=0;entryDy=0;exitPerimeter=0;" parent="1" source="PyjHkJgTDeBDRdeg4yO5-23" target="PyjHkJgTDeBDRdeg4yO5-22" edge="1">
                    <mxGeometry relative="1" as="geometry"/>
                </mxCell>
                <mxCell id="PyjHkJgTDeBDRdeg4yO5-23" value="&lt;p style=&quot;margin: 0px; margin-top: 4px; text-align: center; text-decoration: underline;&quot;&gt;&lt;b&gt;Cita_servicios&lt;/b&gt;&lt;/p&gt;&lt;hr&gt;&lt;p style=&quot;margin: 0px; margin-left: 8px;&quot;&gt;id_cita_servicio&lt;/p&gt;&lt;p style=&quot;margin: 0px; margin-left: 8px;&quot;&gt;id_cita&lt;/p&gt;&lt;p style=&quot;margin: 0px; margin-left: 8px;&quot;&gt;id_servicio&lt;/p&gt;&lt;p style=&quot;margin: 0px; margin-left: 8px;&quot;&gt;cantidad&lt;/p&gt;&lt;p style=&quot;margin: 0px; margin-left: 8px;&quot;&gt;&lt;br&gt;&lt;/p&gt;" style="verticalAlign=top;align=left;overflow=fill;fontSize=12;fontFamily=Helvetica;html=1;strokeColor=#003366;shadow=1;fillColor=#D4E1F5;fontColor=#003366" parent="1" vertex="1">
                    <mxGeometry x="2200" y="800" width="160" height="120" as="geometry"/>
                </mxCell>
                <mxCell id="PyjHkJgTDeBDRdeg4yO5-29" style="edgeStyle=orthogonalEdgeStyle;rounded=0;orthogonalLoop=1;jettySize=auto;html=1;exitX=0;exitY=0.25;exitDx=0;exitDy=0;" parent="1" source="PyjHkJgTDeBDRdeg4yO5-26" target="PyjHkJgTDeBDRdeg4yO5-28" edge="1">
                    <mxGeometry relative="1" as="geometry"/>
                </mxCell>
                <mxCell id="PyjHkJgTDeBDRdeg4yO5-26" value="&lt;p style=&quot;margin: 0px; margin-top: 4px; text-align: center; text-decoration: underline;&quot;&gt;&lt;b&gt;formularios&lt;/b&gt;&lt;/p&gt;&lt;hr&gt;&lt;p style=&quot;margin: 0px; margin-left: 8px;&quot;&gt;id_formulario&lt;/p&gt;&lt;p style=&quot;margin: 0px; margin-left: 8px;&quot;&gt;&lt;span style=&quot;background-color: transparent; color: light-dark(rgb(0, 51, 102), rgb(161, 205, 249));&quot;&gt;titulo_formulario&lt;/span&gt;&lt;/p&gt;&lt;p style=&quot;margin: 0px; margin-left: 8px;&quot;&gt;&lt;span style=&quot;background-color: transparent; color: light-dark(rgb(0, 51, 102), rgb(161, 205, 249));&quot;&gt;descripccion_formulario&lt;/span&gt;&lt;/p&gt;&lt;p style=&quot;margin: 0px; margin-left: 8px;&quot;&gt;&lt;span style=&quot;background-color: transparent; color: light-dark(rgb(0, 51, 102), rgb(161, 205, 249));&quot;&gt;id_usuario&lt;/span&gt;&lt;/p&gt;&lt;p style=&quot;margin: 0px; margin-left: 8px;&quot;&gt;&lt;span style=&quot;background-color: transparent; color: light-dark(rgb(0, 51, 102), rgb(161, 205, 249));&quot;&gt;fecha_creacion&lt;/span&gt;&lt;/p&gt;&lt;p style=&quot;margin: 0px; margin-left: 8px;&quot;&gt;&lt;span style=&quot;background-color: transparent; color: light-dark(rgb(0, 51, 102), rgb(161, 205, 249));&quot;&gt;fecha_actualizacion&lt;/span&gt;&lt;/p&gt;&lt;p style=&quot;margin: 0px; margin-left: 8px;&quot;&gt;&lt;span style=&quot;background-color: transparent; color: light-dark(rgb(0, 51, 102), rgb(161, 205, 249));&quot;&gt;estado&lt;/span&gt;&lt;/p&gt;&lt;p style=&quot;margin: 0px; margin-left: 8px;&quot;&gt;&lt;br&gt;&lt;/p&gt;" style="verticalAlign=top;align=left;overflow=fill;fontSize=12;fontFamily=Helvetica;html=1;strokeColor=#003366;shadow=1;fillColor=#D4E1F5;fontColor=#003366" parent="1" vertex="1">
                    <mxGeometry x="2560" y="230" width="160" height="160" as="geometry"/>
                </mxCell>
                <mxCell id="PyjHkJgTDeBDRdeg4yO5-27" style="edgeStyle=orthogonalEdgeStyle;rounded=0;orthogonalLoop=1;jettySize=auto;html=1;exitX=1;exitY=0.5;exitDx=0;exitDy=0;entryX=0.007;entryY=0.331;entryDx=0;entryDy=0;entryPerimeter=0;" parent="1" source="PyjHkJgTDeBDRdeg4yO5-26" target="PyjHkJgTDeBDRdeg4yO5-1" edge="1">
                    <mxGeometry relative="1" as="geometry">
                        <Array as="points">
                            <mxPoint x="2760" y="310"/>
                            <mxPoint x="2760" y="540"/>
                        </Array>
                    </mxGeometry>
                </mxCell>
                <mxCell id="PyjHkJgTDeBDRdeg4yO5-28" value="&lt;p style=&quot;margin: 0px; margin-top: 4px; text-align: center; text-decoration: underline;&quot;&gt;&lt;b&gt;Preguntas_formulario&lt;/b&gt;&lt;/p&gt;&lt;hr&gt;&lt;p style=&quot;margin: 0px; margin-left: 8px;&quot;&gt;id_pregunta&lt;/p&gt;&lt;p style=&quot;margin: 0px; margin-left: 8px;&quot;&gt;id_formulario&lt;/p&gt;&lt;p style=&quot;margin: 0px; margin-left: 8px;&quot;&gt;tipo_pregunta&lt;/p&gt;&lt;p style=&quot;margin: 0px; margin-left: 8px;&quot;&gt;texto_pregunta&lt;/p&gt;&lt;p style=&quot;margin: 0px; margin-left: 8px;&quot;&gt;orden&lt;/p&gt;" style="verticalAlign=top;align=left;overflow=fill;fontSize=12;fontFamily=Helvetica;html=1;strokeColor=#003366;shadow=1;fillColor=#D4E1F5;fontColor=#003366" parent="1" vertex="1">
                    <mxGeometry x="2318" y="360" width="160" height="120" as="geometry"/>
                </mxCell>
                <mxCell id="PyjHkJgTDeBDRdeg4yO5-33" style="edgeStyle=orthogonalEdgeStyle;rounded=0;orthogonalLoop=1;jettySize=auto;html=1;exitX=1;exitY=0.5;exitDx=0;exitDy=0;entryX=0;entryY=0.25;entryDx=0;entryDy=0;dashed=1;strokeColor=#FF0000;" parent="1" source="PyjHkJgTDeBDRdeg4yO5-30" target="PyjHkJgTDeBDRdeg4yO5-13" edge="1">
                    <mxGeometry relative="1" as="geometry">
                        <Array as="points">
                            <mxPoint x="2690" y="620"/>
                            <mxPoint x="2690" y="765"/>
                        </Array>
                    </mxGeometry>
                </mxCell>
                <mxCell id="PyjHkJgTDeBDRdeg4yO5-30" value="&lt;p style=&quot;margin: 0px; margin-top: 4px; text-align: center; text-decoration: underline;&quot;&gt;&lt;b&gt;Respuesta_formulario&lt;/b&gt;&lt;/p&gt;&lt;hr&gt;&lt;p style=&quot;margin: 0px; margin-left: 8px;&quot;&gt;id_respuesta&lt;/p&gt;&lt;p style=&quot;margin: 0px; margin-left: 8px;&quot;&gt;id_pregunta&lt;/p&gt;&lt;p style=&quot;margin: 0px; margin-left: 8px;&quot;&gt;id_usuario (id_paciente)&lt;span style=&quot;color: rgba(0, 0, 0, 0); font-family: monospace; font-size: 0px; background-color: transparent;&quot;&gt;%3CmxGraphModel%3E%3Croot%3E%3CmxCell%20id%3D%220%22%2F%3E%3CmxCell%20id%3D%221%22%20parent%3D%220%22%2F%3E%3CmxCell%20id%3D%222%22%20value%3D%22%26lt%3Bp%20style%3D%26quot%3Bmargin%3A%200px%3B%20margin-top%3A%204px%3B%20text-align%3A%20center%3B%20text-decoration%3A%20underline%3B%26quot%3B%26gt%3B%26lt%3Bb%26gt%3BPreguntas_formulario%26lt%3B%2Fb%26gt%3B%26lt%3B%2Fp%26gt%3B%26lt%3Bhr%26gt%3B%26lt%3Bp%20style%3D%26quot%3Bmargin%3A%200px%3B%20margin-left%3A%208px%3B%26quot%3B%26gt%3Bid_pregunta%26lt%3B%2Fp%26gt%3B%26lt%3Bp%20style%3D%26quot%3Bmargin%3A%200px%3B%20margin-left%3A%208px%3B%26quot%3B%26gt%3Bid_formulario%26lt%3B%2Fp%26gt%3B%26lt%3Bp%20style%3D%26quot%3Bmargin%3A%200px%3B%20margin-left%3A%208px%3B%26quot%3B%26gt%3Btipo_pregunta%26lt%3B%2Fp%26gt%3B%26lt%3Bp%20style%3D%26quot%3Bmargin%3A%200px%3B%20margin-left%3A%208px%3B%26quot%3B%26gt%3Btexto_pregunta%26lt%3B%2Fp%26gt%3B%26lt%3Bp%20style%3D%26quot%3Bmargin%3A%200px%3B%20margin-left%3A%208px%3B%26quot%3B%26gt%3Borden%26lt%3B%2Fp%26gt%3B%22%20style%3D%22verticalAlign%3Dtop%3Balign%3Dleft%3Boverflow%3Dfill%3BfontSize%3D12%3BfontFamily%3DHelvetica%3Bhtml%3D1%3BstrokeColor%3D%23003366%3Bshadow%3D1%3BfillColor%3D%23D4E1F5%3BfontColor%3D%23003366%22%20vertex%3D%221%22%20parent%3D%221%22%3E%3CmxGeometry%20x%3D%2259.99999999999993%22%20y%3D%221410%22%20width%3D%22160.0000000000001%22%20height%3D%22180%22%20as%3D%22geometry%22%2F%3E%3C%2FmxCell%3E%3C%2Froot%3E%3C%2FmxGraphModel%3E&lt;/span&gt;&lt;/p&gt;&lt;p style=&quot;margin: 0px; margin-left: 8px;&quot;&gt;valor_respuesta&lt;/p&gt;&lt;p style=&quot;margin: 0px; margin-left: 8px;&quot;&gt;fecha_respuesta&lt;/p&gt;" style="verticalAlign=top;align=left;overflow=fill;fontSize=12;fontFamily=Helvetica;html=1;strokeColor=#003366;shadow=1;fillColor=#D4E1F5;fontColor=#003366" parent="1" vertex="1">
                    <mxGeometry x="2440" y="560" width="160" height="120" as="geometry"/>
                </mxCell>
                <mxCell id="PyjHkJgTDeBDRdeg4yO5-31" style="edgeStyle=orthogonalEdgeStyle;rounded=0;orthogonalLoop=1;jettySize=auto;html=1;exitX=1.001;exitY=0.418;exitDx=0;exitDy=0;entryX=1;entryY=0.75;entryDx=0;entryDy=0;exitPerimeter=0;" parent="1" source="PyjHkJgTDeBDRdeg4yO5-30" target="PyjHkJgTDeBDRdeg4yO5-28" edge="1">
                    <mxGeometry relative="1" as="geometry">
                        <Array as="points">
                            <mxPoint x="2640" y="610"/>
                            <mxPoint x="2640" y="450"/>
                        </Array>
                    </mxGeometry>
                </mxCell>
                <mxCell id="PyjHkJgTDeBDRdeg4yO5-32" style="edgeStyle=orthogonalEdgeStyle;rounded=0;orthogonalLoop=1;jettySize=auto;html=1;exitX=1.003;exitY=0.579;exitDx=0;exitDy=0;entryX=0.007;entryY=0.411;entryDx=0;entryDy=0;entryPerimeter=0;exitPerimeter=0;" parent="1" source="PyjHkJgTDeBDRdeg4yO5-30" target="PyjHkJgTDeBDRdeg4yO5-1" edge="1">
                    <mxGeometry relative="1" as="geometry"/>
                </mxCell>
                <mxCell id="PyjHkJgTDeBDRdeg4yO5-35" value="&lt;p style=&quot;margin: 0px; margin-top: 4px; text-align: center; text-decoration: underline;&quot;&gt;&lt;b&gt;Notificaciones&lt;/b&gt;&lt;/p&gt;&lt;hr&gt;&lt;p style=&quot;margin: 0px; margin-left: 8px;&quot;&gt;id_notificacion&lt;/p&gt;&lt;p style=&quot;margin: 0px; margin-left: 8px;&quot;&gt;id_usuario_destinatario&lt;/p&gt;&lt;p style=&quot;margin: 0px; margin-left: 8px;&quot;&gt;id_tipo_notificacion&lt;/p&gt;&lt;p style=&quot;margin: 0px; margin-left: 8px;&quot;&gt;mensaje&lt;/p&gt;&lt;p style=&quot;margin: 0px; margin-left: 8px;&quot;&gt;fecha_creacion&lt;/p&gt;&lt;p style=&quot;margin: 0px; margin-left: 8px;&quot;&gt;leido&lt;span style=&quot;color: rgba(0, 0, 0, 0); font-family: monospace; font-size: 0px; background-color: transparent;&quot;&gt;%3CmxGraphModel%3E%3Croot%3E%3CmxCell%20id%3D%220%22%2F%3E%3CmxCell%20id%3D%221%22%20parent%3D%220%22%2F%3E%3CmxCell%20id%3D%222%22%20value%3D%22%26lt%3Bp%20style%3D%26quot%3Bmargin%3A%200px%3B%20margin-top%3A%204px%3B%20text-align%3A%20center%3B%20text-decoration%3A%20underline%3B%26quot%3B%26gt%3B%26lt%3Bb%26gt%3BRespuesta_formulario%26lt%3B%2Fb%26gt%3B%26lt%3B%2Fp%26gt%3B%26lt%3Bhr%26gt%3B%26lt%3Bp%20style%3D%26quot%3Bmargin%3A%200px%3B%20margin-left%3A%208px%3B%26quot%3B%26gt%3Bid_respuesta%26lt%3B%2Fp%26gt%3B%26lt%3Bp%20style%3D%26quot%3Bmargin%3A%200px%3B%20margin-left%3A%208px%3B%26quot%3B%26gt%3Bid_pregunta%26lt%3B%2Fp%26gt%3B%26lt%3Bp%20style%3D%26quot%3Bmargin%3A%200px%3B%20margin-left%3A%208px%3B%26quot%3B%26gt%3Bid_usuario%26lt%3Bspan%20style%3D%26quot%3Bcolor%3A%20rgba(0%2C%200%2C%200%2C%200)%3B%20font-family%3A%20monospace%3B%20font-size%3A%200px%3B%20background-color%3A%20transparent%3B%26quot%3B%26gt%3B%253CmxGraphModel%253E%253Croot%253E%253CmxCell%2520id%253D%25220%2522%252F%253E%253CmxCell%2520id%253D%25221%2522%2520parent%253D%25220%2522%252F%253E%253CmxCell%2520id%253D%25222%2522%2520value%253D%2522%2526lt%253Bp%2520style%253D%2526quot%253Bmargin%253A%25200px%253B%2520margin-top%253A%25204px%253B%2520text-align%253A%2520center%253B%2520text-decoration%253A%2520underline%253B%2526quot%253B%2526gt%253B%2526lt%253Bb%2526gt%253BPreguntas_formulario%2526lt%253B%252Fb%2526gt%253B%2526lt%253B%252Fp%2526gt%253B%2526lt%253Bhr%2526gt%253B%2526lt%253Bp%2520style%253D%2526quot%253Bmargin%253A%25200px%253B%2520margin-left%253A%25208px%253B%2526quot%253B%2526gt%253Bid_pregunta%2526lt%253B%252Fp%2526gt%253B%2526lt%253Bp%2520style%253D%2526quot%253Bmargin%253A%25200px%253B%2520margin-left%253A%25208px%253B%2526quot%253B%2526gt%253Bid_formulario%2526lt%253B%252Fp%2526gt%253B%2526lt%253Bp%2520style%253D%2526quot%253Bmargin%253A%25200px%253B%2520margin-left%253A%25208px%253B%2526quot%253B%2526gt%253Btipo_pregunta%2526lt%253B%252Fp%2526gt%253B%2526lt%253Bp%2520style%253D%2526quot%253Bmargin%253A%25200px%253B%2520margin-left%253A%25208px%253B%2526quot%253B%2526gt%253Btexto_pregunta%2526lt%253B%252Fp%2526gt%253B%2526lt%253Bp%2520style%253D%2526quot%253Bmargin%253A%25200px%253B%2520margin-left%253A%25208px%253B%2526quot%253B%2526gt%253Borden%2526lt%253B%252Fp%2526gt%253B%2522%2520style%253D%2522verticalAlign%253Dtop%253Balign%253Dleft%253Boverflow%253Dfill%253BfontSize%253D12%253BfontFamily%253DHelvetica%253Bhtml%253D1%253BstrokeColor%253D%2523003366%253Bshadow%253D1%253BfillColor%253D%2523D4E1F5%253BfontColor%253D%2523003366%2522%2520vertex%253D%25221%2522%2520parent%253D%25221%2522%253E%253CmxGeometry%2520x%253D%252259.99999999999993%2522%2520y%253D%25221410%2522%2520width%253D%2522160.0000000000001%2522%2520height%253D%2522180%2522%2520as%253D%2522geometry%2522%252F%253E%253C%252FmxCell%253E%253C%252Froot%253E%253C%252FmxGraphModel%253E%26lt%3B%2Fspan%26gt%3B%26lt%3B%2Fp%26gt%3B%26lt%3Bp%20style%3D%26quot%3Bmargin%3A%200px%3B%20margin-left%3A%208px%3B%26quot%3B%26gt%3Bvalor_respuesta%26lt%3B%2Fp%26gt%3B%26lt%3Bp%20style%3D%26quot%3Bmargin%3A%200px%3B%20margin-left%3A%208px%3B%26quot%3B%26gt%3Bfecha_respuesta%26lt%3B%2Fp%26gt%3B%22%20style%3D%22verticalAlign%3Dtop%3Balign%3Dleft%3Boverflow%3Dfill%3BfontSize%3D12%3BfontFamily%3DHelvetica%3Bhtml%3D1%3BstrokeColor%3D%23003366%3Bshadow%3D1%3BfillColor%3D%23D4E1F5%3BfontColor%3D%23003366%22%20vertex%3D%221%22%20parent%3D%221%22%3E%3CmxGeometry%20x%3D%22252.99999999999994%22%20y%3D%221410%22%20width%3D%22160.0000000000001%22%20height%3D%22180%22%20as%3D%22geometry%22%2F%3E%3C%2FmxCell%3E%3C%2Froot%3E%3C%2FmxGraphModel%3E&lt;/span&gt;&lt;/p&gt;" style="verticalAlign=top;align=left;overflow=fill;fontSize=12;fontFamily=Helvetica;html=1;strokeColor=#003366;shadow=1;fillColor=#D4E1F5;fontColor=#003366" parent="1" vertex="1">
                    <mxGeometry x="3400" y="240" width="160" height="160" as="geometry"/>
                </mxCell>
                <mxCell id="PyjHkJgTDeBDRdeg4yO5-36" style="edgeStyle=orthogonalEdgeStyle;rounded=0;orthogonalLoop=1;jettySize=auto;html=1;exitX=0.998;exitY=0.334;exitDx=0;exitDy=0;entryX=0;entryY=0.375;entryDx=0;entryDy=0;entryPerimeter=0;exitPerimeter=0;" parent="1" source="PyjHkJgTDeBDRdeg4yO5-1" target="PyjHkJgTDeBDRdeg4yO5-35" edge="1">
                    <mxGeometry relative="1" as="geometry">
                        <Array as="points">
                            <mxPoint x="3320" y="540"/>
                            <mxPoint x="3320" y="300"/>
                        </Array>
                    </mxGeometry>
                </mxCell>
                <mxCell id="PyjHkJgTDeBDRdeg4yO5-37" value="&lt;p style=&quot;margin: 0px; margin-top: 4px; text-align: center; text-decoration: underline;&quot;&gt;&lt;b&gt;Notificaciones&lt;/b&gt;&lt;/p&gt;&lt;hr&gt;&lt;p style=&quot;margin: 0px; margin-left: 8px;&quot;&gt;id_tipo_notificacion&lt;/p&gt;&lt;p style=&quot;margin: 0px; margin-left: 8px;&quot;&gt;nombre_tipo_notificacion&lt;/p&gt;&lt;p style=&quot;margin: 0px; margin-left: 8px;&quot;&gt;&lt;span style=&quot;background-color: transparent; color: rgba(0, 0, 0, 0); font-family: monospace; font-size: 0px;&quot;&gt;texto%3CmxGraphModel%3E%3Croot%3E%3CmxCell%20id%3D%220%22%2F%3E%3CmxCell%20id%3D%221%22%20parent%3D%220%22%2F%3E%3CmxCell%20id%3D%222%22%20value%3D%22%26lt%3Bp%20style%3D%26quot%3Bmargin%3A%200px%3B%20margin-top%3A%204px%3B%20text-align%3A%20center%3B%20text-decoration%3A%20underline%3B%26quot%3B%26gt%3B%26lt%3Bb%26gt%3BRespuesta_formulario%26lt%3B%2Fb%26gt%3B%26lt%3B%2Fp%26gt%3B%26lt%3Bhr%26gt%3B%26lt%3Bp%20style%3D%26quot%3Bmargin%3A%200px%3B%20margin-left%3A%208px%3B%26quot%3B%26gt%3Bid_respuesta%26lt%3B%2Fp%26gt%3B%26lt%3Bp%20style%3D%26quot%3Bmargin%3A%200px%3B%20margin-left%3A%208px%3B%26quot%3B%26gt%3Bid_pregunta%26lt%3B%2Fp%26gt%3B%26lt%3Bp%20style%3D%26quot%3Bmargin%3A%200px%3B%20margin-left%3A%208px%3B%26quot%3B%26gt%3Bid_usuario%26lt%3Bspan%20style%3D%26quot%3Bcolor%3A%20rgba(0%2C%200%2C%200%2C%200)%3B%20font-family%3A%20monospace%3B%20font-size%3A%200px%3B%20background-color%3A%20transparent%3B%26quot%3B%26gt%3B%253CmxGraphModel%253E%253Croot%253E%253CmxCell%2520id%253D%25220%2522%252F%253E%253CmxCell%2520id%253D%25221%2522%2520parent%253D%25220%2522%252F%253E%253CmxCell%2520id%253D%25222%2522%2520value%253D%2522%2526lt%253Bp%2520style%253D%2526quot%253Bmargin%253A%25200px%253B%2520margin-top%253A%25204px%253B%2520text-align%253A%2520center%253B%2520text-decoration%253A%2520underline%253B%2526quot%253B%2526gt%253B%2526lt%253Bb%2526gt%253BPreguntas_formulario%2526lt%253B%252Fb%2526gt%253B%2526lt%253B%252Fp%2526gt%253B%2526lt%253Bhr%2526gt%253B%2526lt%253Bp%2520style%253D%2526quot%253Bmargin%253A%25200px%253B%2520margin-left%253A%25208px%253B%2526quot%253B%2526gt%253Bid_pregunta%2526lt%253B%252Fp%2526gt%253B%2526lt%253Bp%2520style%253D%2526quot%253Bmargin%253A%25200px%253B%2520margin-left%253A%25208px%253B%2526quot%253B%2526gt%253Bid_formulario%2526lt%253B%252Fp%2526gt%253B%2526lt%253Bp%2520style%253D%2526quot%253Bmargin%253A%25200px%253B%2520margin-left%253A%25208px%253B%2526quot%253B%2526gt%253Btipo_pregunta%2526lt%253B%252Fp%2526gt%253B%2526lt%253Bp%2520style%253D%2526quot%253Bmargin%253A%25200px%253B%2520margin-left%253A%25208px%253B%2526quot%253B%2526gt%253Btexto_pregunta%2526lt%253B%252Fp%2526gt%253B%2526lt%253Bp%2520style%253D%2526quot%253Bmargin%253A%25200px%253B%2520margin-left%253A%25208px%253B%2526quot%253B%2526gt%253Borden%2526lt%253B%252Fp%2526gt%253B%2522%2520style%253D%2522verticalAlign%253Dtop%253Balign%253Dleft%253Boverflow%253Dfill%253BfontSize%253D12%253BfontFamily%253DHelvetica%253Bhtml%253D1%253BstrokeColor%253D%2523003366%253Bshadow%253D1%253BfillColor%253D%2523D4E1F5%253BfontColor%253D%2523003366%2522%2520vertex%253D%25221%2522%2520parent%253D%25221%2522%253E%253CmxGeometry%2520x%253D%252259.99999999999993%2522%2520y%253D%25221410%2522%2520width%253D%2522160.0000000000001%2522%2520height%253D%2522180%2522%2520as%253D%2522geometry%2522%252F%253E%253C%252FmxCell%253E%253C%252Froot%253E%253C%252FmxGraphModel%253E%26lt%3B%2Fspan%26gt%3B%26lt%3B%2Fp%26gt%3B%26lt%3Bp%20style%3D%26quot%3Bmargin%3A%200px%3B%20margin-left%3A%208px%3B%26quot%3B%26gt%3Bvalor_respuesta%26lt%3B%2Fp%26gt%3B%26lt%3Bp%20style%3D%26quot%3Bmargin%3A%200px%3B%20margin-left%3A%208px%3B%26quot%3B%26gt%3Bfecha_respuesta%26lt%3B%2Fp%26gt%3B%22%20style%3D%22verticalAlign%3Dtop%3Balign%3Dleft%3Boverflow%3Dfill%3BfontSize%3D12%3BfontFamily%3DHelvetica%3Bhtml%3D1%3BstrokeColor%3D%23003366%3Bshadow%3D1%3BfillColor%3D%23D4E1F5%3BfontColor%3D%23003366%22%20vertex%3D%221%22%20parent%3D%221%22%3E%3CmxGeometry%20x%3D%22252.99999999999994%22%20y%3D%221410%22%20width%3D%22160.0000000000001%22%20height%3D%22180%22%20as%3D%22geometry%22%2F%3E%3C%2FmxCell%3E%3C%2Froot%3E%3C%2FmxGraphModel%3E&lt;/span&gt;&lt;/p&gt;" style="verticalAlign=top;align=left;overflow=fill;fontSize=12;fontFamily=Helvetica;html=1;strokeColor=#9673a6;shadow=1;fillColor=#e1d5e7;" parent="1" vertex="1">
                    <mxGeometry x="3400" y="120" width="160" height="80" as="geometry"/>
                </mxCell>
                <mxCell id="PyjHkJgTDeBDRdeg4yO5-38" value="Text" style="text;html=1;align=center;verticalAlign=middle;whiteSpace=wrap;rounded=0;" parent="1" vertex="1">
                    <mxGeometry x="2920" y="710" width="60" height="30" as="geometry"/>
                </mxCell>
                <mxCell id="PyjHkJgTDeBDRdeg4yO5-39" value="&lt;h1&gt;&lt;b&gt;AZUL - TABLAS&amp;nbsp;&lt;/b&gt;&lt;/h1&gt;" style="text;html=1;align=center;verticalAlign=middle;whiteSpace=wrap;rounded=0;" parent="1" vertex="1">
                    <mxGeometry x="1650" y="280" width="200" height="30" as="geometry"/>
                </mxCell>
                <mxCell id="PyjHkJgTDeBDRdeg4yO5-40" value="&lt;h1&gt;&lt;b&gt;AMARILLO - TABLAS INTERMEDIAS&lt;/b&gt;&lt;/h1&gt;" style="text;html=1;align=center;verticalAlign=middle;whiteSpace=wrap;rounded=0;" parent="1" vertex="1">
                    <mxGeometry x="640" y="60" width="480" height="30" as="geometry"/>
                </mxCell>
                <mxCell id="PyjHkJgTDeBDRdeg4yO5-42" value="&lt;h1&gt;&lt;b&gt;ROJO - TABLAS DE MEDICION Y DISPOSITIVO (IMPORTANTES)&lt;/b&gt;&lt;/h1&gt;" style="text;html=1;align=center;verticalAlign=middle;whiteSpace=wrap;rounded=0;" parent="1" vertex="1">
                    <mxGeometry x="806" y="720" width="634" height="30" as="geometry"/>
                </mxCell>
                <mxCell id="PyjHkJgTDeBDRdeg4yO5-43" value="&lt;h1&gt;&lt;b&gt;MORADO - CATALOGOS&lt;/b&gt;&lt;/h1&gt;" style="text;html=1;align=center;verticalAlign=middle;whiteSpace=wrap;rounded=0;" parent="1" vertex="1">
                    <mxGeometry x="40" y="930" width="340" height="30" as="geometry"/>
                </mxCell>
                <mxCell id="PyjHkJgTDeBDRdeg4yO5-44" value="&lt;h1&gt;&lt;b&gt;ROJO - CATALOGOS IMPORTANTES&lt;/b&gt;&lt;/h1&gt;" style="text;html=1;align=center;verticalAlign=middle;whiteSpace=wrap;rounded=0;" parent="1" vertex="1">
                    <mxGeometry x="620" y="1240" width="340" height="60" as="geometry"/>
                </mxCell>
                <mxCell id="5" value="" style="edgeStyle=segmentEdgeStyle;endArrow=classic;html=1;curved=0;rounded=0;endSize=8;startSize=8;exitX=0.994;exitY=0.289;exitDx=0;exitDy=0;exitPerimeter=0;entryX=0.459;entryY=0.017;entryDx=0;entryDy=0;entryPerimeter=0;" edge="1" parent="1" source="Op8TfLiG2Sl3Lztc7KOS-147" target="Op8TfLiG2Sl3Lztc7KOS-117">
                    <mxGeometry width="50" height="50" relative="1" as="geometry">
                        <mxPoint x="460" y="190" as="sourcePoint"/>
                        <mxPoint x="670" y="230" as="targetPoint"/>
                        <Array as="points">
                            <mxPoint x="410" y="112"/>
                            <mxPoint x="410" y="30"/>
                            <mxPoint x="640" y="30"/>
                            <mxPoint x="640" y="240"/>
                            <mxPoint x="721" y="240"/>
                        </Array>
                    </mxGeometry>
                </mxCell>
                <mxCell id="7" value="" style="edgeStyle=segmentEdgeStyle;endArrow=classic;html=1;curved=0;rounded=0;endSize=8;startSize=8;exitX=0.006;exitY=0.372;exitDx=0;exitDy=0;exitPerimeter=0;entryX=0.994;entryY=0.156;entryDx=0;entryDy=0;entryPerimeter=0;" edge="1" parent="1" source="Op8TfLiG2Sl3Lztc7KOS-120" target="Op8TfLiG2Sl3Lztc7KOS-119">
                    <mxGeometry width="50" height="50" relative="1" as="geometry">
                        <mxPoint x="1170" y="320" as="sourcePoint"/>
                        <mxPoint x="1220" y="270" as="targetPoint"/>
                        <Array as="points">
                            <mxPoint x="1230" y="347"/>
                            <mxPoint x="1230" y="310"/>
                            <mxPoint x="1220" y="310"/>
                            <mxPoint x="1220" y="308"/>
                        </Array>
                    </mxGeometry>
                </mxCell>
                <mxCell id="8" value="" style="edgeStyle=segmentEdgeStyle;endArrow=classic;html=1;curved=0;rounded=0;endSize=8;startSize=8;exitX=0.013;exitY=0.383;exitDx=0;exitDy=0;exitPerimeter=0;entryX=0.631;entryY=-0.006;entryDx=0;entryDy=0;entryPerimeter=0;" edge="1" parent="1" source="Op8TfLiG2Sl3Lztc7KOS-146" target="Op8TfLiG2Sl3Lztc7KOS-119">
                    <mxGeometry width="50" height="50" relative="1" as="geometry">
                        <mxPoint x="170" y="150" as="sourcePoint"/>
                        <mxPoint x="1160" y="170" as="targetPoint"/>
                        <Array as="points">
                            <mxPoint y="129"/>
                            <mxPoint y="-60"/>
                            <mxPoint x="1160" y="-60"/>
                        </Array>
                    </mxGeometry>
                </mxCell>
                <mxCell id="9" value="" style="edgeStyle=segmentEdgeStyle;endArrow=classic;html=1;curved=0;rounded=0;endSize=8;startSize=8;exitX=1;exitY=0.3;exitDx=0;exitDy=0;exitPerimeter=0;entryX=0.5;entryY=0;entryDx=0;entryDy=0;" edge="1" parent="1" source="Op8TfLiG2Sl3Lztc7KOS-146" target="Op8TfLiG2Sl3Lztc7KOS-118">
                    <mxGeometry width="50" height="50" relative="1" as="geometry">
                        <mxPoint x="360" y="80" as="sourcePoint"/>
                        <mxPoint x="950" y="210" as="targetPoint"/>
                        <Array as="points">
                            <mxPoint x="220" y="114"/>
                            <mxPoint x="220" y="10"/>
                            <mxPoint x="1120" y="10"/>
                            <mxPoint x="1120" y="170"/>
                            <mxPoint x="950" y="170"/>
                        </Array>
                    </mxGeometry>
                </mxCell>
                <mxCell id="10" value="" style="edgeStyle=segmentEdgeStyle;endArrow=classic;html=1;curved=0;rounded=0;endSize=8;startSize=8;exitX=0.025;exitY=0.317;exitDx=0;exitDy=0;exitPerimeter=0;entryX=0.5;entryY=0;entryDx=0;entryDy=0;" edge="1" parent="1" source="Op8TfLiG2Sl3Lztc7KOS-148" target="Op8TfLiG2Sl3Lztc7KOS-114">
                    <mxGeometry width="50" height="50" relative="1" as="geometry">
                        <mxPoint x="200" y="200" as="sourcePoint"/>
                        <mxPoint x="110" y="260" as="targetPoint"/>
                        <Array as="points">
                            <mxPoint x="410" y="117"/>
                            <mxPoint x="410" y="260"/>
                            <mxPoint x="120" y="260"/>
                        </Array>
                    </mxGeometry>
                </mxCell>
                <mxCell id="11" value="" style="edgeStyle=segmentEdgeStyle;endArrow=classic;html=1;curved=0;rounded=0;endSize=8;startSize=8;exitX=0.01;exitY=0.306;exitDx=0;exitDy=0;exitPerimeter=0;entryX=0.001;entryY=0.179;entryDx=0;entryDy=0;entryPerimeter=0;" edge="1" parent="1" source="PyjHkJgTDeBDRdeg4yO5-2" target="PyjHkJgTDeBDRdeg4yO5-1">
                    <mxGeometry width="50" height="50" relative="1" as="geometry">
                        <mxPoint x="2794.149999999999" y="60.000000000000156" as="sourcePoint"/>
                        <mxPoint x="2799.9099999999994" y="495.6200000000003" as="targetPoint"/>
                        <Array as="points">
                            <mxPoint x="2802" y="60"/>
                            <mxPoint x="2755" y="60"/>
                            <mxPoint x="2755" y="225"/>
                            <mxPoint x="2780" y="225"/>
                            <mxPoint x="2780" y="512"/>
                        </Array>
                    </mxGeometry>
                </mxCell>
                <mxCell id="12" value="&lt;p style=&quot;margin: 0px; margin-top: 4px; text-align: center; text-decoration: underline;&quot;&gt;&lt;b&gt;Comentarios&lt;/b&gt;&lt;/p&gt;&lt;hr&gt;&lt;p style=&quot;margin: 0px; margin-left: 8px;&quot;&gt;id_comentario&lt;/p&gt;&lt;p style=&quot;margin: 0px; margin-left: 8px;&quot;&gt;id_usuario_autor&lt;/p&gt;&lt;p style=&quot;margin: 0px; margin-left: 8px;&quot;&gt;&lt;span style=&quot;background-color: transparent;&quot;&gt;id_enfermero_o_servicio&lt;/span&gt;&lt;/p&gt;&lt;p style=&quot;margin: 0px; margin-left: 8px;&quot;&gt;&lt;span style=&quot;background-color: transparent;&quot;&gt;texto_comentario&lt;/span&gt;&lt;/p&gt;&lt;p style=&quot;margin: 0px; margin-left: 8px;&quot;&gt;&lt;span style=&quot;background-color: transparent;&quot;&gt;calificacion&lt;/span&gt;&lt;/p&gt;&lt;p style=&quot;margin: 0px; margin-left: 8px;&quot;&gt;&lt;span style=&quot;background-color: transparent;&quot;&gt;fecha_comentario&lt;/span&gt;&lt;/p&gt;&lt;p style=&quot;margin: 0px; margin-left: 8px;&quot;&gt;&lt;span style=&quot;background-color: transparent; color: rgba(0, 0, 0, 0); font-family: monospace; font-size: 0px;&quot;&gt;texto%3CmxGraphModel%3E%3Croot%3E%3CmxCell%20id%3D%220%22%2F%3E%3CmxCell%20id%3D%221%22%20parent%3D%220%22%2F%3E%3CmxCell%20id%3D%222%22%20value%3D%22%26lt%3Bp%20style%3D%26quot%3Bmargin%3A%200px%3B%20margin-top%3A%204px%3B%20text-align%3A%20center%3B%20text-decoration%3A%20underline%3B%26quot%3B%26gt%3B%26lt%3Bb%26gt%3BRespuesta_formulario%26lt%3B%2Fb%26gt%3B%26lt%3B%2Fp%26gt%3B%26lt%3Bhr%26gt%3B%26lt%3Bp%20style%3D%26quot%3Bmargin%3A%200px%3B%20margin-left%3A%208px%3B%26quot%3B%26gt%3Bid_respuesta%26lt%3B%2Fp%26gt%3B%26lt%3Bp%20style%3D%26quot%3Bmargin%3A%200px%3B%20margin-left%3A%208px%3B%26quot%3B%26gt%3Bid_pregunta%26lt%3B%2Fp%26gt%3B%26lt%3Bp%20style%3D%26quot%3Bmargin%3A%200px%3B%20margin-left%3A%208px%3B%26quot%3B%26gt%3Bid_usuario%26lt%3Bspan%20style%3D%26quot%3Bcolor%3A%20rgba(0%2C%200%2C%200%2C%200)%3B%20font-family%3A%20monospace%3B%20font-size%3A%200px%3B%20background-color%3A%20transparent%3B%26quot%3B%26gt%3B%253CmxGraphModel%253E%253Croot%253E%253CmxCell%2520id%253D%25220%2522%252F%253E%253CmxCell%2520id%253D%25221%2522%2520parent%253D%25220%2522%252F%253E%253CmxCell%2520id%253D%25222%2522%2520value%253D%2522%2526lt%253Bp%2520style%253D%2526quot%253Bmargin%253A%25200px%253B%2520margin-top%253A%25204px%253B%2520text-align%253A%2520center%253B%2520text-decoration%253A%2520underline%253B%2526quot%253B%2526gt%253B%2526lt%253Bb%2526gt%253BPreguntas_formulario%2526lt%253B%252Fb%2526gt%253B%2526lt%253B%252Fp%2526gt%253B%2526lt%253Bhr%2526gt%253B%2526lt%253Bp%2520style%253D%2526quot%253Bmargin%253A%25200px%253B%2520margin-left%253A%25208px%253B%2526quot%253B%2526gt%253Bid_pregunta%2526lt%253B%252Fp%2526gt%253B%2526lt%253Bp%2520style%253D%2526quot%253Bmargin%253A%25200px%253B%2520margin-left%253A%25208px%253B%2526quot%253B%2526gt%253Bid_formulario%2526lt%253B%252Fp%2526gt%253B%2526lt%253Bp%2520style%253D%2526quot%253Bmargin%253A%25200px%253B%2520margin-left%253A%25208px%253B%2526quot%253B%2526gt%253Btipo_pregunta%2526lt%253B%252Fp%2526gt%253B%2526lt%253Bp%2520style%253D%2526quot%253Bmargin%253A%25200px%253B%2520margin-left%253A%25208px%253B%2526quot%253B%2526gt%253Btexto_pregunta%2526lt%253B%252Fp%2526gt%253B%2526lt%253Bp%2520style%253D%2526quot%253Bmargin%253A%25200px%253B%2520margin-left%253A%25208px%253B%2526quot%253B%2526gt%253Borden%2526lt%253B%252Fp%2526gt%253B%2522%2520style%253D%2522verticalAlign%253Dtop%253Balign%253Dleft%253Boverflow%253Dfill%253BfontSize%253D12%253BfontFamily%253DHelvetica%253Bhtml%253D1%253BstrokeColor%253D%2523003366%253Bshadow%253D1%253BfillColor%253D%2523D4E1F5%253BfontColor%253D%2523003366%2522%2520vertex%253D%25221%2522%2520parent%253D%25221%2522%253E%253CmxGeometry%2520x%253D%252259.99999999999993%2522%2520y%253D%25221410%2522%2520width%253D%2522160.0000000000001%2522%2520height%253D%2522180%2522%2520as%253D%2522geometry%2522%252F%253E%253C%252FmxCell%253E%253C%252Froot%253E%253C%252FmxGraphModel%253E%26lt%3B%2Fspan%26gt%3B%26lt%3B%2Fp%26gt%3B%26lt%3Bp%20style%3D%26quot%3Bmargin%3A%200px%3B%20margin-left%3A%208px%3B%26quot%3B%26gt%3Bvalor_respuesta%26lt%3B%2Fp%26gt%3B%26lt%3Bp%20style%3D%26quot%3Bmargin%3A%200px%3B%20margin-left%3A%208px%3B%26quot%3B%26gt%3Bfecha_respuesta%26lt%3B%2Fp%26gt%3B%22%20style%3D%22verticalAlign%3Dtop%3Balign%3Dleft%3Boverflow%3Dfill%3BfontSize%3D12%3BfontFamily%3DHelvetica%3Bhtml%3D1%3BstrokeColor%3D%23003366%3Bshadow%3D1%3BfillColor%3D%23D4E1F5%3BfontColor%3D%23003366%22%20vertex%3D%221%22%20parent%3D%221%22%3E%3CmxGeometry%20x%3D%22252.99999999999994%22%20y%3D%221410%22%20width%3D%22160.0000000000001%22%20height%3D%22180%22%20as%3D%22geometry%22%2F%3E%3C%2FmxCell%3E%3C%2Froot%3E%3C%2FmxGraphModel%3E&lt;/span&gt;&lt;/p&gt;" style="verticalAlign=top;align=left;overflow=fill;fontSize=12;fontFamily=Helvetica;html=1;strokeColor=#003366;shadow=1;fillColor=#D4E1F5;fontColor=#003366" vertex="1" parent="1">
                    <mxGeometry x="3420" y="495" width="160.0000000000001" height="180" as="geometry"/>
                </mxCell>
                <mxCell id="13" value="&lt;p style=&quot;margin: 0px; margin-top: 4px; text-align: center; text-decoration: underline;&quot;&gt;&lt;b&gt;Metodos de pago&lt;/b&gt;&lt;/p&gt;&lt;hr&gt;&lt;p style=&quot;margin: 0px; margin-left: 8px;&quot;&gt;id_metodo_pago&lt;/p&gt;&lt;p style=&quot;margin: 0px; margin-left: 8px;&quot;&gt;nombre_metodo_pago&lt;/p&gt;&lt;p style=&quot;margin: 0px; margin-left: 8px;&quot;&gt;&lt;span style=&quot;background-color: transparent; color: rgba(0, 0, 0, 0); font-family: monospace; font-size: 0px;&quot;&gt;texto%3CmxGraphModel%3E%3Croot%3E%3CmxCell%20id%3D%220%22%2F%3E%3CmxCell%20id%3D%221%22%20parent%3D%220%22%2F%3E%3CmxCell%20id%3D%222%22%20value%3D%22%26lt%3Bp%20style%3D%26quot%3Bmargin%3A%200px%3B%20margin-top%3A%204px%3B%20text-align%3A%20center%3B%20text-decoration%3A%20underline%3B%26quot%3B%26gt%3B%26lt%3Bb%26gt%3BRespuesta_formulario%26lt%3B%2Fb%26gt%3B%26lt%3B%2Fp%26gt%3B%26lt%3Bhr%26gt%3B%26lt%3Bp%20style%3D%26quot%3Bmargin%3A%200px%3B%20margin-left%3A%208px%3B%26quot%3B%26gt%3Bid_respuesta%26lt%3B%2Fp%26gt%3B%26lt%3Bp%20style%3D%26quot%3Bmargin%3A%200px%3B%20margin-left%3A%208px%3B%26quot%3B%26gt%3Bid_pregunta%26lt%3B%2Fp%26gt%3B%26lt%3Bp%20style%3D%26quot%3Bmargin%3A%200px%3B%20margin-left%3A%208px%3B%26quot%3B%26gt%3Bid_usuario%26lt%3Bspan%20style%3D%26quot%3Bcolor%3A%20rgba(0%2C%200%2C%200%2C%200)%3B%20font-family%3A%20monospace%3B%20font-size%3A%200px%3B%20background-color%3A%20transparent%3B%26quot%3B%26gt%3B%253CmxGraphModel%253E%253Croot%253E%253CmxCell%2520id%253D%25220%2522%252F%253E%253CmxCell%2520id%253D%25221%2522%2520parent%253D%25220%2522%252F%253E%253CmxCell%2520id%253D%25222%2522%2520value%253D%2522%2526lt%253Bp%2520style%253D%2526quot%253Bmargin%253A%25200px%253B%2520margin-top%253A%25204px%253B%2520text-align%253A%2520center%253B%2520text-decoration%253A%2520underline%253B%2526quot%253B%2526gt%253B%2526lt%253Bb%2526gt%253BPreguntas_formulario%2526lt%253B%252Fb%2526gt%253B%2526lt%253B%252Fp%2526gt%253B%2526lt%253Bhr%2526gt%253B%2526lt%253Bp%2520style%253D%2526quot%253Bmargin%253A%25200px%253B%2520margin-left%253A%25208px%253B%2526quot%253B%2526gt%253Bid_pregunta%2526lt%253B%252Fp%2526gt%253B%2526lt%253Bp%2520style%253D%2526quot%253Bmargin%253A%25200px%253B%2520margin-left%253A%25208px%253B%2526quot%253B%2526gt%253Bid_formulario%2526lt%253B%252Fp%2526gt%253B%2526lt%253Bp%2520style%253D%2526quot%253Bmargin%253A%25200px%253B%2520margin-left%253A%25208px%253B%2526quot%253B%2526gt%253Btipo_pregunta%2526lt%253B%252Fp%2526gt%253B%2526lt%253Bp%2520style%253D%2526quot%253Bmargin%253A%25200px%253B%2520margin-left%253A%25208px%253B%2526quot%253B%2526gt%253Btexto_pregunta%2526lt%253B%252Fp%2526gt%253B%2526lt%253Bp%2520style%253D%2526quot%253Bmargin%253A%25200px%253B%2520margin-left%253A%25208px%253B%2526quot%253B%2526gt%253Borden%2526lt%253B%252Fp%2526gt%253B%2522%2520style%253D%2522verticalAlign%253Dtop%253Balign%253Dleft%253Boverflow%253Dfill%253BfontSize%253D12%253BfontFamily%253DHelvetica%253Bhtml%253D1%253BstrokeColor%253D%2523003366%253Bshadow%253D1%253BfillColor%253D%2523D4E1F5%253BfontColor%253D%2523003366%2522%2520vertex%253D%25221%2522%2520parent%253D%25221%2522%253E%253CmxGeometry%2520x%253D%252259.99999999999993%2522%2520y%253D%25221410%2522%2520width%253D%2522160.0000000000001%2522%2520height%253D%2522180%2522%2520as%253D%2522geometry%2522%252F%253E%253C%252FmxCell%253E%253C%252Froot%253E%253C%252FmxGraphModel%253E%26lt%3B%2Fspan%26gt%3B%26lt%3B%2Fp%26gt%3B%26lt%3Bp%20style%3D%26quot%3Bmargin%3A%200px%3B%20margin-left%3A%208px%3B%26quot%3B%26gt%3Bvalor_respuesta%26lt%3B%2Fp%26gt%3B%26lt%3Bp%20style%3D%26quot%3Bmargin%3A%200px%3B%20margin-left%3A%208px%3B%26quot%3B%26gt%3Bfecha_respuesta%26lt%3B%2Fp%26gt%3B%22%20style%3D%22verticalAlign%3Dtop%3Balign%3Dleft%3Boverflow%3Dfill%3BfontSize%3D12%3BfontFamily%3DHelvetica%3Bhtml%3D1%3BstrokeColor%3D%23003366%3Bshadow%3D1%3BfillColor%3D%23D4E1F5%3BfontColor%3D%23003366%22%20vertex%3D%221%22%20parent%3D%221%22%3E%3CmxGeometry%20x%3D%22252.99999999999994%22%20y%3D%221410%22%20width%3D%22160.0000000000001%22%20height%3D%22180%22%20as%3D%22geometry%22%2F%3E%3C%2FmxCell%3E%3C%2Froot%3E%3C%2FmxGraphModel%3E&lt;/span&gt;&lt;/p&gt;" style="verticalAlign=top;align=left;overflow=fill;fontSize=12;fontFamily=Helvetica;html=1;strokeColor=#9673a6;shadow=1;fillColor=#e1d5e7;" vertex="1" parent="1">
                    <mxGeometry x="3210" y="1070" width="160.0000000000001" height="180" as="geometry"/>
                </mxCell>
                <mxCell id="14" value="&lt;p style=&quot;margin: 0px; margin-top: 4px; text-align: center; text-decoration: underline;&quot;&gt;&lt;b&gt;Tipo de dispositivo&lt;/b&gt;&lt;/p&gt;&lt;hr&gt;&lt;p style=&quot;margin: 0px; margin-left: 8px;&quot;&gt;id_tipo_dispositivo&lt;/p&gt;&lt;p style=&quot;margin: 0px; margin-left: 8px;&quot;&gt;nombre_tipo_dispositivo&lt;/p&gt;&lt;p style=&quot;margin: 0px; margin-left: 8px;&quot;&gt;descripccion&lt;/p&gt;" style="verticalAlign=top;align=left;overflow=fill;fontSize=12;fontFamily=Helvetica;html=1;strokeColor=#b85450;shadow=1;fillColor=#f8cecc;" vertex="1" parent="1">
                    <mxGeometry x="3420" y="1070" width="160.0000000000001" height="180" as="geometry"/>
                </mxCell>
                <mxCell id="15" value="&lt;p style=&quot;margin: 0px; margin-top: 4px; text-align: center; text-decoration: underline;&quot;&gt;&lt;b&gt;Tipo de medicion&lt;/b&gt;&lt;/p&gt;&lt;hr&gt;&lt;p style=&quot;margin: 0px; margin-left: 8px;&quot;&gt;id_tipo_medicion&lt;/p&gt;&lt;p style=&quot;margin: 0px; margin-left: 8px;&quot;&gt;nombre_de_medicion&lt;/p&gt;&lt;p style=&quot;margin: 0px; margin-left: 8px;&quot;&gt;descripccion&lt;/p&gt;" style="verticalAlign=top;align=left;overflow=fill;fontSize=12;fontFamily=Helvetica;html=1;strokeColor=#b85450;shadow=1;fillColor=#f8cecc;" vertex="1" parent="1">
                    <mxGeometry x="3617" y="1070" width="160.0000000000001" height="180" as="geometry"/>
                </mxCell>
                <mxCell id="16" value="&lt;p style=&quot;margin: 0px; margin-top: 4px; text-align: center; text-decoration: underline;&quot;&gt;&lt;b&gt;mediciones_dispositivos&lt;/b&gt;&lt;/p&gt;&lt;hr&gt;&lt;p style=&quot;margin: 0px; margin-left: 8px;&quot;&gt;id_mediciones&lt;/p&gt;&lt;p style=&quot;margin: 0px; margin-left: 8px;&quot;&gt;id_dispositivo&lt;/p&gt;&lt;p style=&quot;margin: 0px; margin-left: 8px;&quot;&gt;id_tipo_dispositivo&lt;/p&gt;&lt;p style=&quot;margin: 0px; margin-left: 8px;&quot;&gt;valor&lt;/p&gt;&lt;p style=&quot;margin: 0px; margin-left: 8px;&quot;&gt;unidad_medida&lt;/p&gt;&lt;p style=&quot;margin: 0px; margin-left: 8px;&quot;&gt;fecha_hora_medicion&lt;/p&gt;&lt;p style=&quot;margin: 0px; margin-left: 8px;&quot;&gt;&lt;br&gt;&lt;/p&gt;" style="verticalAlign=top;align=left;overflow=fill;fontSize=12;fontFamily=Helvetica;html=1;strokeColor=#b85450;shadow=1;fillColor=#f8cecc;" vertex="1" parent="1">
                    <mxGeometry x="3707" y="800" width="180" height="180" as="geometry"/>
                </mxCell>
                <mxCell id="17" value="" style="edgeStyle=segmentEdgeStyle;endArrow=classic;html=1;curved=0;rounded=0;endSize=8;startSize=8;exitX=-0.015;exitY=0.378;exitDx=0;exitDy=0;exitPerimeter=0;entryX=0.5;entryY=0;entryDx=0;entryDy=0;" edge="1" parent="1" source="16" target="14">
                    <mxGeometry width="50" height="50" relative="1" as="geometry">
                        <mxPoint x="3457" y="910" as="sourcePoint"/>
                        <mxPoint x="3507" y="860" as="targetPoint"/>
                    </mxGeometry>
                </mxCell>
                <mxCell id="18" value="&lt;p style=&quot;margin: 0px; margin-top: 4px; text-align: center; text-decoration: underline;&quot;&gt;&lt;b&gt;Dispositivos&lt;/b&gt;&lt;/p&gt;&lt;hr&gt;&lt;p style=&quot;margin: 0px; margin-left: 8px;&quot;&gt;id_dispositivo&lt;/p&gt;&lt;p style=&quot;margin: 0px; margin-left: 8px;&quot;&gt;numero_Serie&lt;/p&gt;&lt;p style=&quot;margin: 0px; margin-left: 8px;&quot;&gt;id_tipo_dispositivo&lt;/p&gt;&lt;p style=&quot;margin: 0px; margin-left: 8px;&quot;&gt;modelo&lt;/p&gt;&lt;p style=&quot;margin: 0px; margin-left: 8px;&quot;&gt;fabricante&lt;/p&gt;&lt;p style=&quot;margin: 0px; margin-left: 8px;&quot;&gt;fecha_registro&lt;/p&gt;" style="verticalAlign=top;align=left;overflow=fill;fontSize=12;fontFamily=Helvetica;html=1;strokeColor=#b85450;shadow=1;fillColor=#f8cecc;" vertex="1" parent="1">
                    <mxGeometry x="3977" y="800" width="160.0000000000001" height="180" as="geometry"/>
                </mxCell>
                <mxCell id="20" value="" style="edgeStyle=segmentEdgeStyle;endArrow=classic;html=1;curved=0;rounded=0;endSize=8;startSize=8;exitX=0.013;exitY=0.322;exitDx=0;exitDy=0;exitPerimeter=0;entryX=0.5;entryY=0;entryDx=0;entryDy=0;" edge="1" parent="1" source="16" target="18">
                    <mxGeometry width="50" height="50" relative="1" as="geometry">
                        <mxPoint x="3627" y="790" as="sourcePoint"/>
                        <mxPoint x="3977" y="720" as="targetPoint"/>
                        <Array as="points">
                            <mxPoint x="3667" y="858"/>
                            <mxPoint x="3667" y="770"/>
                            <mxPoint x="4057" y="770"/>
                        </Array>
                    </mxGeometry>
                </mxCell>
                <mxCell id="21" value="" style="edgeStyle=segmentEdgeStyle;endArrow=classic;html=1;curved=0;rounded=0;endSize=8;startSize=8;exitX=0.004;exitY=0.387;exitDx=0;exitDy=0;exitPerimeter=0;entryX=0.5;entryY=0;entryDx=0;entryDy=0;" edge="1" parent="1" source="18" target="15">
                    <mxGeometry width="50" height="50" relative="1" as="geometry">
                        <mxPoint x="4057" y="990" as="sourcePoint"/>
                        <mxPoint x="4107" y="940" as="targetPoint"/>
                        <Array as="points">
                            <mxPoint x="3937" y="870"/>
                            <mxPoint x="3937" y="1020"/>
                            <mxPoint x="3697" y="1020"/>
                        </Array>
                    </mxGeometry>
                </mxCell>
                <mxCell id="22" value="&lt;p style=&quot;margin: 0px; margin-top: 4px; text-align: center; text-decoration: underline;&quot;&gt;&lt;b&gt;Pagos&lt;/b&gt;&lt;/p&gt;&lt;hr&gt;&lt;p style=&quot;margin: 0px; margin-left: 8px;&quot;&gt;id_pago&lt;/p&gt;&lt;p style=&quot;margin: 0px; margin-left: 8px;&quot;&gt;id_cita&lt;/p&gt;&lt;p style=&quot;margin: 0px; margin-left: 8px;&quot;&gt;monto&lt;/p&gt;&lt;p style=&quot;margin: 0px; margin-left: 8px;&quot;&gt;fecha_pago&lt;/p&gt;&lt;p style=&quot;margin: 0px; margin-left: 8px;&quot;&gt;id_metodo_pago&lt;/p&gt;&lt;p style=&quot;margin: 0px; margin-left: 8px;&quot;&gt;id_Estado_pago&lt;/p&gt;" style="verticalAlign=top;align=left;overflow=fill;fontSize=12;fontFamily=Helvetica;html=1;strokeColor=#003366;shadow=1;fillColor=#D4E1F5;fontColor=#003366" vertex="1" parent="1">
                    <mxGeometry x="3710" y="420" width="160.0000000000001" height="180" as="geometry"/>
                </mxCell>
                <mxCell id="23" value="" style="edgeStyle=segmentEdgeStyle;endArrow=classic;html=1;curved=0;rounded=0;endSize=8;startSize=8;exitX=0;exitY=0.5;exitDx=0;exitDy=0;entryX=0.5;entryY=0;entryDx=0;entryDy=0;" edge="1" parent="1" source="22" target="13">
                    <mxGeometry width="50" height="50" relative="1" as="geometry">
                        <mxPoint x="3400" y="610" as="sourcePoint"/>
                        <mxPoint x="3450" y="560" as="targetPoint"/>
                        <Array as="points">
                            <mxPoint x="3640" y="510"/>
                            <mxPoint x="3640" y="760"/>
                            <mxPoint x="3290" y="760"/>
                        </Array>
                    </mxGeometry>
                </mxCell>
                <mxCell id="24" value="&lt;p style=&quot;margin: 0px; margin-top: 4px; text-align: center; text-decoration: underline;&quot;&gt;&lt;b&gt;Dispositivos_pacientes&lt;/b&gt;&lt;/p&gt;&lt;hr&gt;&lt;p style=&quot;margin: 0px; margin-left: 8px;&quot;&gt;id_dispositivo_pacinete&lt;/p&gt;&lt;p style=&quot;margin: 0px; margin-left: 8px;&quot;&gt;id_paciente&lt;/p&gt;&lt;p style=&quot;margin: 0px; margin-left: 8px;&quot;&gt;id_dispositivo&lt;/p&gt;&lt;p style=&quot;margin: 0px; margin-left: 8px;&quot;&gt;fecha_asignacion&lt;/p&gt;&lt;p style=&quot;margin: 0px; margin-left: 8px;&quot;&gt;fecha_devolucion&lt;/p&gt;" style="verticalAlign=top;align=left;overflow=fill;fontSize=12;fontFamily=Helvetica;html=1;strokeColor=#d6b656;shadow=1;fillColor=#fff2cc;" vertex="1" parent="1">
                    <mxGeometry x="3750" y="-140" width="160.0000000000001" height="180" as="geometry"/>
                </mxCell>
                <mxCell id="25" value="" style="edgeStyle=segmentEdgeStyle;endArrow=classic;html=1;curved=0;rounded=0;endSize=8;startSize=8;exitX=1.025;exitY=0.359;exitDx=0;exitDy=0;exitPerimeter=0;entryX=1;entryY=0.25;entryDx=0;entryDy=0;" edge="1" parent="1" source="24" target="18">
                    <mxGeometry width="50" height="50" relative="1" as="geometry">
                        <mxPoint x="3710" y="120" as="sourcePoint"/>
                        <mxPoint x="3760" y="70" as="targetPoint"/>
                        <Array as="points">
                            <mxPoint x="4250" y="-75"/>
                            <mxPoint x="4250" y="845"/>
                        </Array>
                    </mxGeometry>
                </mxCell>
            </root>
        </mxGraphModel>
    </diagram>
</mxfile>